<?xml version="1.0" encoding="utf-8"?>
<!-- Generator: Adobe Illustrator 16.0.0, SVG Export Plug-In . SVG Version: 6.00 Build 0)  -->
<!DOCTYPE svg PUBLIC "-//W3C//DTD SVG 1.1//EN" "http://www.w3.org/Graphics/SVG/1.1/DTD/svg11.dtd">
<svg version="1.1" id="Layer_1" xmlns="http://www.w3.org/2000/svg" xmlns:xlink="http://www.w3.org/1999/xlink" x="0px" y="0px"
	 width="399.5px" height="822px" viewBox="0 0 399.5 822" enable-background="new 0 0 399.5 822" xml:space="preserve">
<g>
	<g>
		<path fill="#37B39C" d="M311.054,106.113c-0.146-0.441-0.559-0.738-1.021-0.738h-30.854l-6.082-33.65
			c0.791-0.998,1.27-2.258,1.27-3.629c0-3.225-2.625-5.848-5.85-5.848c-1.836,0-3.475,0.852-4.547,2.178l-16.563,1.982
			c0.131-0.129,0.262-0.266,0.381-0.414c1.656-2.049,1.262-5.014,1.244-5.139c-0.061-0.422-0.439-0.723-0.857-0.693
			c-0.127,0.01-3.109,0.246-4.764,2.293c-0.26,0.32-0.463,0.664-0.631,1.016c-0.168-0.352-0.373-0.695-0.631-1.016
			c-1.654-2.047-4.637-2.283-4.764-2.293c-0.424-0.029-0.799,0.273-0.857,0.693c-0.018,0.125-0.412,3.09,1.242,5.139
			c1.102,1.361,2.785,1.92,3.83,2.146c0.006,0.102,0.027,0.201,0.061,0.295l-8.09,31.389c-0.01,0.041-0.117,0.605-0.211,1.098
			c-0.066,0.348-0.125,0.658-0.137,0.709c-0.01,0.041-0.018,0.082-0.021,0.125c-0.111,0.592-0.17,1.193-0.17,1.789
			c0,5.252,4.273,9.527,9.527,9.527s9.527-4.275,9.527-9.527c0-0.98-0.143-2.477-0.439-3.387l-7.805-30.893l19.799,2.055
			c0.861,1.297,2.225,2.23,3.811,2.523l0.404,32.703c0,0.057,0.014,0.115,0.023,0.172c0.02,1.74,0.398,9.568,5.488,14.775
			c2.428,2.482,5.543,3.973,9.287,4.449v43.467h2.154v-43.309c0.193,0.004,0.387,0.012,0.584,0.012c0.357,0,0.703-0.012,1.047-0.025
			v43.322h2.154v-43.508c10.982-1.463,14.473-10.318,15.729-13.764c0.826-0.664,4.221-3.225,6.355-4.824
			C311.05,107.037,311.202,106.553,311.054,106.113z M302.394,111.143c-1.996,5.502-5.93,12.816-17,12.816
			c-4.377,0-7.9-1.334-10.475-3.961c-4.635-4.73-4.877-12.275-4.885-13.42l0.025,0.004l-0.025-0.1c0-0.029,0-0.053,0-0.057
			c0.002-0.088-0.01-0.172-0.027-0.254l-0.4-32.332c0.559-0.105,1.092-0.293,1.584-0.547l5.801,32.082h-2.768
			c-0.297,0-0.582,0.125-0.785,0.342s-0.309,0.508-0.289,0.805c0.293,4.521,3.176,13.07,12,13.07c8.469,0,11.52-8.416,11.549-8.5
			c0.197-0.561-0.098-1.176-0.66-1.373c-0.561-0.197-1.174,0.098-1.373,0.66c-0.023,0.07-2.557,7.061-9.516,7.061
			c-7.35,0-9.244-7.068-9.709-9.91h31.361C302.544,110.729,302.519,110.797,302.394,111.143z M250.472,103.545
			c0,4.361-3.549,7.912-7.912,7.912s-7.912-3.551-7.912-7.912c0-0.518,0.053-1.041,0.156-1.557c0.004-0.02,0.006-0.039,0.008-0.059
			c0.018-0.098,0.074-0.387,0.135-0.707c0.086-0.453,0.186-0.971,0.193-1.016l7.502-29.104l7.455,29.502
			C250.341,101.357,250.472,102.68,250.472,103.545z M240.892,63.471c0.762,0.941,0.922,2.23,0.938,3.066
			c-0.813-0.189-2.041-0.617-2.801-1.559s-0.922-2.229-0.936-3.063C238.905,62.105,240.138,62.537,240.892,63.471z M247.468,61.914
			c-0.014,0.834-0.176,2.123-0.936,3.064c-0.762,0.939-1.986,1.369-2.799,1.557c0.016-0.836,0.178-2.129,0.934-3.064
			C245.429,62.529,246.655,62.102,247.468,61.914z M268.517,71.791c-2.039,0-3.695-1.658-3.695-3.695s1.656-3.693,3.695-3.693
			c2.037,0,3.695,1.656,3.695,3.693S270.554,71.791,268.517,71.791z"/>
		<circle fill="#37B39C" cx="268.073" cy="67.783" r="1.068"/>
	</g>
	<g>
		<path fill="#1D1D1B" d="M118.795,120.305c0.371,0,0.449,0.264,0.232,0.789c-0.201,0.541-0.473,0.811-0.813,0.811
			c-0.635,0-1.482,0.016-2.549,0.047c-1.268,0.047-2.117,0.076-2.549,0.092c0.014,4.668,0.254,15.035,0.717,31.105
			c0.016,0.355-0.184,0.68-0.602,0.973c-0.416,0.293-0.633,0.201-0.648-0.277c-0.465-16.348-0.703-26.91-0.719-31.684
			c0-0.016,0.006-0.047,0.023-0.094c-2.18,0.109-3.439-0.076-3.779-0.557c-0.201-0.277-0.123-0.641,0.232-1.09
			c0.34-0.447,0.617-0.516,0.834-0.207c0.201,0.277,0.927,0.402,2.18,0.371c0.372,0,0.834-0.023,1.389-0.07
			c0.559-0.031,0.875-0.055,0.951-0.07c0.434,0,1.282-0.023,2.549-0.068C117.312,120.344,118.162,120.32,118.795,120.305z"/>
		<path fill="#1D1D1B" d="M130.478,139.982c0.185,5.084-0.581,8.877-2.296,11.381c-0.74,1.066-1.537,1.908-2.387,2.527
			c-1.252,0.91-2.295,1.004-3.131,0.277c-1.219-1.066-2.086-3.338-2.594-6.814c-1.563-10.521-1.391-19.09,0.508-25.703
			c0.078-0.232,0.209-0.418,0.396-0.557v-0.023c2.332-2.039,4.334-1.639,6.003,1.205c1.019,1.746,1.845,4.258,2.478,7.533
			c0.559,2.936,0.836,4.402,0.836,4.402S130.353,136.135,130.478,139.982z M127.857,149.811c1.236-2.488,1.615-6.436,1.137-11.844
			c-0.326-3.6-0.596-5.957-0.813-7.07c-1.576-7.941-3.754-10.877-6.537-8.807c-1.451,5.301-1.645,12.662-0.578,22.088
			c0.402,3.615,0.965,6.049,1.691,7.301c0.711,1.252,1.623,1.592,2.736,1.02C126.42,152.02,127.209,151.123,127.857,149.811z"/>
		<path fill="#1D1D1B" d="M155.717,143.623c0.154,3.027-0.578,5.516-2.201,7.463c-1.762,2.117-4.119,2.943-7.07,2.479
			c-0.045-0.014-0.093-0.029-0.139-0.045c-0.355-0.125-0.579-0.789-0.672-1.994c-0.031-0.371-0.055-0.818-0.07-1.344
			c0-0.557,0-0.85,0-0.881c-0.17-2.719-0.285-6.172-0.348-10.361c-0.014-0.85-0.045-1.992-0.092-3.43
			c-0.078-0.107-0.078-0.277,0-0.51c-0.186-6.119-0.078-10.654,0.324-13.605c0.031-0.232,0.131-0.447,0.301-0.648
			c0.186-0.201,0.387-0.303,0.603-0.303c1.978-0.061,3.569,0.363,4.776,1.275c1.39,1.035,1.938,2.512,1.645,4.428
			c-0.432,2.844-2.016,5.424-4.752,7.74c2.07-0.045,3.623,0.473,4.66,1.553C154.504,137.355,155.516,140.084,155.717,143.623z
			 M151.568,125.822c-0.154-2.396-1.824-3.654-5.006-3.779c-0.294,2.643-0.363,6.521-0.21,11.635
			C150,131.16,151.738,128.541,151.568,125.822z M147.164,151.967c3.092,0.447,5.23-0.564,6.42-3.037
			c1.035-2.193,1.113-4.781,0.232-7.764c-0.742-2.535-1.66-4.143-2.758-4.822c-1.158-0.711-2.705-0.98-4.635-0.811
			c0.014,0.85,0.029,1.584,0.045,2.201c0.063,4.08,0.162,7.34,0.301,9.781C146.926,150.391,147.057,151.873,147.164,151.967z"/>
		<path fill="#1D1D1B" d="M166.658,151.502c0.432-0.076,0.578,0.148,0.439,0.672c-0.139,0.541-0.387,0.852-0.742,0.928
			c-2.982,0.557-5.4,0.711-7.253,0.463c-0.218-0.029-0.333-0.184-0.349-0.463c-0.324-11.744-0.256-22.281,0.209-31.615
			c0.015-0.277,0.1-0.533,0.254-0.764c0.186-0.248,0.41-0.379,0.672-0.395c0.756-0.061,2.891-0.061,6.398,0
			c0.371,0.016,0.447,0.287,0.231,0.811c-0.202,0.541-0.479,0.813-0.835,0.813c-3.105-0.047-4.938-0.063-5.492-0.047
			c-0.109,2.52-0.162,6.365-0.162,11.543c0.045,0,1.652-0.094,4.82-0.279c0.371-0.029,0.447,0.225,0.23,0.766
			c-0.199,0.541-0.478,0.818-0.834,0.834c-0.217,0.016-0.918,0.086-2.109,0.209c-0.865,0.094-1.568,0.131-2.107,0.115
			c0,1.236-0.01,2.234-0.023,2.99c-0.047,5.254-0.063,8.523-0.047,9.805c0,0.047-0.016,0.371-0.047,0.973
			c-0.031,0.557-0.039,1.02-0.023,1.391c0.031,1.191,0.287,1.801,0.766,1.832C162.168,152.174,164.17,151.982,166.658,151.502z"/>
		<path fill="#1D1D1B" d="M182.326,120.283c2.672,0.045,4.635,1.08,5.887,3.105c1.096,1.775,1.537,4.086,1.32,6.93
			c-0.17,2.41-0.748,4.42-1.738,6.025c-1.158,1.871-2.781,2.982-4.867,3.338c0.107,5.578,0.17,10.021,0.186,13.328
			c0,0.355-0.201,0.68-0.602,0.973c-0.418,0.293-0.627,0.201-0.627-0.277c-0.016-3.463-0.1-8.846-0.254-16.156
			c-0.141-7.061-0.219-12.438-0.232-16.131c0-0.264,0.084-0.518,0.254-0.766C181.838,120.391,182.063,120.268,182.326,120.283z
			 M182.904,138.199c2.318-0.232,3.924-1.578,4.823-4.033c0.739-2.055,0.87-4.328,0.392-6.814c-0.633-3.275-2.457-5.084-5.469-5.424
			C182.664,125.496,182.75,130.92,182.904,138.199z"/>
		<path fill="#1D1D1B" d="M200.543,152.197c0.063,0.34-0.102,0.695-0.486,1.066c-0.402,0.387-0.643,0.379-0.719-0.023
			c-0.324-1.637-0.742-3.715-1.252-6.234c-0.742-3.6-1.166-5.678-1.274-6.234c-0.587,0.016-1.384,0.055-2.388,0.115
			c-1.189,0.063-1.992,0.094-2.41,0.094c-0.434,5.021-0.834,8.939-1.205,11.75c-0.063,0.402-0.293,0.68-0.695,0.834
			c-0.418,0.17-0.588-0.008-0.511-0.531c0.155-1.145,0.55-5.248,1.183-12.309c-0.016-0.092-0.008-0.201,0.023-0.324
			c0.154-1.623,0.309-3.059,0.463-4.311c0.402-3.246,1.122-8.137,2.156-14.672c0.031-0.248,0.225-0.51,0.578-0.787
			c0.373-0.295,0.58-0.256,0.627,0.115c0.68,4.836,1.777,11.018,3.291,18.541c0.078,0.094,0.1,0.217,0.07,0.371
			c0.139,0.648,0.563,2.744,1.274,6.281C199.793,148.488,200.219,150.576,200.543,152.197z M192.152,139.426
			c0.541-0.014,1.268-0.045,2.178-0.092c1.113-0.061,1.84-0.1,2.18-0.115c-1.098-5.439-1.947-10.09-2.549-13.953
			c-0.834,5.098-1.377,9.039-1.623,11.82C192.291,137.611,192.23,138.393,192.152,139.426z"/>
		<path fill="#1D1D1B" d="M213.36,153.24c0.434-0.047,0.58,0.193,0.441,0.719c-0.139,0.541-0.387,0.826-0.742,0.857
			c-1.607,0.186-2.58-0.703-2.92-2.666c-0.123-0.787-0.139-2.988-0.047-6.605c0.094-3.059-0.154-5.26-0.742-6.605
			c-0.834-1.977-2.494-2.889-4.982-2.734c0.123,8.344,0.186,13.721,0.186,16.131v0.047v0.695c0,0.371-0.209,0.703-0.625,0.998
			c-0.434,0.293-0.65,0.199-0.65-0.279c0-2.656-0.061-8.051-0.184-16.178c-0.094-6.736-0.109-12.129-0.047-16.178
			c0-0.264,0.084-0.518,0.254-0.766c0.201-0.293,0.426-0.424,0.672-0.393c1.932,0.215,3.354,0.957,4.266,2.225
			c0.85,1.189,1.221,2.781,1.111,4.773c-0.123,2.164-0.51,3.803-1.158,4.914c-0.34,0.588-1.127,1.398-2.363,2.434
			c3.615,0.264,5.484,2.867,5.607,7.811c0,0.201-0.061,1.053-0.184,2.551c-0.109,1.514-0.156,2.75-0.141,3.707
			c0.063,3.184,0.092,4.775,0.092,4.775S211.925,153.395,213.36,153.24z M208.101,127.305c-0.078-2.936-1.344-4.689-3.801-5.262
			c-0.031,3.508-0.016,7.643,0.045,12.4c0.277-0.277,0.641-0.617,1.09-1.02c0.633-0.557,1.004-0.889,1.113-0.996
			C207.644,131.424,208.161,129.715,208.101,127.305z"/>
		<path fill="#1D1D1B" d="M224.718,151.502c0.432-0.076,0.58,0.148,0.441,0.672c-0.141,0.541-0.389,0.852-0.744,0.928
			c-2.98,0.557-5.398,0.711-7.254,0.463c-0.215-0.029-0.332-0.184-0.348-0.463c-0.324-11.744-0.254-22.281,0.209-31.615
			c0.016-0.277,0.1-0.533,0.256-0.764c0.186-0.248,0.408-0.379,0.672-0.395c0.756-0.061,2.889-0.061,6.396,0
			c0.371,0.016,0.449,0.287,0.232,0.811c-0.201,0.541-0.48,0.813-0.834,0.813c-3.107-0.047-4.938-0.063-5.494-0.047
			c-0.107,2.52-0.162,6.365-0.162,11.543c0.047,0,1.652-0.094,4.82-0.279c0.371-0.029,0.449,0.225,0.232,0.766
			c-0.201,0.541-0.479,0.818-0.834,0.834c-0.217,0.016-0.92,0.086-2.109,0.209c-0.867,0.094-1.568,0.131-2.109,0.115
			c0,1.236-0.01,2.234-0.023,2.99c-0.047,5.254-0.061,8.523-0.047,9.805c0,0.047-0.014,0.371-0.045,0.973
			c-0.031,0.557-0.039,1.02-0.023,1.391c0.031,1.191,0.285,1.801,0.766,1.832C220.228,152.174,222.229,151.982,224.718,151.502z"/>
		<path fill="#1D1D1B" d="M238.462,120.096c0.295,8.84,0.766,19.787,1.414,32.844c0.016,0.293-0.162,0.611-0.533,0.951
			c-0.371,0.354-0.609,0.332-0.719-0.07c-1.02-3.693-2.557-8.391-4.611-14.092c-2.75-7.664-4.404-12.338-4.961-14.023
			c0.217,10.678,0.557,19.756,1.021,27.234c0.014,0.371-0.186,0.703-0.604,0.996s-0.641,0.201-0.672-0.277
			c-0.51-8.359-0.883-19.152-1.113-32.379c0-0.295,0.178-0.611,0.533-0.951c0.355-0.355,0.596-0.332,0.719,0.07
			c0.988,3.307,2.533,7.85,4.637,13.629c2.301,6.365,3.877,10.893,4.729,13.582c-0.496-10.293-0.859-19.23-1.09-26.818
			c-0.016-0.371,0.184-0.703,0.602-0.996S238.446,119.602,238.462,120.096z"/>
		<path fill="#1D1D1B" d="M253.204,120.305c0.369,0,0.447,0.264,0.23,0.789c-0.201,0.541-0.471,0.811-0.813,0.811
			c-0.633,0-1.48,0.016-2.547,0.047c-1.268,0.047-2.119,0.076-2.551,0.092c0.014,4.668,0.256,15.035,0.719,31.105
			c0.016,0.355-0.186,0.68-0.602,0.973c-0.418,0.293-0.635,0.201-0.65-0.277c-0.463-16.348-0.703-26.91-0.719-31.684
			c0-0.016,0.008-0.047,0.023-0.094c-2.178,0.109-3.438-0.076-3.777-0.557c-0.201-0.277-0.125-0.641,0.232-1.09
			c0.34-0.447,0.617-0.516,0.834-0.207c0.201,0.277,0.928,0.402,2.178,0.371c0.371,0,0.836-0.023,1.391-0.07
			c0.557-0.031,0.873-0.055,0.951-0.07c0.432,0,1.283-0.023,2.549-0.068C251.72,120.344,252.569,120.32,253.204,120.305z"/>
		<path fill="#1D1D1B" d="M264.907,121.115c0.279,0.217,0.271,0.572-0.021,1.066c-0.295,0.496-0.58,0.635-0.857,0.418
			c-2.396-1.777-4.135-1.885-5.217-0.324c-0.555,0.787-0.912,1.73-1.066,2.828c-0.154,1.066-0.1,2.07,0.164,3.014
			c0.633,2.146,2.039,4.303,4.217,6.465c2.102,2.086,3.57,3.855,4.404,5.309c1.252,2.164,1.699,4.389,1.344,6.676
			c-0.295,1.807-0.857,3.461-1.691,4.959c-1.145,2.055-2.496,2.943-4.057,2.666c-1.451-0.279-2.217-1.166-2.295-2.666
			c-0.045-1.236,0.311-2.494,1.066-3.777c0.264-0.449,0.549-0.588,0.857-0.418c0.295,0.17,0.311,0.486,0.047,0.951
			c-0.957,1.592-1.074,2.797-0.348,3.615c0.34,0.371,0.727,0.602,1.16,0.695c0.479,0.092,0.918,0.008,1.32-0.256
			c1.189-0.756,2.016-2.055,2.479-3.893c0.434-1.684,0.457-3.26,0.07-4.729c-0.494-1.869-1.668-3.793-3.521-5.771
			c-2.566-2.719-4.072-4.426-4.52-5.123c-1.021-1.576-1.662-3.205-1.924-4.889c-0.295-1.902-0.033-3.617,0.787-5.146
			c0.865-1.639,1.971-2.604,3.314-2.896C261.979,119.596,263.409,120.004,264.907,121.115z"/>
	</g>
	<g>
		<path fill="#989899" d="M134.619,96.783h-0.836v-5.924h-3.848v5.924H129.1v-6.43h5.52V96.783z"/>
		<path fill="#989899" d="M140.939,94.496c0,0.318-0.057,0.623-0.166,0.914c-0.111,0.291-0.268,0.547-0.473,0.768
			s-0.453,0.395-0.744,0.523s-0.617,0.193-0.979,0.193c-0.367,0-0.699-0.066-0.998-0.199c-0.295-0.131-0.547-0.307-0.752-0.527
			s-0.365-0.477-0.476-0.768c-0.116-0.291-0.173-0.592-0.173-0.904c0-0.318,0.057-0.623,0.173-0.914
			c0.11-0.291,0.271-0.547,0.476-0.766c0.205-0.221,0.457-0.396,0.752-0.529c0.299-0.131,0.631-0.197,0.998-0.197
			c0.361,0,0.688,0.066,0.979,0.197c0.291,0.133,0.539,0.309,0.744,0.529c0.205,0.219,0.361,0.475,0.473,0.766
			C140.883,93.873,140.939,94.178,140.939,94.496z M140.066,94.496c0-0.428-0.047-0.775-0.139-1.043
			c-0.092-0.266-0.211-0.473-0.357-0.619s-0.311-0.246-0.488-0.299s-0.348-0.078-0.514-0.078s-0.336,0.025-0.514,0.078
			s-0.342,0.152-0.492,0.299s-0.271,0.354-0.367,0.619c-0.093,0.268-0.143,0.615-0.143,1.043c0,0.422,0.05,0.768,0.143,1.033
			c0.096,0.266,0.217,0.473,0.367,0.619c0.15,0.148,0.314,0.248,0.492,0.299c0.178,0.053,0.348,0.078,0.514,0.078
			s0.336-0.025,0.514-0.078c0.178-0.051,0.342-0.15,0.488-0.299c0.146-0.146,0.266-0.354,0.357-0.619S140.066,94.918,140.066,94.496
			z"/>
		<path fill="#989899" d="M146.816,96.416v1.332h-0.643v-0.965h-4.041v0.965h-0.645v-1.332h0.662l1.719-4.225h0.551l1.764,4.225
			H146.816z M142.582,96.416h2.775l-1.369-3.316h-0.055L142.582,96.416z"/>
		<path fill="#989899" d="M148.424,92.559v4.225h-0.78v-4.592h3.013v0.367H148.424z"/>
		<path fill="#989899" d="M155.965,94.496c0,0.318-0.055,0.623-0.166,0.914c-0.109,0.291-0.268,0.547-0.473,0.768
			s-0.453,0.395-0.744,0.523s-0.617,0.193-0.979,0.193c-0.367,0-0.699-0.066-0.996-0.199c-0.296-0.131-0.546-0.307-0.752-0.527
			c-0.207-0.221-0.365-0.477-0.479-0.768s-0.172-0.592-0.172-0.904c0-0.318,0.059-0.623,0.172-0.914s0.271-0.547,0.479-0.766
			c0.206-0.221,0.456-0.396,0.752-0.529c0.297-0.131,0.629-0.197,0.996-0.197c0.361,0,0.688,0.066,0.979,0.197
			c0.291,0.133,0.539,0.309,0.744,0.529c0.205,0.219,0.363,0.475,0.473,0.766C155.91,93.873,155.965,94.178,155.965,94.496z
			 M155.092,94.496c0-0.428-0.045-0.775-0.139-1.043c-0.09-0.266-0.209-0.473-0.357-0.619c-0.146-0.146-0.309-0.246-0.486-0.299
			s-0.35-0.078-0.514-0.078c-0.166,0-0.338,0.025-0.516,0.078s-0.342,0.152-0.49,0.299c-0.15,0.146-0.273,0.354-0.367,0.619
			c-0.096,0.268-0.145,0.615-0.145,1.043c0,0.422,0.049,0.768,0.145,1.033c0.094,0.266,0.217,0.473,0.367,0.619
			c0.148,0.148,0.313,0.248,0.49,0.299c0.178,0.053,0.35,0.078,0.516,0.078c0.164,0,0.336-0.025,0.514-0.078
			c0.178-0.051,0.34-0.15,0.486-0.299c0.148-0.146,0.268-0.354,0.357-0.619C155.047,95.264,155.092,94.918,155.092,94.496z"/>
		<path fill="#989899" d="M158.445,92.559h-1.838v-0.367h4.455v0.367h-1.838v4.225h-0.779V92.559z"/>
		<path fill="#989899" d="M166.463,94.496c0,0.318-0.055,0.623-0.166,0.914s-0.268,0.547-0.473,0.768s-0.453,0.395-0.744,0.523
			s-0.617,0.193-0.978,0.193c-0.368,0-0.7-0.066-0.997-0.199c-0.297-0.131-0.547-0.307-0.753-0.527
			c-0.204-0.221-0.364-0.477-0.478-0.768s-0.17-0.592-0.17-0.904c0-0.318,0.057-0.623,0.17-0.914s0.273-0.547,0.478-0.766
			c0.206-0.221,0.456-0.396,0.753-0.529c0.297-0.131,0.629-0.197,0.997-0.197c0.36,0,0.687,0.066,0.978,0.197
			c0.291,0.133,0.539,0.309,0.744,0.529c0.205,0.219,0.361,0.475,0.473,0.766S166.463,94.178,166.463,94.496z M165.59,94.496
			c0-0.428-0.045-0.775-0.137-1.043c-0.092-0.266-0.211-0.473-0.359-0.619c-0.146-0.146-0.309-0.246-0.486-0.299
			s-0.35-0.078-0.514-0.078c-0.166,0-0.338,0.025-0.516,0.078s-0.342,0.152-0.49,0.299c-0.15,0.146-0.273,0.354-0.367,0.619
			c-0.096,0.268-0.143,0.615-0.143,1.043c0,0.422,0.047,0.768,0.143,1.033c0.094,0.266,0.217,0.473,0.367,0.619
			c0.148,0.148,0.313,0.248,0.49,0.299c0.178,0.053,0.35,0.078,0.516,0.078c0.164,0,0.336-0.025,0.514-0.078
			c0.178-0.051,0.34-0.15,0.486-0.299c0.148-0.146,0.268-0.354,0.359-0.619S165.59,94.918,165.59,94.496z"/>
		<path fill="#989899" d="M169.58,92.191c0.332,0,0.598,0.039,0.799,0.119c0.199,0.08,0.352,0.176,0.455,0.289
			c0.105,0.113,0.172,0.23,0.203,0.354s0.045,0.227,0.045,0.313c0,0.152-0.027,0.289-0.088,0.408
			c-0.059,0.119-0.133,0.225-0.229,0.313c-0.094,0.09-0.203,0.16-0.326,0.211c-0.121,0.053-0.244,0.09-0.367,0.115v0.064
			c0.129,0.006,0.271,0.027,0.428,0.064s0.303,0.1,0.439,0.188c0.137,0.09,0.25,0.211,0.34,0.363s0.133,0.346,0.133,0.578
			c0,0.154-0.029,0.303-0.092,0.445c-0.061,0.145-0.158,0.273-0.293,0.387c-0.134,0.113-0.309,0.205-0.523,0.275
			s-0.471,0.105-0.771,0.105h-2.076v-4.592H169.58z M169.236,94.275c0.141,0,0.275-0.02,0.404-0.059
			c0.129-0.041,0.242-0.098,0.34-0.176c0.098-0.076,0.176-0.168,0.234-0.275s0.088-0.23,0.088-0.371
			c0-0.074-0.012-0.158-0.033-0.254c-0.021-0.094-0.066-0.184-0.133-0.27c-0.068-0.086-0.164-0.16-0.289-0.221
			s-0.293-0.092-0.5-0.092h-0.91v1.717H169.236z M169.396,96.416c0.063,0,0.158-0.004,0.289-0.014
			c0.135-0.01,0.266-0.041,0.398-0.098c0.133-0.055,0.246-0.141,0.346-0.26c0.1-0.121,0.148-0.291,0.148-0.512
			c0-0.225-0.051-0.404-0.152-0.531c-0.102-0.129-0.223-0.225-0.364-0.285s-0.288-0.098-0.438-0.109
			c-0.15-0.014-0.275-0.02-0.373-0.02h-0.813v1.828H169.396z"/>
		<path fill="#989899" d="M175.664,92.191h0.58l-1.863,1.947l1.203,1.57c0.061,0.08,0.129,0.16,0.205,0.242
			c0.078,0.084,0.156,0.16,0.24,0.23c0.082,0.07,0.164,0.127,0.242,0.17c0.081,0.043,0.156,0.064,0.23,0.064h0.256v0.367
			c-0.078,0.025-0.17,0.049-0.273,0.074c-0.105,0.023-0.213,0.037-0.322,0.037c-0.123,0-0.238-0.021-0.344-0.064
			c-0.107-0.043-0.207-0.102-0.299-0.176c-0.092-0.072-0.178-0.156-0.258-0.248s-0.156-0.184-0.23-0.275l-1.138-1.496l-0.505,0.531
			v1.617h-0.781v-4.592h0.781v2.369L175.664,92.191z"/>
		<path fill="#989899" d="M179.365,92.09c0.447,0,0.795,0.063,1.039,0.188c0.246,0.127,0.424,0.291,0.539,0.492
			c0.113,0.201,0.178,0.436,0.197,0.697c0.018,0.264,0.027,0.533,0.027,0.809v2.508h-0.744v-0.449
			c-0.18,0.17-0.404,0.307-0.68,0.408s-0.551,0.152-0.826,0.152c-0.264,0-0.496-0.047-0.699-0.139
			c-0.2-0.092-0.371-0.211-0.504-0.357c-0.137-0.148-0.237-0.313-0.303-0.496c-0.068-0.184-0.101-0.371-0.101-0.561
			c0-0.197,0.036-0.393,0.108-0.588c0.074-0.197,0.184-0.373,0.33-0.529c0.148-0.156,0.328-0.283,0.543-0.381
			s0.459-0.146,0.734-0.146s0.537,0.053,0.785,0.16c0.249,0.107,0.451,0.26,0.611,0.455v-0.395c0-0.502-0.076-0.877-0.227-1.121
			s-0.426-0.367-0.826-0.367c-0.17,0-0.32,0.021-0.451,0.064c-0.129,0.043-0.244,0.102-0.346,0.18
			c-0.1,0.076-0.195,0.17-0.281,0.283s-0.172,0.24-0.258,0.383l-0.471-0.479c0.086-0.092,0.176-0.184,0.271-0.275
			c0.094-0.092,0.211-0.174,0.348-0.248c0.139-0.074,0.303-0.133,0.492-0.18C178.867,92.113,179.096,92.09,179.365,92.09z
			 M180.424,94.965c-0.03-0.074-0.076-0.158-0.135-0.258c-0.057-0.098-0.133-0.193-0.225-0.285s-0.203-0.168-0.332-0.232
			c-0.13-0.064-0.283-0.098-0.463-0.098c-0.176,0-0.34,0.035-0.488,0.105c-0.146,0.07-0.271,0.162-0.373,0.275
			s-0.18,0.248-0.234,0.4s-0.084,0.313-0.084,0.477c0,0.197,0.037,0.367,0.107,0.51c0.071,0.145,0.16,0.268,0.271,0.369
			c0.109,0.1,0.234,0.176,0.369,0.225s0.265,0.072,0.387,0.072c0.117,0,0.234-0.021,0.354-0.064
			c0.121-0.041,0.236-0.102,0.344-0.178s0.203-0.168,0.289-0.271s0.158-0.217,0.213-0.34V94.965z"/>
		<path fill="#989899" d="M188.91,92.191h0.578l-1.863,1.947l1.203,1.57c0.061,0.08,0.129,0.16,0.207,0.242
			c0.076,0.084,0.154,0.16,0.238,0.23c0.082,0.07,0.162,0.127,0.245,0.17c0.077,0.043,0.153,0.064,0.228,0.064h0.258v0.367
			c-0.08,0.025-0.174,0.049-0.276,0.074c-0.104,0.023-0.209,0.037-0.321,0.037c-0.123,0-0.238-0.021-0.344-0.064
			c-0.109-0.043-0.207-0.102-0.299-0.176c-0.092-0.072-0.178-0.156-0.258-0.248c-0.078-0.092-0.156-0.184-0.229-0.275l-1.139-1.496
			l-0.506,0.531v1.617h-0.78v-4.592h0.78v2.369L188.91,92.191z"/>
		<path fill="#989899" d="M194.137,92.191h0.781v0.744h0.035c0.227-0.564,0.705-0.846,1.434-0.846c0.307,0,0.588,0.057,0.846,0.17
			c0.256,0.113,0.479,0.275,0.666,0.486c0.186,0.211,0.332,0.465,0.436,0.758c0.104,0.295,0.156,0.625,0.156,0.992
			c0,0.361-0.053,0.691-0.156,0.988s-0.25,0.549-0.436,0.758c-0.188,0.207-0.41,0.367-0.666,0.48
			c-0.258,0.113-0.539,0.172-0.846,0.172c-0.146,0-0.293-0.016-0.436-0.047c-0.145-0.031-0.281-0.08-0.41-0.146
			c-0.129-0.068-0.242-0.156-0.344-0.268c-0.102-0.109-0.182-0.244-0.244-0.404h-0.035v3.051h-0.781V92.191z M194.918,94.826
			c0,0.252,0.035,0.475,0.105,0.672c0.07,0.195,0.162,0.361,0.279,0.5s0.252,0.242,0.402,0.313c0.154,0.07,0.316,0.105,0.488,0.105
			c0.189,0,0.371-0.035,0.543-0.105c0.17-0.07,0.322-0.184,0.453-0.34c0.133-0.156,0.236-0.357,0.313-0.602
			c0.076-0.246,0.115-0.543,0.115-0.891c0-0.344-0.039-0.637-0.115-0.883c-0.076-0.244-0.18-0.443-0.307-0.596
			c-0.129-0.154-0.281-0.266-0.455-0.336s-0.357-0.105-0.547-0.105c-0.178,0-0.344,0.037-0.5,0.115
			c-0.156,0.076-0.293,0.18-0.408,0.311c-0.117,0.133-0.207,0.289-0.271,0.469c-0.064,0.182-0.096,0.373-0.096,0.574V94.826z"/>
		<path fill="#989899" d="M204.167,94.496c0,0.318-0.055,0.623-0.166,0.914c-0.109,0.291-0.268,0.547-0.473,0.768
			s-0.453,0.395-0.744,0.523s-0.617,0.193-0.979,0.193c-0.367,0-0.699-0.066-0.996-0.199c-0.298-0.131-0.548-0.307-0.753-0.527
			c-0.204-0.221-0.365-0.477-0.479-0.768s-0.17-0.592-0.17-0.904c0-0.318,0.057-0.623,0.17-0.914s0.274-0.547,0.479-0.766
			c0.205-0.221,0.455-0.396,0.753-0.529c0.297-0.131,0.629-0.197,0.996-0.197c0.361,0,0.688,0.066,0.979,0.197
			c0.291,0.133,0.539,0.309,0.744,0.529c0.205,0.219,0.363,0.475,0.473,0.766C204.112,93.873,204.167,94.178,204.167,94.496z
			 M203.294,94.496c0-0.428-0.047-0.775-0.137-1.043c-0.092-0.266-0.211-0.473-0.359-0.619c-0.146-0.146-0.309-0.246-0.486-0.299
			s-0.35-0.078-0.514-0.078c-0.166,0-0.338,0.025-0.516,0.078s-0.34,0.152-0.49,0.299c-0.151,0.146-0.273,0.354-0.368,0.619
			c-0.096,0.268-0.143,0.615-0.143,1.043c0,0.422,0.047,0.768,0.143,1.033c0.095,0.266,0.217,0.473,0.368,0.619
			c0.15,0.148,0.313,0.248,0.49,0.299c0.178,0.053,0.35,0.078,0.516,0.078c0.164,0,0.336-0.025,0.514-0.078
			c0.178-0.051,0.34-0.15,0.486-0.299c0.148-0.146,0.268-0.354,0.359-0.619C203.247,95.264,203.294,94.918,203.294,94.496z"/>
		<path fill="#989899" d="M210.046,96.416v1.332h-0.645v-0.965h-4.041v0.965h-0.643v-1.332h0.662l1.717-4.225h0.551l1.764,4.225
			H210.046z M205.812,96.416h2.773l-1.369-3.316h-0.055L205.812,96.416z"/>
		<path fill="#989899" d="M212.56,92.09c0.447,0,0.793,0.063,1.039,0.188c0.246,0.127,0.424,0.291,0.537,0.492
			s0.18,0.436,0.199,0.697c0.018,0.264,0.027,0.533,0.027,0.809v2.508h-0.744v-0.449c-0.178,0.17-0.404,0.307-0.682,0.408
			c-0.273,0.102-0.549,0.152-0.824,0.152c-0.264,0-0.496-0.047-0.699-0.139c-0.201-0.092-0.369-0.211-0.504-0.357
			c-0.135-0.148-0.236-0.313-0.305-0.496c-0.066-0.184-0.1-0.371-0.1-0.561c0-0.197,0.037-0.393,0.109-0.588
			c0.072-0.197,0.184-0.373,0.33-0.529c0.148-0.156,0.328-0.283,0.543-0.381s0.459-0.146,0.734-0.146s0.537,0.053,0.785,0.16
			s0.451,0.26,0.611,0.455v-0.395c0-0.502-0.076-0.877-0.227-1.121s-0.426-0.367-0.824-0.367c-0.172,0-0.322,0.021-0.453,0.064
			c-0.129,0.043-0.244,0.102-0.346,0.18c-0.102,0.076-0.195,0.17-0.281,0.283s-0.172,0.24-0.258,0.383l-0.471-0.479
			c0.086-0.092,0.176-0.184,0.271-0.275c0.094-0.092,0.211-0.174,0.348-0.248c0.139-0.074,0.303-0.133,0.492-0.18
			C212.062,92.113,212.29,92.09,212.56,92.09z M213.618,94.965c-0.031-0.074-0.076-0.158-0.135-0.258
			c-0.059-0.098-0.133-0.193-0.225-0.285c-0.094-0.092-0.203-0.168-0.332-0.232s-0.283-0.098-0.461-0.098
			c-0.18,0-0.342,0.035-0.49,0.105c-0.146,0.07-0.271,0.162-0.373,0.275s-0.18,0.248-0.234,0.4s-0.084,0.313-0.084,0.477
			c0,0.197,0.035,0.367,0.107,0.51c0.07,0.145,0.16,0.268,0.271,0.369c0.111,0.1,0.232,0.176,0.369,0.225
			c0.135,0.049,0.264,0.072,0.387,0.072c0.117,0,0.234-0.021,0.355-0.064c0.119-0.041,0.232-0.102,0.34-0.178
			s0.205-0.168,0.291-0.271s0.156-0.217,0.213-0.34V94.965z"/>
		<path fill="#989899" d="M218.257,95.699h0.045l1.598-3.508h0.709v4.592h-0.781v-3.629h-0.039l-1.697,3.74h-0.094l-1.816-3.74
			h-0.037v3.629h-0.313v-4.592h0.727L218.257,95.699z"/>
		<path fill="#989899" d="M91.121,105.912l-0.809,1.893h-0.422l2.719-6.43h0.459l2.994,6.43h-0.891l-0.883-1.893H91.121z
			 M92.654,102.404h-0.037l-1.322,3.096h2.801L92.654,102.404z"/>
		<path fill="#989899" d="M100.131,103.213h0.578l-1.863,1.947l1.203,1.57c0.061,0.08,0.129,0.16,0.207,0.244
			c0.074,0.082,0.156,0.158,0.238,0.229s0.164,0.127,0.242,0.17c0.08,0.043,0.157,0.064,0.23,0.064h0.258v0.367
			c-0.08,0.025-0.172,0.049-0.275,0.074c-0.105,0.023-0.213,0.037-0.322,0.037c-0.123,0-0.236-0.021-0.344-0.064
			s-0.207-0.102-0.299-0.174c-0.091-0.074-0.178-0.156-0.257-0.25c-0.081-0.092-0.157-0.184-0.231-0.275l-1.139-1.496l-0.505,0.533
			v1.615h-0.78v-4.592h0.78v2.369L100.131,103.213z"/>
		<path fill="#989899" d="M104.053,106.73l1.441-3.518h0.451l-2.223,5.465c-0.068,0.166-0.139,0.332-0.211,0.5
			c-0.076,0.168-0.159,0.322-0.258,0.459c-0.098,0.139-0.211,0.25-0.34,0.336s-0.279,0.129-0.449,0.129
			c-0.123,0-0.256-0.025-0.396-0.074s-0.27-0.125-0.385-0.229l0.404-0.764c0.056,0.123,0.133,0.217,0.232,0.281
			c0.102,0.064,0.207,0.096,0.318,0.096c0.115,0,0.219-0.043,0.307-0.129c0.09-0.086,0.162-0.199,0.217-0.34l0.486-1.193
			l-2.057-4.537h0.836l1.588,3.518H104.053z"/>
		<path fill="#989899" d="M106.863,103.213h0.781v4.225h1.984v-4.225h0.779v4.225h1.985v-4.225h0.78v4.592h-6.311V103.213z"/>
		<path fill="#989899" d="M115.248,105.711c0,0.373,0.057,0.68,0.164,0.918c0.111,0.24,0.248,0.426,0.414,0.561
			c0.164,0.135,0.344,0.229,0.535,0.281c0.193,0.051,0.375,0.078,0.545,0.078c0.155,0,0.293-0.018,0.418-0.051
			c0.125-0.035,0.246-0.082,0.361-0.143s0.229-0.139,0.344-0.23c0.114-0.092,0.232-0.193,0.361-0.303l0.293,0.295
			c-0.244,0.256-0.533,0.453-0.863,0.592c-0.33,0.137-0.691,0.207-1.084,0.207c-0.404,0-0.754-0.07-1.051-0.207
			c-0.297-0.139-0.542-0.322-0.734-0.551c-0.193-0.23-0.338-0.49-0.432-0.781c-0.096-0.291-0.143-0.59-0.143-0.895
			c0-0.369,0.055-0.697,0.164-0.988c0.111-0.291,0.264-0.539,0.459-0.744c0.197-0.205,0.426-0.361,0.689-0.469
			s0.551-0.16,0.863-0.16c0.295,0,0.572,0.049,0.836,0.146s0.494,0.246,0.693,0.441s0.357,0.443,0.473,0.744
			c0.117,0.301,0.176,0.654,0.176,1.064v0.193H115.248z M117.922,105.344c0-0.594-0.121-1.061-0.359-1.4
			c-0.242-0.34-0.578-0.51-1.01-0.51c-0.225,0-0.42,0.053-0.584,0.16s-0.299,0.25-0.404,0.428c-0.107,0.178-0.186,0.381-0.238,0.609
			c-0.051,0.23-0.078,0.469-0.078,0.713H117.922z"/>
		<path fill="#989899" d="M119.924,103.213h0.779v0.744h0.039c0.227-0.564,0.703-0.846,1.432-0.846c0.307,0,0.588,0.057,0.846,0.17
			s0.479,0.275,0.666,0.486c0.186,0.213,0.333,0.465,0.436,0.758c0.104,0.295,0.156,0.625,0.156,0.992
			c0,0.361-0.053,0.691-0.156,0.988c-0.103,0.297-0.25,0.549-0.436,0.758c-0.188,0.207-0.408,0.369-0.666,0.482
			s-0.539,0.17-0.846,0.17c-0.146,0-0.293-0.016-0.436-0.047c-0.145-0.031-0.281-0.08-0.41-0.146
			c-0.127-0.066-0.242-0.156-0.344-0.266c-0.1-0.111-0.182-0.246-0.242-0.404h-0.039v3.049h-0.779V103.213z M120.703,105.85
			c0,0.25,0.037,0.475,0.108,0.67c0.069,0.195,0.163,0.363,0.278,0.5c0.115,0.139,0.252,0.242,0.404,0.313
			c0.154,0.07,0.317,0.105,0.486,0.105c0.191,0,0.372-0.035,0.543-0.105c0.172-0.07,0.322-0.184,0.454-0.34s0.235-0.355,0.313-0.602
			c0.076-0.244,0.113-0.541,0.113-0.891c0-0.344-0.037-0.637-0.113-0.881c-0.078-0.246-0.18-0.445-0.309-0.598
			c-0.129-0.154-0.279-0.266-0.455-0.336c-0.174-0.07-0.355-0.105-0.547-0.105c-0.176,0-0.344,0.039-0.5,0.115
			s-0.293,0.18-0.408,0.313c-0.117,0.131-0.207,0.287-0.271,0.467c-0.064,0.182-0.098,0.373-0.098,0.574V105.85z"/>
		<path fill="#989899" d="M128.471,107.314c0.211-0.084,0.424-0.213,0.639-0.391l0.266,0.348c-0.209,0.16-0.463,0.307-0.768,0.441
			c-0.303,0.135-0.656,0.203-1.061,0.203c-0.361,0-0.686-0.063-0.973-0.189c-0.289-0.125-0.535-0.297-0.74-0.514
			s-0.363-0.475-0.473-0.771s-0.166-0.617-0.166-0.959c0-0.326,0.051-0.631,0.152-0.92c0.102-0.287,0.252-0.539,0.455-0.752
			c0.201-0.215,0.449-0.385,0.744-0.51c0.293-0.127,0.633-0.189,1.02-0.189c0.184,0,0.375,0.018,0.574,0.051
			s0.385,0.096,0.559,0.184c0.176,0.088,0.33,0.205,0.463,0.35c0.137,0.145,0.234,0.326,0.295,0.547h-0.633
			c-0.068-0.215-0.205-0.396-0.414-0.543c-0.207-0.146-0.453-0.221-0.734-0.221c-0.172,0-0.354,0.035-0.541,0.105
			c-0.191,0.07-0.365,0.184-0.52,0.34c-0.156,0.156-0.287,0.365-0.391,0.625s-0.156,0.578-0.156,0.951
			c0,0.361,0.047,0.666,0.143,0.914s0.223,0.447,0.381,0.598c0.16,0.148,0.342,0.258,0.547,0.324
			c0.205,0.068,0.418,0.102,0.639,0.102C128.027,107.438,128.26,107.396,128.471,107.314z"/>
		<path fill="#989899" d="M133.527,103.213h0.578l-1.865,1.947l1.203,1.57c0.063,0.08,0.131,0.16,0.207,0.244
			c0.077,0.082,0.156,0.158,0.238,0.229c0.084,0.07,0.164,0.127,0.244,0.17s0.154,0.064,0.229,0.064h0.258v0.367
			c-0.08,0.025-0.172,0.049-0.275,0.074c-0.105,0.023-0.211,0.037-0.322,0.037c-0.121,0-0.236-0.021-0.344-0.064
			s-0.207-0.102-0.299-0.174c-0.092-0.074-0.178-0.156-0.258-0.25c-0.078-0.092-0.154-0.184-0.228-0.275l-1.14-1.496l-0.506,0.533
			v1.615h-0.779v-4.592h0.779v2.369L133.527,103.213z"/>
		<path fill="#989899" d="M140.02,105.518c0,0.318-0.055,0.623-0.164,0.914c-0.111,0.291-0.27,0.547-0.475,0.768
			s-0.453,0.395-0.742,0.523c-0.291,0.129-0.619,0.193-0.979,0.193c-0.367,0-0.699-0.066-0.998-0.197
			c-0.297-0.133-0.547-0.309-0.752-0.529c-0.207-0.221-0.365-0.477-0.479-0.768c-0.113-0.289-0.17-0.592-0.17-0.904
			c0-0.318,0.057-0.623,0.17-0.914c0.113-0.289,0.271-0.547,0.479-0.766c0.205-0.221,0.455-0.396,0.752-0.529
			c0.299-0.131,0.631-0.197,0.998-0.197c0.359,0,0.688,0.066,0.979,0.197c0.289,0.133,0.537,0.309,0.742,0.529
			c0.205,0.219,0.363,0.477,0.475,0.766C139.965,104.895,140.02,105.199,140.02,105.518z M139.148,105.518
			c0-0.428-0.046-0.775-0.139-1.043c-0.092-0.266-0.211-0.473-0.357-0.619c-0.148-0.146-0.311-0.246-0.488-0.299
			c-0.178-0.051-0.348-0.078-0.514-0.078s-0.336,0.027-0.514,0.078c-0.178,0.053-0.342,0.152-0.492,0.299s-0.273,0.354-0.367,0.619
			c-0.096,0.268-0.143,0.615-0.143,1.043c0,0.424,0.047,0.768,0.143,1.033c0.094,0.268,0.217,0.473,0.367,0.621
			c0.15,0.146,0.314,0.246,0.492,0.299c0.178,0.051,0.348,0.078,0.514,0.078s0.336-0.027,0.514-0.078
			c0.178-0.053,0.34-0.152,0.488-0.299c0.146-0.148,0.266-0.354,0.357-0.621C139.103,106.285,139.148,105.941,139.148,105.518z"/>
		<path fill="#989899" d="M141.812,105.711c0,0.373,0.054,0.68,0.166,0.918c0.108,0.24,0.245,0.426,0.411,0.561
			c0.164,0.135,0.344,0.229,0.535,0.281c0.193,0.051,0.375,0.078,0.545,0.078c0.152,0,0.293-0.018,0.418-0.051
			c0.125-0.035,0.244-0.082,0.359-0.143c0.117-0.061,0.231-0.139,0.346-0.23c0.111-0.092,0.232-0.193,0.361-0.303l0.293,0.295
			c-0.244,0.256-0.533,0.453-0.863,0.592c-0.33,0.137-0.691,0.207-1.084,0.207c-0.404,0-0.754-0.07-1.053-0.207
			c-0.295-0.139-0.541-0.322-0.734-0.551c-0.191-0.23-0.336-0.49-0.432-0.781c-0.094-0.291-0.141-0.59-0.141-0.895
			c0-0.369,0.055-0.697,0.164-0.988c0.111-0.291,0.264-0.539,0.459-0.744c0.197-0.205,0.426-0.361,0.689-0.469
			s0.551-0.16,0.863-0.16c0.295,0,0.572,0.049,0.836,0.146s0.494,0.246,0.693,0.441s0.357,0.443,0.473,0.744
			c0.117,0.301,0.176,0.654,0.176,1.064v0.193H141.812z M144.484,105.344c0-0.594-0.121-1.061-0.361-1.4s-0.576-0.51-1.008-0.51
			c-0.225,0-0.42,0.053-0.584,0.16s-0.299,0.25-0.406,0.428c-0.105,0.178-0.186,0.381-0.236,0.609
			c-0.053,0.23-0.077,0.469-0.077,0.713H144.484z"/>
		<path fill="#989899" d="M152.699,107.314c0.211-0.084,0.424-0.213,0.639-0.391l0.266,0.348c-0.209,0.16-0.463,0.307-0.766,0.441
			c-0.305,0.135-0.658,0.203-1.061,0.203c-0.363,0-0.688-0.063-0.975-0.189c-0.287-0.125-0.533-0.297-0.738-0.514
			c-0.207-0.217-0.363-0.475-0.475-0.771c-0.109-0.297-0.164-0.617-0.164-0.959c0-0.326,0.049-0.631,0.15-0.92
			c0.102-0.287,0.252-0.539,0.455-0.752c0.201-0.215,0.451-0.385,0.744-0.51c0.293-0.127,0.633-0.189,1.02-0.189
			c0.184,0,0.375,0.018,0.574,0.051s0.385,0.096,0.561,0.184c0.174,0.088,0.328,0.205,0.464,0.35
			c0.134,0.145,0.231,0.326,0.292,0.547h-0.633c-0.066-0.215-0.205-0.396-0.412-0.543c-0.209-0.146-0.455-0.221-0.736-0.221
			c-0.17,0-0.352,0.035-0.541,0.105s-0.363,0.184-0.52,0.34s-0.285,0.365-0.391,0.625c-0.104,0.26-0.156,0.578-0.156,0.951
			c0,0.361,0.049,0.666,0.143,0.914c0.096,0.248,0.223,0.447,0.381,0.598c0.16,0.148,0.342,0.258,0.547,0.324
			c0.205,0.068,0.418,0.102,0.639,0.102C152.258,107.438,152.488,107.396,152.699,107.314z"/>
		<path fill="#989899" d="M159.18,105.518c0,0.318-0.055,0.623-0.166,0.914c-0.109,0.291-0.268,0.547-0.473,0.768
			s-0.453,0.395-0.744,0.523s-0.617,0.193-0.979,0.193c-0.367,0-0.699-0.066-0.996-0.197c-0.297-0.133-0.549-0.309-0.752-0.529
			c-0.207-0.221-0.367-0.477-0.479-0.768c-0.113-0.289-0.17-0.592-0.17-0.904c0-0.318,0.057-0.623,0.17-0.914
			c0.111-0.289,0.271-0.547,0.479-0.766c0.203-0.221,0.455-0.396,0.752-0.529c0.297-0.131,0.629-0.197,0.996-0.197
			c0.361,0,0.688,0.066,0.979,0.197c0.291,0.133,0.539,0.309,0.744,0.529c0.205,0.219,0.363,0.477,0.473,0.766
			C159.125,104.895,159.18,105.199,159.18,105.518z M158.307,105.518c0-0.428-0.045-0.775-0.137-1.043
			c-0.092-0.266-0.213-0.473-0.358-0.619c-0.147-0.146-0.31-0.246-0.487-0.299c-0.18-0.051-0.35-0.078-0.513-0.078
			c-0.167,0-0.339,0.027-0.517,0.078c-0.178,0.053-0.342,0.152-0.49,0.299c-0.15,0.146-0.273,0.354-0.369,0.619
			c-0.094,0.268-0.141,0.615-0.141,1.043c0,0.424,0.047,0.768,0.141,1.033c0.096,0.268,0.219,0.473,0.369,0.621
			c0.148,0.146,0.313,0.246,0.49,0.299c0.178,0.051,0.35,0.078,0.517,0.078c0.163,0,0.333-0.027,0.513-0.078
			c0.178-0.053,0.34-0.152,0.487-0.299c0.146-0.148,0.267-0.354,0.358-0.621C158.262,106.285,158.307,105.941,158.307,105.518z"/>
		<path fill="#989899" d="M161.154,107.805h-0.781v-4.592h3.701v4.592h-0.779v-4.225h-2.141V107.805z"/>
		<path fill="#989899" d="M165.545,103.213h0.781v0.744h0.035c0.227-0.564,0.705-0.846,1.434-0.846c0.308,0,0.588,0.057,0.846,0.17
			c0.256,0.113,0.479,0.275,0.664,0.486c0.188,0.213,0.334,0.465,0.438,0.758c0.104,0.295,0.156,0.625,0.156,0.992
			c0,0.361-0.053,0.691-0.156,0.988s-0.25,0.549-0.438,0.758c-0.186,0.207-0.408,0.369-0.664,0.482
			c-0.258,0.113-0.538,0.17-0.846,0.17c-0.146,0-0.293-0.016-0.438-0.047c-0.143-0.031-0.279-0.08-0.408-0.146
			s-0.244-0.156-0.344-0.266c-0.102-0.111-0.182-0.246-0.244-0.404h-0.035v3.049h-0.781V103.213z M166.326,105.85
			c0,0.25,0.033,0.475,0.104,0.67c0.072,0.195,0.164,0.363,0.281,0.5c0.115,0.139,0.25,0.242,0.404,0.313
			c0.153,0.07,0.314,0.105,0.487,0.105c0.188,0,0.37-0.035,0.542-0.105c0.17-0.07,0.322-0.184,0.453-0.34
			c0.133-0.156,0.236-0.355,0.313-0.602c0.076-0.244,0.115-0.541,0.115-0.891c0-0.344-0.039-0.637-0.115-0.881
			c-0.076-0.246-0.18-0.445-0.308-0.598c-0.128-0.154-0.28-0.266-0.454-0.336s-0.357-0.105-0.546-0.105
			c-0.179,0-0.345,0.039-0.5,0.115c-0.157,0.076-0.294,0.18-0.409,0.313c-0.117,0.131-0.207,0.287-0.271,0.467
			c-0.064,0.182-0.096,0.373-0.096,0.574V105.85z"/>
		<path fill="#989899" d="M175.574,105.518c0,0.318-0.055,0.623-0.166,0.914c-0.109,0.291-0.268,0.547-0.473,0.768
			s-0.453,0.395-0.744,0.523s-0.617,0.193-0.979,0.193c-0.367,0-0.699-0.066-0.996-0.197c-0.297-0.133-0.547-0.309-0.752-0.529
			c-0.207-0.221-0.365-0.477-0.479-0.768c-0.113-0.289-0.17-0.592-0.17-0.904c0-0.318,0.057-0.623,0.17-0.914
			c0.113-0.289,0.271-0.547,0.479-0.766c0.205-0.221,0.455-0.396,0.752-0.529c0.297-0.131,0.629-0.197,0.996-0.197
			c0.361,0,0.688,0.066,0.979,0.197c0.291,0.133,0.539,0.309,0.744,0.529c0.205,0.219,0.363,0.477,0.473,0.766
			C175.52,104.895,175.574,105.199,175.574,105.518z M174.701,105.518c0-0.428-0.045-0.775-0.137-1.043
			c-0.092-0.266-0.212-0.473-0.359-0.619c-0.146-0.146-0.311-0.246-0.486-0.299c-0.178-0.051-0.35-0.078-0.516-0.078
			c-0.164,0-0.336,0.027-0.514,0.078c-0.178,0.053-0.342,0.152-0.49,0.299c-0.15,0.146-0.273,0.354-0.369,0.619
			c-0.094,0.268-0.141,0.615-0.141,1.043c0,0.424,0.047,0.768,0.141,1.033c0.096,0.268,0.219,0.473,0.369,0.621
			c0.148,0.146,0.313,0.246,0.49,0.299c0.178,0.051,0.35,0.078,0.514,0.078c0.166,0,0.338-0.027,0.516-0.078
			c0.176-0.053,0.34-0.152,0.486-0.299c0.147-0.148,0.268-0.354,0.359-0.621C174.656,106.285,174.701,105.941,174.701,105.518z"/>
		<path fill="#989899" d="M178.693,103.213c0.332,0,0.596,0.039,0.795,0.119c0.201,0.08,0.354,0.176,0.457,0.289
			s0.172,0.232,0.203,0.354c0.031,0.123,0.045,0.227,0.045,0.313c0,0.154-0.029,0.289-0.086,0.408
			c-0.059,0.121-0.135,0.225-0.23,0.313c-0.094,0.09-0.203,0.16-0.326,0.213c-0.121,0.051-0.244,0.09-0.367,0.113v0.064
			c0.129,0.006,0.27,0.027,0.428,0.064c0.157,0.037,0.301,0.1,0.439,0.188c0.137,0.09,0.25,0.211,0.34,0.363
			c0.09,0.154,0.135,0.346,0.135,0.58c0,0.152-0.031,0.301-0.092,0.445c-0.063,0.143-0.16,0.271-0.295,0.385
			s-0.311,0.205-0.523,0.275c-0.215,0.07-0.471,0.105-0.771,0.105h-2.075v-4.592H178.693z M178.348,105.297
			c0.141,0,0.275-0.02,0.404-0.059s0.242-0.098,0.34-0.174c0.098-0.078,0.177-0.17,0.234-0.277c0.059-0.105,0.086-0.23,0.086-0.371
			c0-0.074-0.01-0.158-0.031-0.252c-0.021-0.096-0.064-0.186-0.133-0.271s-0.164-0.158-0.289-0.221
			c-0.125-0.061-0.293-0.092-0.5-0.092h-0.91v1.717H178.348z M178.508,107.438c0.063,0,0.158-0.004,0.291-0.014
			s0.264-0.041,0.396-0.096c0.133-0.057,0.248-0.143,0.346-0.262c0.1-0.119,0.148-0.289,0.148-0.51c0-0.227-0.051-0.404-0.152-0.533
			s-0.223-0.223-0.365-0.285c-0.141-0.061-0.287-0.098-0.438-0.109s-0.275-0.02-0.373-0.02h-0.813v1.828H178.508z"/>
		<path fill="#989899" d="M186.201,105.518c0,0.318-0.057,0.623-0.166,0.914s-0.267,0.547-0.473,0.768
			c-0.205,0.221-0.453,0.395-0.744,0.523s-0.617,0.193-0.979,0.193c-0.367,0-0.699-0.066-0.996-0.197
			c-0.297-0.133-0.549-0.309-0.754-0.529s-0.362-0.477-0.477-0.768c-0.113-0.289-0.17-0.592-0.17-0.904
			c0-0.318,0.057-0.623,0.17-0.914c0.114-0.289,0.271-0.547,0.477-0.766c0.205-0.221,0.457-0.396,0.754-0.529
			c0.297-0.131,0.629-0.197,0.996-0.197c0.361,0,0.688,0.066,0.979,0.197c0.291,0.133,0.539,0.309,0.744,0.529
			c0.206,0.219,0.363,0.477,0.473,0.766C186.145,104.895,186.201,105.199,186.201,105.518z M185.328,105.518
			c0-0.428-0.045-0.775-0.137-1.043c-0.092-0.266-0.213-0.473-0.359-0.619s-0.309-0.246-0.486-0.299
			c-0.178-0.051-0.35-0.078-0.516-0.078s-0.336,0.027-0.514,0.078c-0.178,0.053-0.342,0.152-0.49,0.299
			c-0.15,0.146-0.273,0.354-0.369,0.619c-0.094,0.268-0.141,0.615-0.141,1.043c0,0.424,0.047,0.768,0.141,1.033
			c0.096,0.268,0.219,0.473,0.369,0.621c0.148,0.146,0.313,0.246,0.49,0.299c0.178,0.051,0.348,0.078,0.514,0.078
			s0.338-0.027,0.516-0.078c0.178-0.053,0.34-0.152,0.486-0.299c0.146-0.148,0.268-0.354,0.359-0.621
			C185.283,106.285,185.328,105.941,185.328,105.518z"/>
		<path fill="#989899" d="M190.15,105.582v-2.369h0.781v2.369l2.23-2.369h0.561l-1.811,1.947l1.158,1.598
			c0.057,0.08,0.121,0.16,0.193,0.238c0.074,0.08,0.15,0.152,0.234,0.217c0.082,0.064,0.164,0.117,0.248,0.16
			c0.082,0.043,0.16,0.064,0.234,0.064h0.256v0.367c-0.078,0.025-0.17,0.049-0.273,0.074c-0.105,0.023-0.213,0.037-0.322,0.037
			c-0.246,0-0.459-0.078-0.645-0.234c-0.182-0.156-0.346-0.332-0.484-0.529l-1.084-1.496l-0.496,0.533v1.615h-0.781v-1.615
			l-0.496-0.533l-1.084,1.496c-0.141,0.197-0.302,0.373-0.486,0.529c-0.184,0.156-0.398,0.234-0.643,0.234
			c-0.111,0-0.219-0.014-0.322-0.037c-0.104-0.025-0.195-0.049-0.275-0.074v-0.367h0.259c0.071,0,0.147-0.021,0.228-0.064
			s0.16-0.096,0.244-0.16c0.082-0.064,0.162-0.137,0.238-0.217c0.076-0.078,0.141-0.158,0.197-0.238l1.158-1.598l-1.811-1.947h0.561
			L190.15,105.582z"/>
		<path fill="#989899" d="M199.84,107.438v1.332h-0.643v-0.965h-4.041v0.965h-0.643v-1.332h0.66l1.72-4.225h0.55l1.762,4.225H199.84
			z M195.605,107.438h2.775l-1.369-3.316h-0.057L195.605,107.438z"/>
		<path fill="#989899" d="M201.265,105.711c0,0.373,0.055,0.68,0.164,0.918c0.109,0.24,0.248,0.426,0.414,0.561
			c0.164,0.135,0.342,0.229,0.535,0.281c0.191,0.051,0.373,0.078,0.545,0.078c0.152,0,0.291-0.018,0.416-0.051
			c0.125-0.035,0.246-0.082,0.361-0.143c0.117-0.061,0.232-0.139,0.344-0.23c0.113-0.092,0.234-0.193,0.361-0.303l0.295,0.295
			c-0.246,0.256-0.533,0.453-0.863,0.592c-0.332,0.137-0.693,0.207-1.084,0.207c-0.404,0-0.756-0.07-1.053-0.207
			c-0.297-0.139-0.541-0.322-0.734-0.551c-0.193-0.23-0.337-0.49-0.433-0.781s-0.143-0.59-0.143-0.895
			c0-0.369,0.055-0.697,0.166-0.988c0.109-0.291,0.265-0.539,0.46-0.744s0.426-0.361,0.688-0.469c0.264-0.107,0.553-0.16,0.865-0.16
			c0.293,0,0.572,0.049,0.836,0.146c0.262,0.098,0.494,0.246,0.693,0.441c0.197,0.195,0.355,0.443,0.473,0.744
			c0.115,0.301,0.174,0.654,0.174,1.064v0.193H201.265z M203.937,105.344c0-0.594-0.119-1.061-0.359-1.4s-0.576-0.51-1.008-0.51
			c-0.225,0-0.42,0.053-0.584,0.16s-0.299,0.25-0.406,0.428c-0.105,0.178-0.186,0.381-0.236,0.609
			c-0.053,0.23-0.078,0.469-0.078,0.713H203.937z"/>
		<path fill="#989899" d="M206.72,107.805h-0.779v-4.592h0.779v2.084h2.324v-2.084h0.781v4.592h-0.781v-2.195h-2.324V107.805z"/>
		<path fill="#989899" d="M214.415,103.213h0.92v4.592h-0.779v-4.021l-2.342,4.021h-0.92v-4.592h0.781v4.051L214.415,103.213z"/>
		<path fill="#989899" d="M217.401,105.711c0,0.373,0.055,0.68,0.166,0.918c0.109,0.24,0.246,0.426,0.41,0.561
			c0.166,0.135,0.346,0.229,0.537,0.281c0.191,0.051,0.375,0.078,0.545,0.078c0.152,0,0.291-0.018,0.418-0.051
			c0.125-0.035,0.244-0.082,0.361-0.143c0.115-0.061,0.23-0.139,0.344-0.23s0.232-0.193,0.361-0.303l0.293,0.295
			c-0.244,0.256-0.533,0.453-0.863,0.592c-0.33,0.137-0.691,0.207-1.084,0.207c-0.404,0-0.754-0.07-1.051-0.207
			c-0.297-0.139-0.543-0.322-0.736-0.551c-0.191-0.23-0.336-0.49-0.432-0.781c-0.094-0.291-0.141-0.59-0.141-0.895
			c0-0.369,0.055-0.697,0.164-0.988c0.111-0.291,0.262-0.539,0.459-0.744s0.426-0.361,0.689-0.469s0.551-0.16,0.861-0.16
			c0.297,0,0.574,0.049,0.838,0.146s0.494,0.246,0.693,0.441s0.357,0.443,0.473,0.744c0.117,0.301,0.176,0.654,0.176,1.064v0.193
			H217.401z M220.075,105.344c0-0.594-0.121-1.061-0.361-1.4s-0.576-0.51-1.008-0.51c-0.225,0-0.42,0.053-0.584,0.16
			s-0.299,0.25-0.404,0.428c-0.107,0.178-0.188,0.381-0.24,0.609c-0.051,0.23-0.076,0.469-0.076,0.713H220.075z"/>
	</g>
</g>
<g>
	<g>
		<circle opacity="1" fill="#fff" cx="229.012" cy="226.76" r="21.5"/>
		<circle fill="none" stroke="#37B39C" stroke-miterlimit="10" cx="229.012" cy="226.76" r="13.5"/>
		<g>
			<g>
				<path fill="#37B39C" d="M228.73,221.438l4.354,4.352c0.227,0.227,0.352,0.531,0.352,0.852c0,0.318-0.125,0.623-0.352,0.847
					l-4.182,4.183l-1.697-1.699l3.332-3.33l-3.504-3.504L228.73,221.438z"/>
			</g>
		</g>
	</g>
	<g>
		<circle opacity="1" fill="#fff" cx="171.988" cy="226.76" r="21.5"/>
		<circle fill="none" stroke="#37B39C" stroke-miterlimit="10" cx="171.988" cy="226.76" r="13.5"/>
		<g>
			<g>
				<path fill="#37B39C" d="M172.269,232.082l-4.354-4.352c-0.227-0.227-0.352-0.532-0.352-0.852c0-0.318,0.125-0.623,0.352-0.849
					l4.182-4.181l1.699,1.699l-3.332,3.33l3.502,3.504L172.269,232.082z"/>
			</g>
		</g>
	</g>
</g>
<g>
	<g>
		<path fill-rule="evenodd" clip-rule="evenodd" fill="#37B39C" d="M152.972,308c-0.007-0.101-0.021-0.205-0.021-0.307
			c-0.002-1.96-0.002-3.92-0.002-5.878c0-0.1,0-0.203,0-0.339c-0.756,0-1.479,0-2.217,0c0-0.881,0-1.725,0-2.604
			c0.732,0,1.455,0,2.201,0c0.008-0.126,0.016-0.219,0.016-0.31c0.002-0.644-0.029-1.286,0.01-1.925
			c0.078-1.211,0.563-2.204,1.727-2.713c0.402-0.176,0.862-0.27,1.303-0.291c0.684-0.035,1.367,0.021,2.051,0.041
			c0.059,0.002,0.117,0.021,0.191,0.035c0,0.776,0,1.543,0,2.348c-0.113,0-0.225-0.002-0.332,0
			c-0.477,0.017-0.953,0.021-1.426,0.054c-0.492,0.03-0.801,0.32-0.822,0.806c-0.027,0.635-0.006,1.273-0.006,1.95
			c0.813,0,1.639,0,2.512,0c-0.115,0.884-0.225,1.726-0.336,2.596c-0.738,0-1.451,0-2.197,0c-0.01,0.126-0.025,0.228-0.025,0.323
			c0,1.969,0,3.938,0,5.906c0,0.102-0.016,0.206-0.023,0.307C154.706,308,153.84,308,152.972,308z"/>
		<path fill-rule="evenodd" clip-rule="evenodd" fill="#37B39C" d="M177.159,305.821c1.713,0.131,3.252-0.294,4.691-1.331
			c-1.459-0.19-2.451-0.904-2.965-2.276c0.471-0.016,0.9,0.058,1.363-0.079c-1.014-0.283-1.736-0.863-2.184-1.767
			c-0.219-0.438-0.342-0.909-0.311-1.446c0.439,0.153,0.836,0.355,1.336,0.352c-1.379-1.224-1.669-2.635-0.881-4.273
			c1.77,2.019,3.953,3.168,6.654,3.354c-0.211-1.603,0.297-2.853,1.717-3.596c1.418-0.747,2.727-0.419,3.896,0.627
			c0.711-0.122,1.355-0.406,2.004-0.721c-0.188,0.717-0.645,1.238-1.207,1.689c0.568-0.044,1.096-0.229,1.652-0.399
			c-0.031,0.054-0.063,0.11-0.1,0.162c-0.348,0.481-0.74,0.922-1.221,1.275c-0.197,0.146-0.252,0.316-0.252,0.549
			c0.008,2.014-0.59,3.846-1.74,5.488c-1.516,2.16-3.6,3.412-6.219,3.757c-2.121,0.277-4.121-0.11-5.977-1.194
			C177.329,305.939,177.245,305.88,177.159,305.821z"/>
		<g>
			<path fill-rule="evenodd" clip-rule="evenodd" fill="#37B39C" d="M236.442,296.647c0-0.93,0-1.821,0-2.747
				c3.26,0.055,6.176,1.048,8.68,3.109c3.354,2.761,5.014,6.356,5.146,10.701c-0.932,0-1.828,0-2.754,0
				c-0.066-3.024-1.104-5.66-3.252-7.807C242.114,297.75,239.481,296.705,236.442,296.647z"/>
			<path fill-rule="evenodd" clip-rule="evenodd" fill="#37B39C" d="M245.591,307.716c-0.91,0-1.777,0-2.625,0
				c-0.414-3.948-2.578-6.116-6.527-6.524c0-0.854,0-1.725,0-2.626c2.387,0.047,4.473,0.843,6.207,2.462
				C244.565,302.821,245.528,305.065,245.591,307.716z"/>
			<path fill-rule="evenodd" clip-rule="evenodd" fill="#37B39C" d="M240.2,305.844c0,1.025-0.865,1.883-1.903,1.881
				c-0.997,0-1.875-0.894-1.872-1.903c0.004-1,0.895-1.873,1.904-1.871C239.343,303.954,240.2,304.821,240.2,305.844z"/>
		</g>
		<g>
			<path fill-rule="evenodd" clip-rule="evenodd" fill="#37B39C" d="M213.044,299.759c1.547,0,3.094,0,4.641,0
				c1.457,0,2.75,1.093,2.99,2.539c0.029,0.179,0.049,0.362,0.049,0.546c0.004,1.188,0.002,2.374,0.002,3.56
				c0,1.514-1.059,2.783-2.549,3.049c-0.186,0.035-0.381,0.048-0.574,0.048c-3.037,0.004-6.076,0.004-9.117,0.002
				c-1.512,0-2.76-1.018-3.061-2.492c-0.039-0.184-0.055-0.373-0.055-0.56c-0.006-1.194-0.006-2.39-0.006-3.586
				c0.004-1.432,0.93-2.646,2.318-3.006c0.234-0.059,0.48-0.095,0.721-0.095C209.95,299.756,211.497,299.759,213.044,299.759z
				 M214.495,307.464c0.02-0.016,0.047-0.031,0.066-0.046c0.018,0.036,0.027,0.088,0.057,0.114c0.094,0.077,0.188,0.168,0.297,0.224
				c0.426,0.205,0.977,0.13,1.156-0.379c0.047-0.135,0.078-0.285,0.082-0.425c0.006-0.993,0.008-1.981-0.004-2.969
				c-0.002-0.167-0.041-0.345-0.098-0.502c-0.15-0.398-0.51-0.582-0.921-0.484c-0.21,0.048-0.375,0.175-0.522,0.328
				c-0.027,0.029-0.057,0.055-0.113,0.104c0-0.722,0-1.402,0-2.092c-0.293,0-0.57,0-0.855,0c0,2.154,0,4.297,0,6.446
				c0.287,0,0.566,0,0.855,0C214.495,307.67,214.495,307.567,214.495,307.464z M219.433,305.506c0-0.522,0.035-1.024-0.011-1.519
				c-0.073-0.827-0.7-1.177-1.464-1.05c-0.668,0.11-1.082,0.631-1.086,1.31c-0.002,0.762-0.002,1.524,0,2.286
				c0,0.109,0.014,0.219,0.029,0.326c0.082,0.547,0.432,0.934,0.955,1.033c0.168,0.035,0.35,0.033,0.523,0.016
				c0.432-0.042,0.77-0.241,0.934-0.658c0.07-0.183,0.108-0.386,0.131-0.583c0.023-0.179,0.008-0.364,0.008-0.542
				c-0.299,0-0.58,0-0.867,0c-0.006,0.197-0.014,0.385-0.023,0.573c-0.015,0.229-0.086,0.352-0.242,0.4
				c-0.307,0.093-0.535-0.062-0.549-0.391c-0.018-0.366-0.016-0.731-0.018-1.094c0-0.033,0.01-0.064,0.02-0.108
				C218.333,305.506,218.884,305.506,219.433,305.506z M211.868,303.045c0,0.064,0,0.115,0,0.164c0,1.112,0,2.221,0,3.333
				c0,0.052,0,0.126-0.029,0.154c-0.127,0.11-0.256,0.231-0.402,0.31c-0.174,0.088-0.314-0.004-0.352-0.195
				c-0.012-0.066-0.012-0.133-0.012-0.198c0-1.138,0-2.274,0-3.411c0-0.049,0-0.096,0-0.151c-0.289,0-0.561,0-0.85,0
				c0,0.067,0,0.12,0,0.175c0,1.268,0,2.539,0,3.812c0,0.078,0.002,0.16,0.012,0.237c0.041,0.453,0.363,0.677,0.799,0.563
				c0.281-0.072,0.506-0.24,0.701-0.447c0.035-0.033,0.074-0.066,0.139-0.125c0,0.197,0,0.356,0,0.521c0.291,0,0.57,0,0.85,0
				c0-1.586,0-3.159,0-4.739C212.438,303.045,212.165,303.045,211.868,303.045z M209.169,307.787c0-1.859,0-3.695,0-5.554
				c0.346,0,0.68,0,1.016,0c0-0.312,0-0.602,0-0.894c-1.013,0-2.013,0-3.016,0c0,0.299,0,0.59,0,0.902c0.342,0,0.676,0,1.025,0
				c0,1.856,0,3.695,0,5.545C208.522,307.787,208.831,307.787,209.169,307.787z"/>
			<path fill-rule="evenodd" clip-rule="evenodd" fill="#37B39C" d="M210.659,298.637c-0.354,0-0.689,0-1.033,0
				c-0.002-0.061-0.008-0.115-0.008-0.168c-0.002-0.625-0.012-1.248,0.002-1.87c0.01-0.372-0.049-0.722-0.158-1.073
				c-0.34-1.084-0.668-2.174-1-3.262c-0.012-0.041-0.021-0.086-0.035-0.143c0.355,0,0.691,0,1.039,0
				c0.217,0.862,0.434,1.719,0.648,2.579c0.016,0,0.029,0.001,0.041,0.001c0.205-0.861,0.412-1.718,0.619-2.58
				c0.354,0,0.693,0,1.047,0c-0.012,0.055-0.02,0.098-0.035,0.141c-0.359,1.178-0.725,2.355-1.084,3.536
				c-0.025,0.088-0.041,0.182-0.041,0.27c-0.002,0.797-0.002,1.593-0.002,2.392C210.659,298.51,210.659,298.565,210.659,298.637z"/>
			<path fill-rule="evenodd" clip-rule="evenodd" fill="#37B39C" d="M211.751,296.191c0-0.416,0-0.836,0-1.254
				c0-0.636,0.336-1.066,0.959-1.2c0.462-0.101,0.9-0.048,1.27,0.286c0.244,0.221,0.377,0.502,0.381,0.832
				c0.004,0.9,0.004,1.803,0,2.705c-0.004,0.687-0.518,1.189-1.203,1.207c-0.402,0.013-0.773-0.066-1.064-0.372
				c-0.227-0.239-0.334-0.529-0.338-0.858C211.745,297.092,211.751,296.643,211.751,296.191z M213.422,296.218L213.422,296.218
				c-0.001-0.447,0.003-0.896-0.005-1.345c-0.002-0.201-0.158-0.314-0.391-0.306c-0.193,0.005-0.324,0.137-0.328,0.324
				c0,0.176,0,0.353,0,0.528c0,0.701,0,1.406,0,2.112c0,0.229,0.125,0.363,0.338,0.367c0.246,0.005,0.381-0.124,0.386-0.388
				C213.425,297.081,213.422,296.649,213.422,296.218z"/>
			<path fill-rule="evenodd" clip-rule="evenodd" fill="#37B39C" d="M216.741,293.822c0.279,0,0.539-0.001,0.797,0
				c0.039,0,0.074,0.004,0.121,0.007c0,1.605,0,3.198,0,4.805c-0.299,0-0.594,0-0.91,0c0-0.146,0-0.294,0-0.466
				c-0.133,0.112-0.232,0.209-0.342,0.296c-0.213,0.161-0.445,0.266-0.723,0.254c-0.234-0.013-0.412-0.119-0.496-0.341
				c-0.049-0.117-0.088-0.25-0.088-0.377c-0.004-1.357-0.002-2.715-0.002-4.072c0-0.028,0.002-0.057,0.008-0.095
				c0.301,0,0.594,0,0.899,0c0.005,0.063,0.013,0.117,0.013,0.176c0,1.144,0,2.289,0,3.433c0,0.063-0.004,0.127,0.006,0.186
				c0.022,0.157,0.137,0.225,0.285,0.175c0.176-0.06,0.305-0.185,0.432-0.329C216.741,296.267,216.741,295.055,216.741,293.822z"/>
			<path fill-rule="evenodd" clip-rule="evenodd" fill="#37B39C" d="M214.497,305.406c0-0.447,0.008-0.895-0.002-1.343
				c-0.006-0.164,0.07-0.247,0.199-0.31c0.271-0.134,0.539,0.006,0.57,0.31c0.01,0.1,0.016,0.198,0.016,0.301
				c0.002,0.731,0.002,1.467,0,2.201c0,0.095-0.006,0.193-0.018,0.286c-0.021,0.207-0.18,0.32-0.382,0.282
				c-0.071-0.014-0.144-0.046-0.21-0.079c-0.125-0.066-0.182-0.159-0.176-0.314C214.505,306.298,214.497,305.852,214.497,305.406z"
				/>
			<path fill-rule="evenodd" clip-rule="evenodd" fill="#37B39C" d="M218.554,304.798c-0.262,0-0.518,0-0.781,0
				c-0.008-0.036-0.02-0.066-0.02-0.098c0.002-0.203,0-0.405,0.016-0.604c0.018-0.245,0.15-0.371,0.381-0.378
				c0.215-0.013,0.373,0.102,0.397,0.332C218.573,304.292,218.554,304.539,218.554,304.798z"/>
		</g>
	</g>
</g>
<g>
	<g>
		<g>
			<path fill="#B2B2B2" d="M199.862,372.925c-2.773,0-5.029-2.256-5.029-5.028s2.256-5.028,5.029-5.028
				c2.773,0,5.029,2.256,5.029,5.028S202.635,372.925,199.862,372.925z M199.862,364.21c-2.033,0-3.688,1.653-3.688,3.687
				s1.654,3.688,3.688,3.688c2.033,0,3.687-1.654,3.687-3.688S201.895,364.21,199.862,364.21z"/>
		</g>
		<g>
			
				<rect x="202.255" y="371.633" transform="matrix(0.7071 0.7071 -0.7071 0.7071 323.0876 -35.3951)" fill="#B2B2B2" width="4.03" height="1.341"/>
		</g>
	</g>
</g>
<g>
	<g>
		<path fill="#C6C6C6" d="M127.287,428.439c1.801-0.938,7.093-3.159,7.093-7.106c0-2.436-1.588-4.41-3.546-4.41
			c-1.959,0-3.547,1.394-3.547,3.828"/>
		<path fill="#C6C6C6" d="M127.342,428.439c-1.8-0.938-7.094-3.159-7.094-7.106c0-2.436,1.588-4.41,3.547-4.41
			s3.547,1.394,3.547,3.828"/>
	</g>
	<path fill="#C6C6C6" d="M175.707,416.923c-3.772,0-6.83,2.569-6.83,5.738c0,1.221,0.457,2.35,1.229,3.28l-0.207,0.513l-0.781,1.945
		l1.944-0.783l0.695-0.279c1.115,0.666,2.477,1.063,3.949,1.063c3.772,0,6.831-2.569,6.831-5.738S179.479,416.923,175.707,416.923z"
		/>
	<g>
		<path fill="#C6C6C6" d="M219.755,416.923c-4.812,0-8.714,5.756-8.714,5.756s3.902,5.754,8.714,5.754
			c4.814,0,8.716-5.754,8.716-5.754S224.569,416.923,219.755,416.923z M219.755,426.625c-2.179,0-3.945-1.768-3.945-3.946
			c0-2.18,1.767-3.946,3.945-3.946c2.18,0,3.947,1.767,3.947,3.946C223.702,424.857,221.935,426.625,219.755,426.625z"/>
		<circle fill="#C6C6C6" cx="219.755" cy="422.678" r="1.644"/>
	</g>
	<g>
		<path fill-rule="evenodd" clip-rule="evenodd" fill="#C6C6C6" d="M268.067,424.591c0-0.396-0.005-0.793,0.001-1.189
			c0.01-0.706-0.011-1.416,0.045-2.119c0.109-1.367,1.252-2.572,2.613-2.804c0.249-0.044,0.504-0.063,0.758-0.064
			c1.67-0.007,3.339-0.004,5.008-0.004c0.133,0,0.264,0,0.438,0c0-0.597,0-1.174,0-1.75c0.026-0.013,0.051-0.024,0.077-0.035
			c0.993,0.913,1.986,1.827,3.006,2.763c-1.018,0.936-2.006,1.845-3.055,2.809c0-0.643,0-1.206,0-1.806
			c-0.142-0.008-0.246-0.019-0.353-0.019c-1.747,0-3.493-0.002-5.241,0c-0.768,0.002-1.334,0.567-1.345,1.34
			c-0.006,0.331-0.001,0.662-0.001,1.027C269.38,423.346,268.732,423.96,268.067,424.591z"/>
		<path fill-rule="evenodd" clip-rule="evenodd" fill="#C6C6C6" d="M268.804,425.635c1.02-0.938,2.008-1.847,3.057-2.811
			c0,0.645,0,1.21,0,1.804c0.142,0.009,0.247,0.021,0.354,0.021c1.747,0.001,3.494,0.003,5.24,0
			c0.768-0.001,1.333-0.568,1.344-1.342c0.005-0.331,0-0.662,0-1.026c0.641-0.606,1.288-1.22,1.935-1.832
			c0.003,0.056,0.017,0.149,0.017,0.245c0.001,0.851,0.005,1.703,0,2.554c-0.011,1.938-1.445,3.362-3.386,3.364
			c-1.68,0-3.361,0-5.041,0c-0.132,0-0.264,0-0.438,0c0,0.597,0,1.174,0,1.752c-0.026,0.01-0.05,0.021-0.075,0.031
			C270.821,427.487,269.834,426.581,268.804,425.635z"/>
	</g>
	<g>
		<text transform="matrix(1 0 0 1 139.3535 427.0293)" fill="#C6C6C6" font-family="'Helvetica-Regular'" font-size="11.3062">12</text>
	</g>
	<g>
		<text transform="matrix(1 0 0 1 233.1006 427.0293)" fill="#C6C6C6" font-family="'Helvetica-Regular'" font-size="11.3062">1200</text>
	</g>
	<g>
		<text transform="matrix(1 0 0 1 187.4053 427.0293)" fill="#C6C6C6" font-family="'Helvetica-Regular'" font-size="11.3062">3</text>
	</g>
</g>
<g>
	<polygon fill="#9D9D9C" points="191.25,483.569 194.5,480.266 197.75,476.964 197.75,483.569 197.75,490.172 194.5,486.871 	"/>
	<path fill="#9D9D9C" d="M196.25,481.069c10.154,0,13.5,7.312,13.5,7.312s-4.406-3.375-13.5-3.375
		C196.25,483.081,196.25,481.069,196.25,481.069z"/>
</g>
<path fill-rule="evenodd" clip-rule="evenodd" fill="#37B39C" d="M197.112,542.566c-0.395,1.121-0.782,2.23-1.178,3.355
	c0.397,0.031,0.797-0.002,1.204,0.018c0,0.686,0,1.367,0,2.063c-2.701,0-5.412,0-8.132,0c0-0.68,0-1.359,0-2.061
	c0.508,0,1.022,0,1.55,0c0.082-0.184,0.168-0.352,0.231-0.527c0.117-0.326,0.242-0.65,0.368-0.975
	c0.165-0.432,0.34-0.861,0.509-1.291c0.133-0.34,0.27-0.678,0.41-1.016c0.116-0.279,0.222-0.563,0.334-0.844
	c0.092-0.232,0.194-0.459,0.278-0.693c0.167-0.461,0.357-0.912,0.538-1.367c0.122-0.307,0.242-0.613,0.359-0.92
	c0.163-0.434,0.342-0.861,0.51-1.293c0.126-0.32,0.259-0.643,0.391-0.965c0.125-0.303,0.263-0.604,0.356-0.922
	c0.067-0.229,0.195-0.439,0.276-0.664c0.164-0.461,0.372-0.906,0.531-1.371c0.086-0.25,0.207-0.49,0.314-0.744
	c0.088,0.125,0.196,0.24,0.254,0.377c0.156,0.355,0.372,0.676,0.562,1.01c0.191,0.336,0.367,0.68,0.584,1.002
	c0.125,0.184,0.192,0.406,0.314,0.592c0.218,0.33,0.38,0.695,0.604,1.021c0.102,0.146,0.168,0.316,0.255,0.473
	c0.19,0.344,0.391,0.684,0.581,1.029c0.229,0.406,0.458,0.814,0.695,1.213c0.192,0.316,0.346,0.656,0.57,0.951
	c0.042,0.055,0.056,0.131,0.087,0.207c0.119-0.047,0.151-0.16,0.201-0.244c0.229-0.396,0.46-0.793,0.688-1.191
	c0.188-0.332,0.374-0.67,0.565-1.006c0.189-0.336,0.367-0.68,0.584-1.002c0.123-0.184,0.193-0.404,0.314-0.59
	c0.219-0.332,0.381-0.695,0.607-1.021c0.1-0.146,0.166-0.316,0.25-0.473c0.191-0.346,0.391-0.688,0.584-1.029
	c0.242-0.422,0.49-0.836,0.721-1.264c0.01-0.016,0.027-0.027,0.059-0.059c0.088,0.205,0.178,0.4,0.256,0.6
	c0.123,0.314,0.234,0.633,0.361,0.949c0.168,0.43,0.355,0.854,0.51,1.291c0.08,0.227,0.207,0.436,0.279,0.662
	c0.107,0.322,0.264,0.625,0.359,0.951c0.066,0.23,0.199,0.439,0.275,0.664c0.162,0.465,0.361,0.912,0.533,1.369
	c0.123,0.314,0.254,0.629,0.387,0.939c0.135,0.311,0.238,0.633,0.359,0.949c0.084,0.215,0.16,0.436,0.26,0.643
	c0.111,0.234,0.205,0.477,0.295,0.717c0.086,0.232,0.227,0.449,0.254,0.703c0.256,0.473,0.398,0.992,0.605,1.484
	c0.176,0.416,0.357,0.834,0.496,1.268c0.031,0.102,0.115,0.18,0.119,0.301c0.002,0.055,0.064,0.111,0.148,0.1
	c0.055-0.008,0.115-0.002,0.172-0.002c0.424,0,0.848,0,1.281,0c0,0.695,0,1.383,0,2.076c-2.713,0-5.416,0-8.129,0
	c0-0.684,0-1.365,0-2.059c-0.006,0.006,0-0.002,0.01-0.008c0.008-0.004,0.016-0.008,0.016-0.008
	c0.391-0.002,0.775-0.002,1.189-0.002c-0.4-1.131-0.791-2.242-1.184-3.357c-0.174,0.291-0.34,0.568-0.506,0.846
	c-0.178,0.293-0.354,0.584-0.531,0.877c-0.18,0.293-0.354,0.586-0.531,0.879c-0.148,0.238-0.299,0.473-0.438,0.715
	c-0.176,0.305-0.379,0.59-0.547,0.9c-0.15,0.275-0.328,0.537-0.495,0.807c-0.108,0.176-0.218,0.35-0.332,0.531c0,0-0.006,0-0.016,0
	c-0.009,0-0.024,0.004-0.024,0.004c-1.086-1.854-2.244-3.656-3.328-5.504C197.139,542.615,197.13,542.6,197.112,542.566z"/>
<g>
	<text transform="matrix(1 0 0 1 167.9971 617.0762)" fill="#878787" font-family="'DINPro-Regular'" font-size="37.4596"></text>
	<text transform="matrix(-1 0 0 -1 233.0029 613.0625)" fill="#878787" font-family="'DINPro-Regular'" font-size="37.4596"></text>
</g>
<g>
	<rect x="184.802" y="706.558" fill="#EBEBEB" width="41.125" height="30.395"/>
	<g>
		<g>
			<path fill="#BBBBBB" d="M198.724,714.985v3.217h-3.217v-3.217H198.724 M200.224,713.485h-6.217v6.217h6.217V713.485
				L200.224,713.485z"/>
		</g>
		<g>
			<rect x="194.007" y="722.651" fill="#BBBBBB" width="22.715" height="1.434"/>
		</g>
		<g>
			<rect x="194.007" y="727.272" fill="#BBBBBB" width="22.715" height="1.436"/>
		</g>
		<g>
			<rect x="203.571" y="718.269" fill="#BBBBBB" width="13.15" height="1.434"/>
		</g>
		<g>
			<rect x="203.571" y="713.485" fill="#BBBBBB" width="13.15" height="1.434"/>
		</g>
	</g>
	<polygon fill="#4DCEB5" points="214.927,685.431 184.802,685.431 184.802,704.558 225.927,704.558 225.927,696.431 	"/>
	<g>
		<g>
			<polygon fill="#37B39C" points="214.927,696.431 225.927,696.431 214.927,685.431 			"/>
		</g>
	</g>
	<g>
		<path fill="#FFFFFF" d="M196.621,695.74h-1.38v2.205h-0.919v-5.605h2.299c1.184,0,1.941,0.724,1.941,1.7
			S197.805,695.74,196.621,695.74z M196.57,693.104h-1.329v1.865h1.329c0.639,0,1.072-0.338,1.072-0.929
			S197.209,693.104,196.57,693.104z"/>
		<path fill="#FFFFFF" d="M203.457,697.418c-0.384,0.354-0.937,0.527-1.566,0.527h-2.129v-5.605h2.129
			c0.63,0,1.183,0.173,1.566,0.527c0.655,0.605,0.613,1.425,0.613,2.235C204.07,695.914,204.112,696.812,203.457,697.418z
			 M202.827,693.481c-0.256-0.261-0.597-0.378-1.03-0.378h-1.116v4.078h1.116c0.434,0,0.774-0.118,1.03-0.378
			c0.314-0.323,0.323-0.929,0.323-1.701C203.15,694.331,203.142,693.804,202.827,693.481z"/>
		<path fill="#FFFFFF" d="M206.435,693.104v1.708h2.521v0.764h-2.521v2.37h-0.919v-5.605h3.874v0.764H206.435z"/>
	</g>
</g>
</svg>
