<?xml version="1.0" encoding="utf-8"?>
<!-- Generator: Adobe Illustrator 16.0.0, SVG Export Plug-In . SVG Version: 6.00 Build 0)  -->
<!DOCTYPE svg PUBLIC "-//W3C//DTD SVG 1.1//EN" "http://www.w3.org/Graphics/SVG/1.1/DTD/svg11.dtd">
<svg version="1.1" id="Layer_1" xmlns="http://www.w3.org/2000/svg" xmlns:xlink="http://www.w3.org/1999/xlink" x="0px" y="0px"
	 width="272px" height="548px" viewBox="0 0 272 548" enable-background="new 0 0 272 548" xml:space="preserve">
<g>
	<g>
		<g>
			<g>
				<g>
					<path fill="#FFFFFF" d="M157.551,93.247c0,1.1-0.9,2-2,2h-9.492c-1.1,0-2.637,0.637-3.414,1.414l-4.847,4.847
						c-0.778,0.777-2.05,0.777-2.828,0l-4.846-4.847c-0.778-0.777-2.314-1.414-3.414-1.414h-10.26c-1.1,0-2-0.9-2-2V60.235
						c0-1.1,0.9-2,2-2h39.101c1.1,0,2,0.9,2,2V93.247z"/>
				</g>
			</g>
		</g>
	</g>
	<text transform="matrix(1 0 0 1 127.0698 87.374)" fill="#37B39C" font-family="'Helvetica-Bold'" font-size="31.5485">3</text>
</g>
<g>
	<g>
		<g>
			<g>
				<g>
					<path fill="#37B39C" d="M157.551,182.745c0,1.1-0.9,2-2,2h-9.492c-1.1,0-2.637,0.637-3.414,1.414l-4.847,4.847
						c-0.778,0.777-2.05,0.777-2.828,0l-4.846-4.847c-0.778-0.777-2.314-1.414-3.414-1.414h-10.26c-1.1,0-2-0.9-2-2v-33.012
						c0-1.1,0.9-2,2-2h39.101c1.1,0,2,0.9,2,2V182.745z"/>
				</g>
			</g>
		</g>
	</g>
	<g>
		<text transform="matrix(1 0 0 1 127.0698 176.8721)" fill="#FFFFFF" font-family="'Helvetica-Bold'" font-size="31.5485">4</text>
	</g>
</g>
<g>
	<g>
		<g>
			<g>
				<path fill="#37B39C" d="M136.363,295.692c-0.876,0-1.698-0.34-2.315-0.958l-5.216-5.216c-0.223-0.224-0.883-0.497-1.198-0.497
					H73.385c-1.805,0-3.273-1.469-3.273-3.273v-43.809c0-1.805,1.468-3.273,3.273-3.273h125.229c1.805,0,3.273,1.469,3.273,3.273
					v43.809c0,1.805-1.469,3.273-3.273,3.273h-53.521c-0.314,0-0.975,0.273-1.196,0.496l-5.219,5.218
					C138.062,295.353,137.239,295.692,136.363,295.692z"/>
				<path fill="#FFFFFF" d="M198.614,240.484c0.801,0,1.455,0.654,1.455,1.455v43.809c0,0.801-0.654,1.455-1.455,1.455h-53.521
					c-0.801,0-1.918,0.463-2.483,1.029l-5.217,5.217c-0.283,0.283-0.656,0.425-1.029,0.425s-0.746-0.142-1.029-0.425l-5.217-5.217
					c-0.566-0.566-1.684-1.029-2.483-1.029H73.385c-0.8,0-1.455-0.654-1.455-1.455v-43.809c0-0.801,0.655-1.455,1.455-1.455H198.614
					 M198.614,236.848H73.386c-2.808,0-5.092,2.284-5.092,5.092v43.809c0,2.808,2.284,5.092,5.092,5.092h54.119
					c0.042,0.014,0.093,0.035,0.132,0.056l5.126,5.126c0.96,0.96,2.239,1.489,3.601,1.489s2.641-0.529,3.602-1.491l5.126-5.125
					c0.039-0.02,0.09-0.041,0.132-0.055h53.392c2.808,0,5.092-2.284,5.092-5.092v-43.809
					C203.706,239.132,201.422,236.848,198.614,236.848L198.614,236.848z"/>
			</g>
		</g>
	</g>
	<g>
		<path fill="#FFFFFF" d="M91.27,252.172c0.24,0,0.29,0.17,0.149,0.51c-0.13,0.35-0.305,0.525-0.524,0.525
			c-0.41,0-0.959,0.01-1.647,0.029c-0.819,0.031-1.368,0.049-1.648,0.061c0.01,3.018,0.165,9.717,0.464,20.105
			c0.011,0.229-0.119,0.439-0.389,0.629s-0.409,0.129-0.419-0.18c-0.301-10.566-0.455-17.395-0.465-20.48
			c0-0.01,0.004-0.029,0.015-0.061c-1.408,0.072-2.223-0.049-2.442-0.359c-0.13-0.18-0.079-0.414,0.15-0.705
			c0.22-0.289,0.399-0.332,0.539-0.133c0.13,0.18,0.599,0.26,1.408,0.24c0.24,0,0.54-0.016,0.898-0.047
			c0.36-0.02,0.565-0.035,0.615-0.045c0.279,0,0.828-0.016,1.647-0.045C90.311,252.197,90.86,252.182,91.27,252.172z"/>
		<path fill="#FFFFFF" d="M98.82,264.893c0.12,3.285-0.375,5.736-1.483,7.355c-0.479,0.689-0.993,1.232-1.543,1.633
			c-0.809,0.59-1.483,0.65-2.023,0.18c-0.788-0.689-1.349-2.158-1.677-4.404c-1.01-6.801-0.899-12.34,0.328-16.613
			c0.051-0.15,0.136-0.271,0.256-0.361v-0.014c1.509-1.318,2.802-1.061,3.88,0.777c0.659,1.129,1.193,2.754,1.603,4.869
			c0.36,1.898,0.54,2.846,0.54,2.846S98.739,262.404,98.82,264.893z M97.127,271.244c0.799-1.609,1.044-4.16,0.734-7.654
			c-0.21-2.328-0.385-3.852-0.524-4.572c-1.019-5.133-2.427-7.029-4.226-5.691c-0.938,3.426-1.063,8.184-0.373,14.277
			c0.259,2.336,0.623,3.91,1.093,4.719c0.46,0.811,1.049,1.029,1.769,0.658C96.198,272.672,96.708,272.092,97.127,271.244z"/>
		<path fill="#FFFFFF" d="M115.135,267.244c0.101,1.957-0.374,3.566-1.423,4.824c-1.139,1.369-2.662,1.902-4.569,1.602
			c-0.03-0.008-0.062-0.018-0.09-0.027c-0.229-0.082-0.375-0.51-0.435-1.289c-0.02-0.24-0.035-0.529-0.045-0.869
			c0-0.359,0-0.549,0-0.57c-0.11-1.756-0.185-3.988-0.225-6.697c-0.01-0.549-0.03-1.287-0.06-2.217
			c-0.051-0.068-0.051-0.178,0-0.328c-0.12-3.957-0.051-6.889,0.209-8.795c0.021-0.15,0.085-0.289,0.195-0.42
			c0.119-0.129,0.249-0.195,0.388-0.195c1.279-0.039,2.309,0.234,3.088,0.824c0.898,0.67,1.253,1.623,1.063,2.863
			c-0.279,1.838-1.304,3.504-3.071,5.002c1.338-0.029,2.342,0.307,3.012,1.004C114.351,263.193,115.005,264.957,115.135,267.244z
			 M112.453,255.738c-0.099-1.549-1.179-2.361-3.235-2.441c-0.19,1.707-0.235,4.215-0.137,7.52
			C111.44,259.189,112.563,257.496,112.453,255.738z M109.607,272.639c1.997,0.289,3.38-0.365,4.149-1.965
			c0.668-1.416,0.719-3.09,0.15-5.018c-0.48-1.639-1.074-2.678-1.783-3.117c-0.749-0.459-1.748-0.633-2.997-0.523
			c0.011,0.549,0.021,1.023,0.03,1.422c0.04,2.639,0.104,4.746,0.194,6.322C109.452,271.619,109.536,272.576,109.607,272.639z"/>
		<path fill="#FFFFFF" d="M122.207,272.338c0.279-0.051,0.374,0.096,0.284,0.434c-0.09,0.35-0.25,0.551-0.479,0.6
			c-1.928,0.359-3.491,0.459-4.689,0.299c-0.14-0.018-0.215-0.119-0.225-0.299c-0.21-7.59-0.165-14.402,0.135-20.436
			c0.01-0.18,0.064-0.344,0.165-0.494c0.12-0.158,0.265-0.244,0.435-0.254c0.488-0.039,1.868-0.039,4.135,0
			c0.24,0.01,0.29,0.186,0.149,0.523c-0.13,0.35-0.309,0.525-0.539,0.525c-2.007-0.029-3.191-0.039-3.551-0.029
			c-0.069,1.627-0.104,4.113-0.104,7.461c0.03,0,1.069-0.061,3.116-0.182c0.239-0.02,0.289,0.145,0.149,0.496
			c-0.13,0.35-0.31,0.527-0.539,0.537c-0.141,0.012-0.595,0.057-1.364,0.137c-0.559,0.061-1.014,0.084-1.362,0.074
			c0,0.799-0.006,1.443-0.015,1.932c-0.031,3.396-0.04,5.51-0.031,6.338c0,0.031-0.009,0.24-0.029,0.629
			c-0.02,0.361-0.025,0.66-0.015,0.898c0.021,0.771,0.185,1.164,0.494,1.186C119.305,272.771,120.599,272.648,122.207,272.338z"/>
		<path fill="#FFFFFF" d="M132.334,252.158c1.728,0.029,2.996,0.699,3.806,2.008c0.709,1.146,0.993,2.641,0.854,4.479
			c-0.109,1.559-0.484,2.857-1.123,3.895c-0.75,1.209-1.798,1.928-3.146,2.158c0.069,3.605,0.109,6.479,0.12,8.615
			c0,0.229-0.13,0.439-0.39,0.629c-0.27,0.189-0.404,0.129-0.404-0.18c-0.011-2.238-0.065-5.719-0.165-10.443
			c-0.091-4.564-0.141-8.039-0.149-10.426c0-0.172,0.054-0.336,0.164-0.496C132.019,252.229,132.164,252.148,132.334,252.158z
			 M132.708,263.738c1.499-0.148,2.537-1.02,3.117-2.605c0.479-1.328,0.563-2.799,0.254-4.406c-0.409-2.117-1.588-3.285-3.535-3.506
			C132.554,255.527,132.608,259.033,132.708,263.738z"/>
		<path fill="#FFFFFF" d="M144.109,272.787c0.04,0.221-0.065,0.449-0.313,0.689c-0.262,0.25-0.416,0.244-0.466-0.016
			c-0.209-1.059-0.479-2.4-0.809-4.029c-0.479-2.326-0.754-3.67-0.824-4.029c-0.38,0.01-0.894,0.035-1.543,0.074
			c-0.77,0.039-1.288,0.061-1.558,0.061c-0.28,3.246-0.54,5.777-0.779,7.596c-0.04,0.26-0.189,0.438-0.449,0.537
			c-0.27,0.111-0.38-0.004-0.331-0.342c0.101-0.74,0.356-3.393,0.765-7.957c-0.01-0.059-0.004-0.129,0.016-0.209
			c0.1-1.049,0.199-1.977,0.299-2.787c0.26-2.098,0.725-5.26,1.394-9.482c0.021-0.16,0.146-0.33,0.374-0.51
			c0.241-0.191,0.375-0.166,0.405,0.074c0.44,3.127,1.148,7.121,2.127,11.984c0.051,0.061,0.065,0.141,0.046,0.24
			c0.09,0.42,0.364,1.773,0.823,4.061C143.625,270.391,143.899,271.738,144.109,272.787z M138.687,264.531
			c0.35-0.008,0.818-0.029,1.407-0.059c0.72-0.039,1.189-0.064,1.409-0.074c-0.71-3.518-1.259-6.521-1.648-9.02
			c-0.539,3.295-0.889,5.842-1.049,7.641C138.776,263.359,138.736,263.863,138.687,264.531z"/>
		<path fill="#FFFFFF" d="M152.395,273.461c0.279-0.029,0.374,0.125,0.284,0.465c-0.09,0.35-0.249,0.533-0.479,0.555
			c-1.038,0.119-1.667-0.455-1.888-1.725c-0.079-0.508-0.09-1.932-0.029-4.27c0.06-1.977-0.1-3.398-0.48-4.27
			c-0.539-1.277-1.612-1.867-3.22-1.768c0.079,5.395,0.12,8.869,0.12,10.428v0.029v0.449c0,0.24-0.136,0.455-0.405,0.646
			c-0.279,0.189-0.42,0.129-0.42-0.182c0-1.717-0.04-5.203-0.119-10.457c-0.06-4.354-0.07-7.84-0.03-10.457
			c0-0.17,0.055-0.334,0.165-0.494c0.129-0.189,0.274-0.273,0.435-0.254c1.248,0.139,2.166,0.619,2.757,1.438
			c0.548,0.77,0.788,1.799,0.718,3.086c-0.079,1.398-0.329,2.457-0.748,3.176c-0.221,0.381-0.729,0.904-1.528,1.574
			c2.337,0.17,3.545,1.854,3.625,5.047c0,0.131-0.04,0.682-0.119,1.65c-0.07,0.979-0.101,1.777-0.091,2.396
			c0.04,2.057,0.06,3.086,0.06,3.086S151.466,273.561,152.395,273.461z M148.993,256.697c-0.05-1.898-0.868-3.031-2.457-3.4
			c-0.02,2.266-0.01,4.939,0.03,8.016c0.18-0.18,0.414-0.4,0.704-0.66c0.409-0.359,0.649-0.574,0.72-0.645
			C148.698,259.359,149.033,258.256,148.993,256.697z"/>
		<path fill="#FFFFFF" d="M159.735,272.338c0.279-0.051,0.375,0.096,0.285,0.434c-0.091,0.35-0.251,0.551-0.48,0.6
			c-1.927,0.359-3.49,0.459-4.689,0.299c-0.139-0.018-0.215-0.119-0.225-0.299c-0.209-7.59-0.164-14.402,0.135-20.436
			c0.011-0.18,0.064-0.344,0.165-0.494c0.12-0.158,0.265-0.244,0.435-0.254c0.489-0.039,1.868-0.039,4.135,0
			c0.24,0.01,0.29,0.186,0.15,0.523c-0.131,0.35-0.311,0.525-0.539,0.525c-2.008-0.029-3.192-0.039-3.551-0.029
			c-0.07,1.627-0.105,4.113-0.105,7.461c0.03,0,1.068-0.061,3.116-0.182c0.24-0.02,0.29,0.145,0.149,0.496
			c-0.129,0.35-0.309,0.527-0.539,0.537c-0.14,0.012-0.594,0.057-1.363,0.137c-0.56,0.061-1.014,0.084-1.363,0.074
			c0,0.799-0.006,1.443-0.015,1.932c-0.03,3.396-0.04,5.51-0.03,6.338c0,0.031-0.01,0.24-0.03,0.629
			c-0.02,0.361-0.024,0.66-0.015,0.898c0.02,0.771,0.185,1.164,0.495,1.186C156.833,272.771,158.127,272.648,159.735,272.338z"/>
		<path fill="#FFFFFF" d="M168.62,252.037c0.189,5.715,0.494,12.789,0.914,21.23c0.009,0.188-0.105,0.395-0.346,0.613
			c-0.24,0.229-0.395,0.215-0.465-0.045c-0.658-2.387-1.652-5.424-2.98-9.109c-1.777-4.953-2.847-7.975-3.207-9.064
			c0.141,6.902,0.36,12.771,0.66,17.605c0.01,0.24-0.119,0.453-0.39,0.643s-0.414,0.131-0.435-0.18
			c-0.33-5.402-0.57-12.379-0.719-20.928c0-0.191,0.114-0.395,0.345-0.615c0.229-0.23,0.384-0.215,0.464,0.045
			c0.639,2.137,1.638,5.074,2.996,8.811c1.488,4.113,2.508,7.039,3.057,8.779c-0.32-6.654-0.555-12.432-0.703-17.336
			c-0.012-0.24,0.119-0.455,0.389-0.645C168.47,251.654,168.608,251.717,168.62,252.037z"/>
		<path fill="#FFFFFF" d="M178.147,252.172c0.24,0,0.289,0.17,0.15,0.51c-0.131,0.35-0.305,0.525-0.525,0.525
			c-0.41,0-0.959,0.01-1.647,0.029c-0.819,0.031-1.368,0.049-1.647,0.061c0.008,3.018,0.164,9.717,0.465,20.105
			c0.009,0.229-0.121,0.439-0.391,0.629s-0.41,0.129-0.42-0.18c-0.3-10.566-0.453-17.395-0.465-20.48
			c0-0.01,0.006-0.029,0.016-0.061c-1.408,0.072-2.223-0.049-2.441-0.359c-0.13-0.18-0.08-0.414,0.15-0.705
			c0.219-0.289,0.398-0.332,0.539-0.133c0.129,0.18,0.6,0.26,1.408,0.24c0.239,0,0.539-0.016,0.898-0.047
			c0.359-0.02,0.564-0.035,0.615-0.045c0.279,0,0.828-0.016,1.646-0.045C177.188,252.197,177.737,252.182,178.147,252.172z"/>
		<path fill="#FFFFFF" d="M185.713,252.697c0.18,0.139,0.175,0.369-0.015,0.688c-0.189,0.322-0.375,0.412-0.555,0.271
			c-1.547-1.15-2.672-1.219-3.371-0.211c-0.359,0.51-0.59,1.119-0.689,1.828c-0.1,0.689-0.064,1.338,0.105,1.949
			c0.41,1.387,1.318,2.781,2.727,4.178c1.359,1.35,2.307,2.492,2.848,3.432c0.809,1.398,1.098,2.838,0.868,4.316
			c-0.19,1.166-0.554,2.236-1.093,3.205c-0.74,1.328-1.614,1.902-2.623,1.723c-0.938-0.18-1.433-0.754-1.482-1.723
			c-0.031-0.801,0.199-1.613,0.688-2.441c0.17-0.291,0.354-0.381,0.554-0.271c0.19,0.109,0.2,0.314,0.03,0.615
			c-0.618,1.029-0.694,1.809-0.224,2.336c0.219,0.24,0.469,0.389,0.748,0.449c0.31,0.061,0.595,0.006,0.854-0.164
			c0.769-0.488,1.304-1.328,1.603-2.518c0.279-1.088,0.295-2.105,0.045-3.055c-0.319-1.209-1.078-2.453-2.277-3.73
			c-1.657-1.758-2.631-2.861-2.92-3.313c-0.66-1.02-1.074-2.072-1.244-3.16c-0.189-1.229-0.021-2.338,0.51-3.326
			c0.559-1.059,1.273-1.684,2.142-1.871C183.821,251.715,184.744,251.977,185.713,252.697z"/>
	</g>
</g>
<g>
	<path fill="#248E79" d="M156.913,480.94c-2.229,3.133-24.276,8.824-24.276,8.824s-13.953-5.691-11.725-8.824
		c2.229-3.132,12.094-5.672,22.035-5.672S159.141,477.809,156.913,480.94z"/>
	<path fill="#FFFFFF" d="M150.637,461.763c0,9.941-18,28.001-18,28.001s-18-18.06-18-28.001s8.059-18,18-18
		S150.637,451.821,150.637,461.763z"/>
	<text transform="matrix(1 0 0 1 123.3008 474.2188)" fill="#37B39C" font-family="'Helvetica-Bold'" font-size="31.5485">1</text>
</g>
<g>
	<path fill="#248E79" d="M156.971,388.559c-2.229,3.133-24.276,8.824-24.276,8.824s-13.952-5.691-11.724-8.824
		c2.228-3.132,12.094-5.672,22.034-5.672C152.946,382.887,159.199,385.427,156.971,388.559z"/>
	<path fill="#37B39C" d="M150.578,369.423c0,9.941-18,28.001-18,28.001s-18-18.06-18-28.001s8.059-18,18-18
		S150.578,359.481,150.578,369.423z"/>
	<g>
		<text transform="matrix(1 0 0 1 124.2422 380.8799)" fill="#FFFFFF" font-family="'Helvetica-Bold'" font-size="31.5485">3</text>
	</g>
</g>
</svg>
