<svg width="399.5" height="822" xmlns="http://www.w3.org/2000/svg">
 <g>
  <title>Layer 1</title>
  <g id="svg_137">
   <g id="svg_138">
    <path id="svg_139" d="m311.05399,106.113c-0.146,-0.441 -0.55899,-0.738 -1.021,-0.738h-30.854l-6.082,-33.65c0.79102,-0.998 1.27002,-2.258 1.27002,-3.629c0,-3.225 -2.625,-5.848 -5.85001,-5.848c-1.836,0 -3.47501,0.852 -4.547,2.178l-16.563,1.98199c0.131,-0.129 0.26201,-0.266 0.381,-0.41399c1.65601,-2.049 1.26201,-5.014 1.244,-5.139c-0.061,-0.422 -0.439,-0.723 -0.85699,-0.693c-0.127,0.01 -3.10901,0.246 -4.76401,2.293c-0.25999,0.32 -0.463,0.664 -0.631,1.016c-0.168,-0.352 -0.373,-0.695 -0.631,-1.016c-1.65401,-2.047 -4.63701,-2.283 -4.76401,-2.293c-0.424,-0.029 -0.799,0.273 -0.85699,0.693c-0.01801,0.125 -0.412,3.09 1.242,5.139c1.10199,1.361 2.78499,1.92 3.83,2.146c0.006,0.102 0.02699,0.201 0.06099,0.295l-8.09,31.389c-0.00999,0.041 -0.117,0.605 -0.211,1.098c-0.06599,0.348 -0.125,0.658 -0.13699,0.709c-0.01001,0.041 -0.01801,0.082 -0.02101,0.125c-0.11099,0.592 -0.17,1.193 -0.17,1.789c0,5.252 4.27299,9.527 9.52701,9.527s9.52699,-4.275 9.52699,-9.527c0,-0.98 -0.14301,-2.477 -0.439,-3.387l-7.80501,-30.893l19.799,2.055c0.86102,1.297 2.22501,2.23 3.811,2.523l0.40399,32.703c0,0.057 0.01401,0.11501 0.02301,0.172c0.01999,1.74 0.39801,9.568 5.48801,14.77499c2.42801,2.482 5.543,3.97301 9.28699,4.44901v43.467h2.15402v-43.309c0.19299,0.004 0.38699,0.012 0.58398,0.012c0.35699,0 0.703,-0.012 1.047,-0.025v43.322h2.15399v-43.508c10.98203,-1.463 14.47302,-10.318 15.729,-13.764c0.82602,-0.664 4.22101,-3.225 6.35501,-4.824c0.37299,-0.276 0.52499,-0.76 0.37698,-1.2l0,0l0,0l0,0l0,0l0,0l0,0zm-8.65997,5.03c-1.996,5.502 -5.93002,12.816 -17,12.816c-4.37701,0 -7.90002,-1.334 -10.47501,-3.961c-4.63501,-4.73 -4.87701,-12.275 -4.88501,-13.42l0.02499,0.004l-0.02499,-0.1c0,-0.029 0,-0.053 0,-0.057c0.00201,-0.08801 -0.01001,-0.172 -0.02701,-0.25401l-0.39999,-32.332c0.55899,-0.105 1.09201,-0.293 1.58401,-0.547l5.80099,32.082h-2.76801c-0.297,0 -0.582,0.125 -0.785,0.342s-0.30899,0.508 -0.289,0.805c0.293,4.521 3.17599,13.07 12,13.07c8.46899,0 11.52002,-8.416 11.54901,-8.5c0.19699,-0.561 -0.09799,-1.176 -0.66,-1.373c-0.561,-0.197 -1.17401,0.098 -1.37302,0.66c-0.02298,0.07 -2.55698,7.061 -9.51599,7.061c-7.35001,0 -9.24399,-7.068 -9.70898,-9.91h31.36099c-4.258,3.2 -4.28299,3.268 -4.40799,3.614l0,0l0,0l0,0l0,0l0,0l0,0zm-51.92201,-7.598c0,4.361 -3.549,7.912 -7.912,7.912s-7.912,-3.551 -7.912,-7.912c0,-0.518 0.05301,-1.041 0.15601,-1.557c0.004,-0.02 0.006,-0.039 0.008,-0.059c0.01801,-0.098 0.07401,-0.387 0.13501,-0.707c0.086,-0.453 0.18599,-0.971 0.19299,-1.016l7.502,-29.104l7.455,29.502c0.244,0.75301 0.375,2.076 0.375,2.941zm-9.58,-40.074c0.76201,0.941 0.922,2.23 0.938,3.066c-0.813,-0.189 -2.041,-0.617 -2.80099,-1.55901s-0.92201,-2.229 -0.936,-3.063c0.812,0.19 2.045,0.622 2.799,1.556l0,0l0,0l0,0l0,0l0,0l0,0zm6.576,-1.557c-0.01401,0.834 -0.17599,2.123 -0.936,3.064c-0.76199,0.939 -1.98599,1.369 -2.799,1.55701c0.01599,-0.83601 0.17799,-2.12901 0.93401,-3.064c0.76199,-0.942 1.98799,-1.369 2.80099,-1.557l0,0l0,0l0,0l0,0l0,0l0,0zm21.049,9.877c-2.039,0 -3.69501,-1.658 -3.69501,-3.695s1.65601,-3.693 3.69501,-3.693c2.03699,0 3.69501,1.656 3.69501,3.693s-1.65802,3.695 -3.69501,3.695z" fill="#37B39C"/>
    <circle id="svg_140" r="1.068" cy="67.783" cx="268.073" fill="#37B39C"/>
   </g>
   <g id="svg_141">
    <path id="svg_142" d="m118.795,120.305c0.371,0 0.44901,0.264 0.232,0.789c-0.201,0.541 -0.473,0.811 -0.813,0.811c-0.63499,0 -1.48199,0.016 -2.549,0.047c-1.268,0.047 -2.117,0.076 -2.549,0.092c0.014,4.668 0.25401,15.035 0.717,31.105c0.016,0.355 -0.184,0.67999 -0.602,0.97299c-0.416,0.293 -0.633,0.201 -0.648,-0.27699c-0.465,-16.34801 -0.703,-26.91 -0.719,-31.684c0,-0.01601 0.006,-0.047 0.023,-0.094c-2.18,0.109 -3.439,-0.076 -3.779,-0.557c-0.201,-0.277 -0.123,-0.641 0.23199,-1.09c0.34,-0.447 0.617,-0.516 0.83401,-0.207c0.201,0.277 0.92699,0.402 2.17999,0.371c0.372,0 0.83401,-0.023 1.389,-0.07c0.55901,-0.031 0.875,-0.055 0.951,-0.07c0.434,0 1.282,-0.023 2.549,-0.068c1.069,-0.032 1.91901,-0.056 2.552,-0.071l0,0l0,0l0,0l0,0l0,0l0,0z" fill="#1D1D1B"/>
    <path id="svg_143" d="m130.478,139.98199c0.185,5.084 -0.58099,8.877 -2.29599,11.38101c-0.74001,1.06599 -1.53701,1.90799 -2.38701,2.52699c-1.252,0.91 -2.295,1.004 -3.131,0.27701c-1.219,-1.06601 -2.086,-3.33801 -2.594,-6.81401c-1.563,-10.521 -1.391,-19.09 0.508,-25.703c0.078,-0.232 0.209,-0.418 0.396,-0.557v-0.023c2.332,-2.039 4.334,-1.639 6.003,1.205c1.019,1.746 1.84501,4.258 2.478,7.533c0.55901,2.936 0.836,4.40201 0.836,4.40201s0.062,1.92499 0.187,5.77199l0,0zm-2.62099,9.82901c1.236,-2.48801 1.615,-6.436 1.137,-11.84401c-0.326,-3.59999 -0.59601,-5.957 -0.813,-7.06999c-1.576,-7.941 -3.754,-10.87701 -6.537,-8.80701c-1.451,5.301 -1.645,12.662 -0.578,22.088c0.402,3.61501 0.965,6.04901 1.691,7.30101c0.711,1.252 1.62299,1.592 2.73599,1.01999c0.927,-0.47899 1.716,-1.37599 2.36401,-2.68799l0,0l0,0l0,0z" fill="#1D1D1B"/>
    <path id="svg_144" d="m155.717,143.623c0.15401,3.02699 -0.57799,5.51601 -2.20099,7.463c-1.76201,2.117 -4.119,2.94301 -7.07001,2.479c-0.045,-0.01401 -0.093,-0.02901 -0.13899,-0.045c-0.35501,-0.125 -0.57901,-0.789 -0.67201,-1.994c-0.03099,-0.371 -0.05499,-0.81801 -0.06999,-1.34399c0,-0.55701 0,-0.85001 0,-0.88101c-0.17,-2.71899 -0.285,-6.172 -0.34801,-10.36099c-0.01399,-0.85001 -0.045,-1.992 -0.092,-3.43001c-0.078,-0.10699 -0.078,-0.27699 0,-0.50999c-0.186,-6.119 -0.078,-10.654 0.32401,-13.605c0.03099,-0.23199 0.131,-0.447 0.30099,-0.64799c0.186,-0.201 0.38699,-0.303 0.603,-0.303c1.978,-0.061 3.569,0.363 4.776,1.275c1.39,1.035 1.938,2.512 1.645,4.428c-0.43201,2.84399 -2.01601,5.424 -4.752,7.73999c2.06999,-0.045 3.623,0.47301 4.66,1.55301c1.82199,1.91499 2.834,4.644 3.03499,8.183l0,0l0,0l0,0l0,0l0,0l0,0zm-4.149,-17.801c-0.15399,-2.396 -1.82399,-3.654 -5.006,-3.779c-0.29399,2.643 -0.36299,6.521 -0.20999,11.63499c3.64799,-2.51799 5.386,-5.13699 5.21599,-7.856l0,0l0,0l0,0l0,0l0,0l0,0zm-4.40399,26.145c3.092,0.44701 5.23,-0.564 6.42,-3.037c1.035,-2.19299 1.11301,-4.78099 0.23199,-7.76399c-0.74199,-2.535 -1.65999,-4.14301 -2.758,-4.82201c-1.158,-0.711 -2.705,-0.98 -4.63499,-0.81099c0.01399,0.84999 0.02899,1.584 0.045,2.20099c0.063,4.08 0.162,7.34001 0.30099,9.78101c0.157,2.87601 0.28801,4.358 0.395,4.452l0,0l0,0l0,0l0,0l0,0l0,0z" fill="#1D1D1B"/>
    <path id="svg_145" d="m166.658,151.502c0.43199,-0.076 0.57799,0.14799 0.439,0.672c-0.13901,0.541 -0.38699,0.85201 -0.742,0.92801c-2.98199,0.55699 -5.39999,0.711 -7.25299,0.463c-0.218,-0.02901 -0.33301,-0.18401 -0.349,-0.463c-0.32401,-11.744 -0.25601,-22.28101 0.209,-31.61501c0.015,-0.277 0.09999,-0.533 0.254,-0.764c0.18599,-0.248 0.41,-0.379 0.672,-0.395c0.756,-0.061 2.89101,-0.061 6.39799,0c0.371,0.016 0.44701,0.28699 0.231,0.811c-0.202,0.541 -0.479,0.813 -0.83499,0.813c-3.10501,-0.047 -4.938,-0.063 -5.492,-0.047c-0.10901,2.52 -0.162,6.36501 -0.162,11.543c0.045,0 1.65199,-0.09399 4.82001,-0.27899c0.37099,-0.02901 0.44699,0.22499 0.23,0.76599c-0.19901,0.541 -0.478,0.81801 -0.834,0.834c-0.21701,0.01601 -0.918,0.086 -2.10901,0.209c-0.86499,0.09401 -1.56799,0.131 -2.10699,0.11501c0,1.23599 -0.00999,2.23399 -0.02299,2.98999c-0.04701,5.25401 -0.063,8.52301 -0.04701,9.80501c0,0.047 -0.01599,0.371 -0.047,0.97299c-0.03099,0.55701 -0.039,1.02 -0.02299,1.39101c0.03101,1.19099 0.287,1.80099 0.76601,1.832c1.51399,0.09 3.51599,-0.10201 6.004,-0.582l0,0l0,0l0,0l0,0l0,0l0,0z" fill="#1D1D1B"/>
    <path id="svg_146" d="m182.326,120.283c2.672,0.04501 4.63499,1.08 5.88699,3.105c1.09601,1.775 1.537,4.086 1.32001,6.92999c-0.17,2.41 -0.748,4.42001 -1.73801,6.02501c-1.158,1.871 -2.78099,2.98199 -4.867,3.338c0.10701,5.578 0.17001,10.021 0.186,13.328c0,0.355 -0.201,0.67999 -0.60201,0.97299c-0.418,0.293 -0.627,0.201 -0.627,-0.27699c-0.01599,-3.463 -0.09999,-8.84601 -0.254,-16.15601c-0.14099,-7.06099 -0.21899,-12.438 -0.23199,-16.131c0,-0.264 0.084,-0.518 0.254,-0.766c0.185,-0.261 0.41,-0.384 0.673,-0.369l0,0l0,0l0,0l0,0l0,0l0,0zm0.578,17.91601c2.31799,-0.23201 3.924,-1.578 4.823,-4.033c0.739,-2.05501 0.87,-4.328 0.392,-6.814c-0.63301,-3.27499 -2.457,-5.084 -5.46901,-5.424c0.01401,3.568 0.10001,8.992 0.25401,16.271l0,0z" fill="#1D1D1B"/>
    <path id="svg_147" d="m200.543,152.19701c0.063,0.34 -0.10201,0.69499 -0.48599,1.06599c-0.40201,0.38699 -0.64301,0.379 -0.71901,-0.02299c-0.32399,-1.63701 -0.742,-3.71501 -1.252,-6.23401c-0.742,-3.59999 -1.166,-5.67799 -1.274,-6.23399c-0.58699,0.01599 -1.384,0.05499 -2.388,0.11499c-1.189,0.063 -1.99199,0.09401 -2.40999,0.09401c-0.43401,5.02101 -0.83401,8.93901 -1.205,11.75c-0.06299,0.40199 -0.293,0.67999 -0.69501,0.834c-0.418,0.17001 -0.588,-0.008 -0.511,-0.53101c0.155,-1.14499 0.55,-5.248 1.183,-12.30899c-0.01599,-0.09201 -0.008,-0.20099 0.02301,-0.32401c0.15399,-1.623 0.30899,-3.05901 0.463,-4.311c0.40199,-3.246 1.12199,-8.13699 2.15599,-14.672c0.03102,-0.248 0.22502,-0.51 0.578,-0.787c0.373,-0.295 0.58,-0.256 0.627,0.11501c0.68001,4.836 1.77701,11.01801 3.291,18.54099c0.078,0.09399 0.10002,0.21701 0.07001,0.371c0.13899,0.64798 0.563,2.74399 1.274,6.28099c0.52499,2.54901 0.95099,4.63701 1.27499,6.25801l0,0zm-8.39101,-12.77101c0.541,-0.01399 1.26801,-0.045 2.17801,-0.092c1.11299,-0.061 1.84,-0.10001 2.17999,-0.11501c-1.09799,-5.43901 -1.94699,-10.09001 -2.54901,-13.953c-0.834,5.09799 -1.377,9.03899 -1.62299,11.81999c-0.04701,0.52499 -0.108,1.30702 -0.186,2.34001z" fill="#1D1D1B"/>
    <path id="svg_148" d="m213.36,153.24001c0.43401,-0.04701 0.58,0.19299 0.44099,0.71899c-0.13899,0.541 -0.38699,0.826 -0.74199,0.85699c-1.60701,0.186 -2.58,-0.70299 -2.92,-2.666c-0.123,-0.78699 -0.13901,-2.98799 -0.04701,-6.605c0.09401,-3.05901 -0.15399,-5.25999 -0.74199,-6.605c-0.834,-1.97701 -2.494,-2.88901 -4.98201,-2.73401c0.123,8.34401 0.186,13.72101 0.186,16.13101v0.047v0.69499c0,0.371 -0.209,0.703 -0.625,0.998c-0.43401,0.293 -0.64999,0.19901 -0.64999,-0.27899c0,-2.65601 -0.061,-8.05101 -0.18401,-16.17801c-0.09399,-6.73599 -0.10901,-12.129 -0.047,-16.17799c0,-0.264 0.084,-0.518 0.254,-0.766c0.201,-0.293 0.42599,-0.424 0.672,-0.39301c1.93201,0.215 3.354,0.957 4.26601,2.22501c0.84999,1.189 1.22099,2.781 1.11099,4.77299c-0.123,2.16401 -0.50999,3.803 -1.158,4.91401c-0.34,0.588 -1.127,1.39799 -2.36299,2.43399c3.61501,0.26401 5.48399,2.867 5.60699,7.811c0,0.201 -0.06099,1.05299 -0.18399,2.55099c-0.10901,1.51401 -0.15601,2.75 -0.14101,3.707c0.063,3.18401 0.092,4.77501 0.092,4.77501s0.72101,-0.078 2.15601,-0.233l0,0l0,0l0,0l0,0l0,0zm-5.259,-25.93501c-0.078,-2.936 -1.34399,-4.689 -3.80099,-5.262c-0.03101,3.508 -0.01601,7.64301 0.045,12.39999c0.27699,-0.27699 0.64099,-0.61699 1.09,-1.01999c0.633,-0.55701 1.004,-0.88901 1.11301,-0.996c1.09599,-1.00301 1.61299,-2.71201 1.55299,-5.122l0,0l0,0l0,0l0,0l0,0l0,0z" fill="#1D1D1B"/>
    <path id="svg_149" d="m224.718,151.502c0.43199,-0.076 0.58,0.14799 0.44099,0.672c-0.14099,0.541 -0.38899,0.85201 -0.744,0.92801c-2.98,0.55699 -5.39799,0.711 -7.254,0.463c-0.215,-0.02901 -0.332,-0.18401 -0.34799,-0.463c-0.32401,-11.744 -0.254,-22.28101 0.209,-31.61501c0.01599,-0.277 0.09999,-0.533 0.256,-0.764c0.186,-0.248 0.408,-0.379 0.672,-0.395c0.756,-0.061 2.88901,-0.061 6.396,0c0.371,0.016 0.44901,0.28699 0.23201,0.811c-0.201,0.541 -0.48,0.813 -0.834,0.813c-3.10701,-0.047 -4.938,-0.063 -5.494,-0.047c-0.10699,2.52 -0.162,6.36501 -0.162,11.543c0.047,0 1.65201,-0.09399 4.82001,-0.27899c0.371,-0.02901 0.44899,0.22499 0.23199,0.76599c-0.201,0.541 -0.479,0.81801 -0.834,0.834c-0.217,0.01601 -0.92,0.086 -2.10899,0.209c-0.867,0.09401 -1.56801,0.131 -2.10901,0.11501c0,1.23599 -0.00999,2.23399 -0.02299,2.98999c-0.047,5.25401 -0.061,8.52301 -0.047,9.80501c0,0.047 -0.01401,0.371 -0.045,0.97299c-0.03101,0.55701 -0.039,1.02 -0.02301,1.39101c0.03101,1.19099 0.285,1.80099 0.76601,1.832c1.51199,0.09 3.513,-0.10201 6.002,-0.582l0,0l0,0l0,0l0,0l0,0l0,0z" fill="#1D1D1B"/>
    <path id="svg_150" d="m238.46201,120.096c0.295,8.84 0.76599,19.78699 1.414,32.844c0.01599,0.293 -0.162,0.61099 -0.533,0.951c-0.371,0.35399 -0.60901,0.332 -0.71901,-0.07001c-1.01999,-3.69299 -2.55699,-8.39101 -4.61099,-14.092c-2.75,-7.664 -4.40401,-12.33801 -4.961,-14.023c0.217,10.678 0.55699,19.756 1.021,27.234c0.01401,0.371 -0.186,0.703 -0.604,0.996s-0.64099,0.20099 -0.672,-0.27701c-0.50999,-8.35899 -0.883,-19.15199 -1.11299,-32.379c0,-0.295 0.17799,-0.611 0.53299,-0.951c0.35501,-0.355 0.59601,-0.332 0.71901,0.07c0.98799,3.307 2.53299,7.84999 4.63699,13.629c2.30099,6.36501 3.877,10.89301 4.729,13.582c-0.496,-10.293 -0.85901,-19.23 -1.09,-26.818c-0.01601,-0.371 0.18399,-0.703 0.60199,-0.996s0.632,-0.194 0.64801,0.3l0,0l0,0l0,0l0,0l0,0l0,0z" fill="#1D1D1B"/>
    <path id="svg_151" d="m253.20399,120.305c0.36899,0 0.44699,0.264 0.23,0.789c-0.201,0.541 -0.47099,0.811 -0.813,0.811c-0.633,0 -1.48,0.016 -2.547,0.047c-1.26801,0.047 -2.119,0.076 -2.55099,0.092c0.01399,4.668 0.25601,15.035 0.71899,31.105c0.01601,0.355 -0.186,0.67999 -0.60201,0.97299c-0.418,0.293 -0.63499,0.20099 -0.64999,-0.27699c-0.463,-16.34801 -0.703,-26.91 -0.71899,-31.684c0,-0.01601 0.00801,-0.047 0.02299,-0.094c-2.17799,0.109 -3.438,-0.076 -3.77701,-0.557c-0.20099,-0.277 -0.125,-0.641 0.23201,-1.09c0.34,-0.447 0.617,-0.516 0.834,-0.207c0.201,0.277 0.92799,0.402 2.17799,0.371c0.37099,0 0.836,-0.023 1.39101,-0.07c0.55699,-0.031 0.873,-0.055 0.951,-0.07c0.43198,0 1.28299,-0.023 2.549,-0.068c1.06801,-0.032 1.91701,-0.056 2.552,-0.071z" fill="#1D1D1B"/>
    <path id="svg_152" d="m264.90701,121.115c0.27899,0.217 0.271,0.572 -0.02103,1.066c-0.29498,0.496 -0.57999,0.635 -0.85699,0.418c-2.396,-1.777 -4.13498,-1.885 -5.21698,-0.324c-0.55502,0.78699 -0.91202,1.73 -1.06601,2.828c-0.15399,1.066 -0.10001,2.07 0.164,3.01401c0.633,2.146 2.039,4.30299 4.21701,6.465c2.10199,2.086 3.56998,3.855 4.40399,5.30901c1.25198,2.16399 1.69901,4.38899 1.34399,6.67599c-0.29501,1.80699 -0.85699,3.461 -1.69101,4.959c-1.14499,2.05499 -2.496,2.94299 -4.05698,2.666c-1.45102,-0.27901 -2.21701,-1.166 -2.29501,-2.666c-0.04501,-1.23601 0.311,-2.494 1.06601,-3.77701c0.26398,-0.44899 0.54898,-0.588 0.85699,-0.418c0.29498,0.17001 0.311,0.48601 0.047,0.951c-0.957,1.592 -1.07401,2.797 -0.34799,3.61501c0.34,0.371 0.72699,0.60199 1.16,0.69499c0.47897,0.09201 0.918,0.00801 1.31998,-0.256c1.189,-0.756 2.01602,-2.05499 2.479,-3.89301c0.43399,-1.68399 0.457,-3.25999 0.07001,-4.72899c-0.49399,-1.869 -1.668,-3.793 -3.521,-5.77101c-2.56601,-2.71899 -4.07199,-4.42599 -4.52002,-5.12299c-1.021,-1.576 -1.66199,-3.205 -1.92398,-4.88901c-0.29501,-1.902 -0.03302,-3.617 0.78699,-5.146c0.86502,-1.639 1.97101,-2.604 3.314,-2.896c1.36002,-0.293 2.79001,0.115 4.28802,1.226l0,0l0,0l0,0l0,0l0,0l0,0z" fill="#1D1D1B"/>
   </g>
   <g id="svg_153">
    <path id="svg_154" d="m134.619,96.783h-0.836v-5.924h-3.84801v5.924h-0.83499v-6.43h5.51999v6.43l-0.00099,0z" fill="#989899"/>
    <path id="svg_155" d="m140.939,94.496c0,0.318 -0.05699,0.623 -0.166,0.914c-0.11099,0.29099 -0.26799,0.547 -0.47299,0.768s-0.453,0.395 -0.744,0.52299s-0.617,0.193 -0.979,0.193c-0.36699,0 -0.69899,-0.06599 -0.998,-0.199c-0.295,-0.131 -0.547,-0.307 -0.752,-0.527s-0.36499,-0.477 -0.476,-0.768c-0.116,-0.291 -0.173,-0.592 -0.173,-0.904c0,-0.318 0.05701,-0.623 0.173,-0.914c0.11,-0.291 0.271,-0.547 0.476,-0.766c0.205,-0.221 0.457,-0.396 0.752,-0.529c0.29901,-0.131 0.63101,-0.19701 0.998,-0.19701c0.36101,0 0.688,0.066 0.979,0.19701c0.291,0.133 0.539,0.309 0.744,0.529c0.205,0.219 0.36099,0.475 0.47299,0.766c0.11,0.291 0.166,0.596 0.166,0.914l0,0l0,0l0,0l0,0l0,0l0,0zm-0.873,0c0,-0.428 -0.047,-0.775 -0.13899,-1.043c-0.092,-0.26601 -0.211,-0.473 -0.35699,-0.619s-0.311,-0.246 -0.48801,-0.299s-0.34801,-0.078 -0.51401,-0.078s-0.336,0.025 -0.51399,0.078s-0.342,0.15199 -0.492,0.299s-0.271,0.354 -0.36699,0.619c-0.093,0.268 -0.14301,0.615 -0.14301,1.043c0,0.422 0.05,0.768 0.14301,1.033c0.09599,0.266 0.217,0.473 0.36699,0.619c0.15001,0.14799 0.31401,0.248 0.492,0.299c0.17799,0.053 0.34799,0.078 0.51399,0.078s0.33601,-0.025 0.51401,-0.078c0.17799,-0.05099 0.342,-0.15 0.48801,-0.299c0.146,-0.146 0.26599,-0.354 0.35699,-0.619s0.13899,-0.611 0.13899,-1.033z" fill="#989899"/>
    <path id="svg_156" d="m146.81599,96.416v1.332h-0.64299v-0.965h-4.041v0.965h-0.645v-1.332h0.662l1.71899,-4.225h0.55101l1.76399,4.225h0.633l0,0zm-4.23399,0h2.77499l-1.36899,-3.316h-0.05501l-1.351,3.316l0,0l0,0l0,0l0,0l0,0l0,0z" fill="#989899"/>
    <path id="svg_157" d="m148.424,92.559v4.225h-0.78v-4.592h3.013v0.367h-2.233l0,0z" fill="#989899"/>
    <path id="svg_158" d="m155.965,94.496c0,0.318 -0.05499,0.623 -0.166,0.914c-0.10899,0.29099 -0.26799,0.547 -0.47299,0.768s-0.453,0.395 -0.744,0.52299s-0.617,0.193 -0.979,0.193c-0.367,0 -0.69899,-0.06599 -0.996,-0.199c-0.29599,-0.131 -0.54599,-0.307 -0.752,-0.527c-0.207,-0.221 -0.36499,-0.477 -0.47899,-0.768s-0.17201,-0.592 -0.17201,-0.904c0,-0.318 0.05901,-0.623 0.17201,-0.914s0.271,-0.547 0.47899,-0.766c0.20601,-0.221 0.45601,-0.396 0.752,-0.529c0.29701,-0.131 0.629,-0.19701 0.996,-0.19701c0.36101,0 0.688,0.066 0.979,0.19701c0.291,0.133 0.539,0.309 0.744,0.529c0.205,0.219 0.36299,0.475 0.47299,0.766c0.11101,0.291 0.166,0.596 0.166,0.914l0,0l0,0l0,0l0,0l0,0l0,0zm-0.873,0c0,-0.428 -0.045,-0.775 -0.13899,-1.043c-0.09,-0.26601 -0.209,-0.473 -0.35701,-0.619c-0.146,-0.146 -0.30899,-0.246 -0.48599,-0.299s-0.35001,-0.078 -0.51401,-0.078c-0.166,0 -0.338,0.025 -0.51599,0.078s-0.342,0.15199 -0.49001,0.299c-0.14999,0.146 -0.27299,0.354 -0.36699,0.619c-0.09601,0.268 -0.145,0.615 -0.145,1.043c0,0.422 0.049,0.768 0.145,1.033c0.09399,0.266 0.217,0.473 0.36699,0.619c0.14801,0.14799 0.313,0.248 0.49001,0.299c0.17799,0.053 0.34999,0.078 0.51599,0.078c0.164,0 0.33601,-0.025 0.51401,-0.078c0.17799,-0.05099 0.34,-0.15 0.48599,-0.299c0.14801,-0.146 0.26801,-0.354 0.35701,-0.619c0.09399,-0.265 0.13899,-0.611 0.13899,-1.033z" fill="#989899"/>
    <path id="svg_159" d="m158.44501,92.559h-1.83801v-0.367h4.455v0.367h-1.838v4.225h-0.77899v-4.225l0,0z" fill="#989899"/>
    <path id="svg_160" d="m166.463,94.496c0,0.318 -0.05499,0.623 -0.166,0.914s-0.26799,0.547 -0.47299,0.768s-0.453,0.395 -0.744,0.52299s-0.617,0.193 -0.978,0.193c-0.36801,0 -0.70001,-0.06599 -0.99701,-0.199c-0.297,-0.131 -0.547,-0.307 -0.75299,-0.527c-0.20401,-0.221 -0.364,-0.477 -0.47801,-0.768s-0.17,-0.592 -0.17,-0.904c0,-0.318 0.05701,-0.623 0.17,-0.914s0.27301,-0.547 0.47801,-0.766c0.20599,-0.221 0.45599,-0.396 0.75299,-0.529c0.297,-0.131 0.629,-0.19701 0.99701,-0.19701c0.36,0 0.687,0.066 0.978,0.19701c0.291,0.133 0.539,0.309 0.744,0.529c0.205,0.219 0.36099,0.475 0.47299,0.766s0.166,0.596 0.166,0.914l0,0l0,0l0,0l0,0l0,0l0,0zm-0.873,0c0,-0.428 -0.045,-0.775 -0.13699,-1.043c-0.09201,-0.26601 -0.211,-0.473 -0.35901,-0.619c-0.146,-0.146 -0.30899,-0.246 -0.48599,-0.299s-0.35001,-0.078 -0.51401,-0.078c-0.166,0 -0.338,0.025 -0.51599,0.078s-0.34201,0.15199 -0.49001,0.299c-0.14999,0.146 -0.27299,0.354 -0.367,0.619c-0.09599,0.268 -0.14299,0.615 -0.14299,1.043c0,0.422 0.047,0.768 0.14299,1.033c0.09401,0.266 0.21701,0.473 0.367,0.619c0.14799,0.14799 0.313,0.248 0.49001,0.299c0.17799,0.053 0.34999,0.078 0.51599,0.078c0.164,0 0.336,-0.025 0.51401,-0.078c0.17799,-0.05099 0.34,-0.15 0.48599,-0.299c0.14801,-0.146 0.26801,-0.354 0.35901,-0.619s0.13699,-0.611 0.13699,-1.033z" fill="#989899"/>
    <path id="svg_161" d="m169.58,92.191c0.332,0 0.59799,0.039 0.799,0.119c0.19901,0.08 0.35201,0.176 0.455,0.289c0.105,0.113 0.172,0.23 0.203,0.354s0.045,0.227 0.045,0.313c0,0.152 -0.02701,0.289 -0.088,0.408c-0.05901,0.119 -0.13301,0.225 -0.229,0.313c-0.09399,0.09 -0.203,0.16 -0.326,0.211c-0.121,0.053 -0.24399,0.09 -0.36699,0.11501v0.064c0.129,0.006 0.271,0.027 0.42799,0.064s0.30299,0.1 0.439,0.188c0.13701,0.09 0.25,0.211 0.34001,0.363s0.133,0.346 0.133,0.578c0,0.154 -0.02901,0.303 -0.092,0.445c-0.061,0.145 -0.158,0.273 -0.29301,0.387c-0.13399,0.113 -0.30899,0.205 -0.52299,0.275s-0.47099,0.105 -0.771,0.105h-2.076v-4.592h1.923l0,0.001l0,0l0,0l0,0l0,0l0,0l0,0zm-0.34401,2.084c0.14101,0 0.27501,-0.02 0.40401,-0.059c0.129,-0.041 0.242,-0.09801 0.34,-0.176c0.09801,-0.076 0.17601,-0.168 0.23401,-0.275s0.088,-0.23 0.088,-0.371c0,-0.074 -0.01201,-0.158 -0.033,-0.254c-0.021,-0.094 -0.06599,-0.184 -0.133,-0.27c-0.06801,-0.08601 -0.164,-0.16 -0.289,-0.221s-0.293,-0.092 -0.5,-0.092h-0.91v1.717h0.799l0,0.001l0,0l0,0l0,0l0,0l0,0l0,0zm0.16,2.141c0.063,0 0.158,-0.004 0.289,-0.014c0.13501,-0.01 0.26601,-0.041 0.39799,-0.098c0.13301,-0.055 0.246,-0.141 0.34601,-0.26c0.10001,-0.121 0.14799,-0.291 0.14799,-0.512c0,-0.225 -0.05099,-0.404 -0.15199,-0.531c-0.10201,-0.129 -0.22301,-0.225 -0.364,-0.285s-0.28801,-0.09801 -0.438,-0.109c-0.14999,-0.014 -0.27499,-0.02 -0.373,-0.02h-0.813v1.828h0.959l0,0.001z" fill="#989899"/>
    <path id="svg_162" d="m175.664,92.191h0.58l-1.86301,1.947l1.203,1.57c0.061,0.08 0.129,0.16 0.205,0.242c0.078,0.084 0.15601,0.16 0.24001,0.23c0.08199,0.07 0.16399,0.127 0.24199,0.17c0.08101,0.043 0.15601,0.064 0.23001,0.064h0.256v0.367c-0.078,0.025 -0.17,0.049 -0.27301,0.07401c-0.105,0.02299 -0.213,0.03699 -0.32199,0.03699c-0.123,0 -0.23801,-0.021 -0.34401,-0.064c-0.10699,-0.043 -0.207,-0.10201 -0.299,-0.176c-0.092,-0.072 -0.17799,-0.156 -0.258,-0.248s-0.15601,-0.184 -0.23,-0.275l-1.138,-1.49599l-0.505,0.531v1.617h-0.78101v-4.592h0.78101v2.369l2.276,-2.367l0,0l0,0l0,0l0,0l0,0l0,0z" fill="#989899"/>
    <path id="svg_163" d="m179.36501,92.09c0.44699,0 0.795,0.063 1.039,0.188c0.24599,0.127 0.424,0.291 0.53899,0.492c0.11301,0.201 0.17801,0.436 0.19701,0.69701c0.01801,0.264 0.02701,0.533 0.02701,0.809v2.508h-0.744v-0.449c-0.18001,0.17 -0.40401,0.307 -0.68001,0.408s-0.55099,0.152 -0.82599,0.152c-0.26401,0 -0.496,-0.047 -0.69901,-0.139c-0.2,-0.092 -0.371,-0.211 -0.504,-0.35699c-0.13701,-0.148 -0.237,-0.313 -0.30301,-0.496c-0.06799,-0.184 -0.101,-0.371 -0.101,-0.561c0,-0.19701 0.036,-0.39301 0.108,-0.58801c0.07401,-0.197 0.18401,-0.373 0.33,-0.529c0.14799,-0.156 0.328,-0.283 0.543,-0.381s0.459,-0.146 0.73399,-0.146s0.537,0.053 0.785,0.16c0.24901,0.10699 0.451,0.25999 0.61101,0.455v-0.395c0,-0.502 -0.076,-0.877 -0.22701,-1.121s-0.42599,-0.367 -0.826,-0.367c-0.17,0 -0.31999,0.021 -0.45099,0.064c-0.12901,0.043 -0.244,0.102 -0.34601,0.18c-0.10001,0.076 -0.19499,0.17 -0.28101,0.283s-0.172,0.24 -0.258,0.383l-0.47099,-0.479c0.086,-0.092 0.17599,-0.184 0.271,-0.275c0.09399,-0.092 0.211,-0.174 0.34799,-0.248c0.13901,-0.074 0.30301,-0.133 0.492,-0.18c0.19501,-0.045 0.424,-0.068 0.69301,-0.068l0,0l0,0l0,0l0,0l0,0l0,0zm1.05899,2.875c-0.03,-0.074 -0.07599,-0.158 -0.13499,-0.258c-0.05701,-0.098 -0.133,-0.193 -0.22501,-0.285s-0.203,-0.168 -0.332,-0.23199c-0.12999,-0.064 -0.28299,-0.098 -0.463,-0.098c-0.17599,0 -0.34,0.035 -0.48799,0.105c-0.14601,0.07 -0.27101,0.162 -0.373,0.275s-0.18001,0.248 -0.23401,0.4s-0.084,0.313 -0.084,0.477c0,0.197 0.037,0.367 0.10701,0.51c0.071,0.145 0.15999,0.268 0.271,0.369c0.10899,0.10001 0.23399,0.176 0.369,0.22501s0.265,0.072 0.38699,0.072c0.117,0 0.23399,-0.021 0.354,-0.064c0.121,-0.041 0.23599,-0.102 0.34399,-0.178s0.203,-0.168 0.289,-0.271s0.158,-0.217 0.213,-0.34v-0.707l0,0l0,0l0,0l0,0l0,0l0,0l0,0z" fill="#989899"/>
    <path id="svg_164" d="m188.91,92.191h0.578l-1.86301,1.947l1.203,1.57c0.061,0.08 0.129,0.16 0.207,0.242c0.07599,0.084 0.15399,0.16 0.23799,0.23c0.082,0.07 0.162,0.127 0.24501,0.17c0.077,0.043 0.153,0.064 0.228,0.064h0.258v0.367c-0.08,0.025 -0.174,0.049 -0.276,0.07401c-0.104,0.02299 -0.209,0.03699 -0.321,0.03699c-0.123,0 -0.23799,-0.021 -0.34399,-0.064c-0.10901,-0.043 -0.207,-0.10201 -0.299,-0.176c-0.09201,-0.072 -0.17801,-0.156 -0.25801,-0.248c-0.078,-0.092 -0.15599,-0.184 -0.229,-0.275l-1.13899,-1.49599l-0.506,0.531v1.617h-0.78v-4.592h0.78v2.369l2.278,-2.367l0,0l0,0l0,0l0,0l0,0l0,0z" fill="#989899"/>
    <path id="svg_165" d="m194.13699,92.191h0.78101v0.744h0.035c0.22699,-0.564 0.705,-0.846 1.43399,-0.846c0.30701,0 0.58801,0.05701 0.84601,0.17001c0.256,0.113 0.479,0.27499 0.666,0.486c0.186,0.211 0.332,0.465 0.436,0.758c0.10399,0.295 0.15599,0.625 0.15599,0.992c0,0.361 -0.05299,0.69099 -0.15599,0.988s-0.25,0.549 -0.436,0.758c-0.188,0.207 -0.41,0.367 -0.666,0.48c-0.258,0.113 -0.539,0.172 -0.84601,0.172c-0.146,0 -0.293,-0.016 -0.43599,-0.047c-0.145,-0.031 -0.28101,-0.08 -0.41,-0.146c-0.129,-0.06799 -0.242,-0.156 -0.34399,-0.268c-0.10201,-0.109 -0.18201,-0.244 -0.244,-0.404h-0.035v3.051h-0.78101v-6.888l0,0l0,0l0,0l0,0l0,0l0,0l0,0zm0.78101,2.63499c0,0.25201 0.035,0.47501 0.105,0.672c0.07001,0.195 0.162,0.361 0.27901,0.5s0.252,0.242 0.40199,0.313c0.15401,0.07 0.31601,0.105 0.48801,0.105c0.189,0 0.371,-0.035 0.543,-0.105c0.17,-0.07 0.32201,-0.184 0.453,-0.34c0.133,-0.156 0.23599,-0.357 0.313,-0.602c0.07599,-0.246 0.11499,-0.54301 0.11499,-0.89101c0,-0.34399 -0.039,-0.63699 -0.11499,-0.883c-0.076,-0.244 -0.18001,-0.443 -0.30701,-0.596c-0.129,-0.154 -0.28101,-0.266 -0.455,-0.336s-0.35699,-0.105 -0.547,-0.105c-0.17799,0 -0.34399,0.037 -0.5,0.115c-0.15601,0.076 -0.293,0.18 -0.408,0.311c-0.11699,0.133 -0.207,0.289 -0.271,0.469c-0.064,0.182 -0.09599,0.37299 -0.09599,0.574v0.799l0.00099,0l0,0l0,0l0,0l0,0l0,0l0,0z" fill="#989899"/>
    <path id="svg_166" d="m204.16701,94.496c0,0.318 -0.05501,0.623 -0.166,0.914c-0.10901,0.29099 -0.26801,0.547 -0.47301,0.768s-0.453,0.395 -0.744,0.52299s-0.61699,0.193 -0.979,0.193c-0.36699,0 -0.69899,-0.06599 -0.99599,-0.199c-0.298,-0.131 -0.548,-0.307 -0.75301,-0.527c-0.20399,-0.221 -0.36501,-0.477 -0.479,-0.768s-0.17,-0.592 -0.17,-0.904c0,-0.318 0.05701,-0.623 0.17,-0.914s0.274,-0.547 0.479,-0.766c0.205,-0.221 0.455,-0.396 0.75301,-0.529c0.297,-0.131 0.629,-0.19701 0.99599,-0.19701c0.36101,0 0.688,0.066 0.979,0.19701c0.291,0.133 0.539,0.309 0.744,0.529c0.205,0.219 0.36301,0.475 0.47301,0.766c0.11099,0.291 0.166,0.596 0.166,0.914l0,0l0,0l0,0l0,0l0,0l0,0zm-0.873,0c0,-0.428 -0.04701,-0.775 -0.13701,-1.043c-0.092,-0.26601 -0.211,-0.473 -0.35899,-0.619c-0.14601,-0.146 -0.30901,-0.246 -0.48601,-0.299s-0.34999,-0.078 -0.51399,-0.078c-0.166,0 -0.338,0.025 -0.51601,0.078s-0.34,0.15199 -0.48999,0.299c-0.151,0.146 -0.27301,0.354 -0.36801,0.619c-0.09599,0.268 -0.14299,0.615 -0.14299,1.043c0,0.422 0.047,0.768 0.14299,1.033c0.095,0.266 0.21701,0.473 0.36801,0.619c0.14999,0.14799 0.31299,0.248 0.48999,0.299c0.17801,0.053 0.35001,0.078 0.51601,0.078c0.164,0 0.336,-0.025 0.51399,-0.078c0.17801,-0.05099 0.34,-0.15 0.48601,-0.299c0.14799,-0.146 0.26799,-0.354 0.35899,-0.619c0.09,-0.265 0.13701,-0.611 0.13701,-1.033z" fill="#989899"/>
    <path id="svg_167" d="m210.04601,96.416v1.332h-0.64499v-0.965h-4.041v0.965h-0.64302v-1.332h0.662l1.717,-4.225h0.55101l1.76399,4.225h0.63501l0,0zm-4.23401,0h2.77301l-1.369,-3.316h-0.05501l-1.349,3.316z" fill="#989899"/>
    <path id="svg_168" d="m212.56,92.09c0.44701,0 0.793,0.063 1.039,0.188c0.246,0.127 0.424,0.291 0.537,0.492s0.17999,0.436 0.19901,0.69701c0.01799,0.264 0.02699,0.533 0.02699,0.809v2.508h-0.744v-0.449c-0.17799,0.17 -0.40399,0.307 -0.68199,0.408c-0.27301,0.10201 -0.54901,0.152 -0.82401,0.152c-0.26399,0 -0.496,-0.047 -0.69901,-0.139c-0.20099,-0.092 -0.36899,-0.211 -0.504,-0.35699c-0.13499,-0.148 -0.23599,-0.313 -0.30499,-0.496c-0.06601,-0.184 -0.10001,-0.371 -0.10001,-0.561c0,-0.19701 0.037,-0.39301 0.10901,-0.58801c0.07199,-0.197 0.18399,-0.373 0.32999,-0.529c0.14801,-0.156 0.328,-0.283 0.543,-0.381s0.45901,-0.146 0.73401,-0.146s0.537,0.053 0.785,0.16s0.45099,0.25999 0.61099,0.455v-0.395c0,-0.502 -0.076,-0.877 -0.22699,-1.121s-0.42601,-0.367 -0.82401,-0.367c-0.172,0 -0.32201,0.021 -0.453,0.064c-0.129,0.043 -0.244,0.102 -0.34599,0.18c-0.10201,0.076 -0.19501,0.17 -0.28101,0.283s-0.172,0.24 -0.258,0.383l-0.47101,-0.479c0.086,-0.092 0.17601,-0.184 0.271,-0.275c0.09401,-0.092 0.21101,-0.174 0.34801,-0.248c0.13901,-0.074 0.30299,-0.133 0.492,-0.18c0.19499,-0.045 0.42299,-0.068 0.69299,-0.068l0,0l0,0l0,0l0,0l0,0l0,0zm1.058,2.875c-0.03099,-0.074 -0.07599,-0.158 -0.13499,-0.258c-0.05901,-0.098 -0.133,-0.193 -0.22501,-0.285c-0.09399,-0.092 -0.203,-0.168 -0.332,-0.23199s-0.28299,-0.098 -0.461,-0.098c-0.17999,0 -0.342,0.035 -0.48999,0.105c-0.14601,0.07 -0.27101,0.162 -0.373,0.275s-0.18001,0.248 -0.23401,0.4s-0.084,0.313 -0.084,0.477c0,0.197 0.035,0.367 0.10701,0.51c0.06999,0.145 0.15999,0.268 0.271,0.369c0.11099,0.10001 0.23199,0.176 0.369,0.22501c0.13499,0.049 0.26399,0.072 0.38699,0.072c0.117,0 0.23399,-0.021 0.355,-0.064c0.119,-0.041 0.23201,-0.102 0.34001,-0.178s0.20499,-0.168 0.291,-0.271s0.15599,-0.217 0.213,-0.34v-0.707l0.00099,0l0,0l0,0l0,0l0,0l0,0l0,0z" fill="#989899"/>
    <path id="svg_169" d="m218.257,95.699h0.045l1.59799,-3.508h0.709v4.592h-0.78099v-3.629h-0.039l-1.69701,3.74h-0.09399l-1.81599,-3.74h-0.037v3.629h-0.313v-4.592h0.72701l1.698,3.508l0,0l0,0l0,0l0,0l0,0l0,0z" fill="#989899"/>
    <path id="svg_170" d="m91.121,105.912l-0.80901,1.893h-0.422l2.719,-6.43h0.459l2.994,6.43h-0.891l-0.883,-1.893h-3.167l0,0l0,0l0,0l0,0l0,0l0,0l0,0zm1.533,-3.508h-0.037l-1.322,3.096h2.801l-1.442,-3.096z" fill="#989899"/>
    <path id="svg_171" d="m100.131,103.213h0.578l-1.863,1.94701l1.203,1.57c0.061,0.07999 0.129,0.16 0.20699,0.244c0.07401,0.082 0.15601,0.158 0.23801,0.229s0.16399,0.127 0.242,0.17c0.08,0.043 0.157,0.064 0.23,0.064h0.258v0.367c-0.08,0.025 -0.172,0.049 -0.275,0.074c-0.105,0.023 -0.213,0.037 -0.322,0.037c-0.123,0 -0.236,-0.021 -0.344,-0.064s-0.207,-0.102 -0.299,-0.174c-0.091,-0.07401 -0.178,-0.156 -0.257,-0.25c-0.08099,-0.092 -0.157,-0.18401 -0.231,-0.275l-1.139,-1.496l-0.505,0.533v1.615h-0.78v-4.592h0.78v2.369l2.279,-2.368l0,0l0,0l0,0l0,0l0,0l0,0z" fill="#989899"/>
    <path id="svg_172" d="m104.053,106.73l1.441,-3.51801h0.451l-2.223,5.465c-0.068,0.166 -0.139,0.332 -0.211,0.5c-0.076,0.168 -0.159,0.322 -0.258,0.459c-0.098,0.139 -0.211,0.25 -0.34,0.336s-0.279,0.129 -0.44901,0.129c-0.12299,0 -0.256,-0.025 -0.396,-0.074s-0.27,-0.125 -0.385,-0.229l0.404,-0.764c0.056,0.123 0.133,0.217 0.232,0.28101c0.102,0.064 0.207,0.096 0.318,0.096c0.115,0 0.219,-0.04301 0.307,-0.12901c0.09,-0.086 0.162,-0.199 0.217,-0.34l0.486,-1.193l-2.05701,-4.537h0.83601l1.588,3.51801h0.039l0,0l0,0l0,0l0,0l0,0l0,0l0,0z" fill="#989899"/>
    <path id="svg_173" d="m106.863,103.213h0.781v4.22501h1.984v-4.22501h0.779v4.22501h1.985v-4.22501h0.78v4.592h-6.311v-4.592l0.002,0z" fill="#989899"/>
    <path id="svg_174" d="m115.248,105.711c0,0.373 0.057,0.68 0.164,0.918c0.111,0.24001 0.248,0.426 0.41399,0.561c0.164,0.13499 0.344,0.229 0.535,0.281c0.193,0.051 0.375,0.078 0.545,0.078c0.155,0 0.293,-0.01801 0.418,-0.051c0.125,-0.035 0.246,-0.082 0.361,-0.143s0.229,-0.139 0.344,-0.23c0.114,-0.092 0.232,-0.193 0.361,-0.303l0.293,0.295c-0.244,0.256 -0.533,0.453 -0.863,0.592c-0.33,0.137 -0.691,0.207 -1.084,0.207c-0.404,0 -0.754,-0.07 -1.051,-0.207c-0.297,-0.139 -0.542,-0.322 -0.734,-0.551c-0.19299,-0.23 -0.338,-0.49 -0.432,-0.781c-0.096,-0.291 -0.143,-0.59 -0.143,-0.895c0,-0.369 0.055,-0.697 0.164,-0.988c0.111,-0.291 0.264,-0.539 0.459,-0.744c0.197,-0.205 0.426,-0.361 0.689,-0.469s0.55099,-0.16 0.863,-0.16c0.295,0 0.572,0.049 0.836,0.146s0.494,0.246 0.693,0.441s0.35699,0.443 0.473,0.744c0.117,0.30099 0.17599,0.654 0.17599,1.064v0.193h-3.481l0,0.002l0,0l0,0l0,0l0,0l0,0l0,0zm2.674,-0.367c0,-0.594 -0.12099,-1.061 -0.35899,-1.4c-0.242,-0.34 -0.578,-0.51 -1.01,-0.51c-0.225,0 -0.42,0.053 -0.584,0.16s-0.299,0.25 -0.404,0.428c-0.107,0.17799 -0.186,0.381 -0.238,0.60899c-0.051,0.23 -0.078,0.469 -0.078,0.71301h2.673l0,0l0,0l0,0l0,0l0,0l0,0l0,0z" fill="#989899"/>
    <path id="svg_175" d="m119.924,103.213h0.779v0.744h0.03899c0.22701,-0.564 0.703,-0.846 1.43201,-0.846c0.307,0 0.588,0.057 0.84599,0.17s0.479,0.275 0.666,0.486c0.186,0.21301 0.333,0.465 0.436,0.758c0.104,0.295 0.156,0.625 0.156,0.992c0,0.361 -0.053,0.691 -0.156,0.988c-0.103,0.297 -0.25,0.549 -0.436,0.758c-0.188,0.207 -0.408,0.369 -0.666,0.482s-0.53899,0.17 -0.84599,0.17c-0.146,0 -0.29301,-0.016 -0.436,-0.047c-0.145,-0.031 -0.281,-0.07999 -0.41,-0.146c-0.12701,-0.066 -0.242,-0.156 -0.344,-0.266c-0.1,-0.111 -0.182,-0.246 -0.242,-0.404h-0.03899v3.049h-0.779v-6.888l0,0l0,0l0,0l0,0l0,0l0,0l0,0zm0.779,2.637c0,0.25 0.03699,0.475 0.10799,0.67c0.069,0.195 0.163,0.36301 0.278,0.5c0.11501,0.139 0.25201,0.242 0.404,0.313c0.15401,0.07 0.317,0.105 0.486,0.105c0.191,0 0.372,-0.035 0.54301,-0.105c0.172,-0.07 0.322,-0.184 0.45399,-0.34s0.235,-0.355 0.313,-0.602c0.076,-0.244 0.113,-0.541 0.113,-0.891c0,-0.344 -0.037,-0.637 -0.113,-0.881c-0.078,-0.246 -0.18,-0.445 -0.309,-0.598c-0.12901,-0.15401 -0.27901,-0.26601 -0.455,-0.33601c-0.174,-0.07 -0.355,-0.105 -0.547,-0.105c-0.17599,0 -0.34399,0.039 -0.5,0.115s-0.293,0.18 -0.408,0.313c-0.117,0.131 -0.207,0.28699 -0.271,0.467c-0.064,0.182 -0.09801,0.373 -0.09801,0.57401v0.80099l0.00201,0l0,0l0,0l0,0l0,0l0,0l0,0z" fill="#989899"/>
    <path id="svg_176" d="m128.47099,107.314c0.21101,-0.084 0.42401,-0.21301 0.63901,-0.39101l0.26601,0.34801c-0.209,0.16 -0.46301,0.307 -0.76801,0.44099c-0.30301,0.135 -0.656,0.203 -1.061,0.203c-0.361,0 -0.686,-0.063 -0.973,-0.189c-0.28899,-0.125 -0.535,-0.297 -0.74,-0.514s-0.363,-0.475 -0.473,-0.771s-0.166,-0.617 -0.166,-0.959c0,-0.326 0.051,-0.631 0.152,-0.92001c0.102,-0.28699 0.252,-0.53899 0.455,-0.752c0.201,-0.215 0.449,-0.38499 0.744,-0.50999c0.293,-0.12701 0.633,-0.189 1.02,-0.189c0.184,0 0.375,0.018 0.574,0.05099s0.38499,0.096 0.55901,0.18401c0.17599,0.088 0.33,0.20499 0.463,0.35c0.13699,0.145 0.23399,0.326 0.29501,0.547h-0.63301c-0.06801,-0.215 -0.205,-0.396 -0.414,-0.543c-0.207,-0.146 -0.453,-0.221 -0.73399,-0.221c-0.172,0 -0.354,0.035 -0.541,0.105c-0.191,0.07 -0.36501,0.184 -0.52,0.34c-0.15601,0.156 -0.28699,0.365 -0.39101,0.625s-0.156,0.578 -0.156,0.951c0,0.361 0.047,0.666 0.14301,0.91399s0.223,0.44701 0.381,0.59801c0.16,0.14799 0.342,0.258 0.547,0.324c0.205,0.068 0.418,0.10201 0.639,0.10201c0.24899,0 0.48199,-0.042 0.69299,-0.124l0,0l0,0l0,0z" fill="#989899"/>
    <path id="svg_177" d="m133.52699,103.213h0.578l-1.86499,1.94701l1.20299,1.57c0.063,0.07999 0.13101,0.16 0.207,0.244c0.07701,0.082 0.15601,0.158 0.23801,0.229c0.084,0.07 0.164,0.127 0.244,0.17s0.15399,0.064 0.22899,0.064h0.25801v0.367c-0.08,0.025 -0.172,0.049 -0.27501,0.074c-0.105,0.023 -0.211,0.037 -0.32199,0.037c-0.121,0 -0.23601,-0.021 -0.34401,-0.064s-0.207,-0.102 -0.299,-0.174c-0.092,-0.07401 -0.17799,-0.156 -0.258,-0.25c-0.078,-0.092 -0.15401,-0.18401 -0.228,-0.275l-1.14,-1.496l-0.50601,0.533v1.615h-0.77899v-4.592h0.77899v2.369l2.28,-2.368l0,0l0,0l0,0l0,0l0,0l0,0z" fill="#989899"/>
    <path id="svg_178" d="m140.02,105.518c0,0.318 -0.05501,0.623 -0.164,0.914c-0.11101,0.291 -0.27,0.547 -0.47501,0.768s-0.453,0.395 -0.74199,0.523c-0.291,0.129 -0.619,0.193 -0.979,0.193c-0.367,0 -0.69901,-0.066 -0.998,-0.197c-0.297,-0.133 -0.547,-0.309 -0.752,-0.529c-0.207,-0.221 -0.36501,-0.47701 -0.479,-0.76801c-0.11301,-0.28899 -0.17,-0.592 -0.17,-0.904c0,-0.318 0.05699,-0.623 0.17,-0.914c0.11301,-0.28899 0.271,-0.547 0.479,-0.766c0.205,-0.221 0.455,-0.396 0.752,-0.529c0.299,-0.131 0.631,-0.197 0.998,-0.197c0.35899,0 0.688,0.066 0.979,0.197c0.28899,0.133 0.53699,0.309 0.74199,0.529c0.205,0.219 0.36301,0.47701 0.47501,0.766c0.10899,0.291 0.164,0.595 0.164,0.914l0,0l0,0l0,0l0,0l0,0l0,0zm-0.87201,0c0,-0.428 -0.04599,-0.775 -0.13899,-1.043c-0.092,-0.266 -0.211,-0.473 -0.35701,-0.619c-0.14799,-0.146 -0.31099,-0.246 -0.48799,-0.299c-0.17801,-0.051 -0.34801,-0.078 -0.51401,-0.078s-0.336,0.027 -0.51399,0.078c-0.17801,0.053 -0.342,0.152 -0.492,0.299s-0.27299,0.354 -0.367,0.619c-0.09599,0.268 -0.14299,0.615 -0.14299,1.043c0,0.424 0.047,0.76801 0.14299,1.033c0.09401,0.268 0.21701,0.473 0.367,0.62099c0.15001,0.146 0.314,0.246 0.492,0.299c0.17799,0.051 0.34799,0.078 0.51399,0.078s0.336,-0.027 0.51401,-0.078c0.17799,-0.053 0.34,-0.152 0.48799,-0.299c0.14601,-0.14799 0.26601,-0.354 0.35701,-0.62099c0.09399,-0.266 0.13899,-0.61 0.13899,-1.033z" fill="#989899"/>
    <path id="svg_179" d="m141.812,105.711c0,0.373 0.054,0.68 0.166,0.918c0.108,0.24001 0.24501,0.426 0.41101,0.561c0.16399,0.13499 0.34399,0.229 0.53499,0.281c0.19301,0.051 0.375,0.078 0.545,0.078c0.15202,0 0.293,-0.01801 0.418,-0.051c0.125,-0.035 0.244,-0.082 0.35902,-0.143c0.11699,-0.061 0.23099,-0.139 0.34598,-0.23c0.11101,-0.092 0.23201,-0.193 0.36101,-0.303l0.29301,0.295c-0.244,0.256 -0.533,0.453 -0.86302,0.592c-0.33,0.137 -0.69098,0.207 -1.084,0.207c-0.40399,0 -0.754,-0.07 -1.05298,-0.207c-0.29501,-0.139 -0.541,-0.322 -0.73402,-0.551c-0.19098,-0.23 -0.336,-0.49 -0.43198,-0.781c-0.09402,-0.291 -0.14102,-0.59 -0.14102,-0.895c0,-0.369 0.05501,-0.697 0.164,-0.988c0.11101,-0.291 0.26401,-0.539 0.459,-0.744c0.19701,-0.205 0.42601,-0.361 0.68901,-0.469s0.55099,-0.16 0.86299,-0.16c0.295,0 0.57201,0.049 0.836,0.146s0.494,0.246 0.69301,0.441s0.35699,0.443 0.47299,0.744c0.117,0.30099 0.17601,0.654 0.17601,1.064v0.193h-3.48001l0,0.002zm2.672,-0.367c0,-0.594 -0.12099,-1.061 -0.36098,-1.4s-0.57599,-0.51 -1.00801,-0.51c-0.22501,0 -0.42,0.053 -0.584,0.16s-0.29901,0.25 -0.40601,0.428c-0.105,0.17799 -0.186,0.381 -0.23599,0.60899c-0.05301,0.23 -0.07701,0.469 -0.07701,0.71301h2.672l0,0z" fill="#989899"/>
    <path id="svg_180" d="m152.69901,107.314c0.211,-0.084 0.42401,-0.21301 0.63901,-0.39101l0.26599,0.34801c-0.209,0.16 -0.463,0.307 -0.76599,0.44099c-0.30501,0.135 -0.65799,0.203 -1.06099,0.203c-0.36298,0 -0.68799,-0.063 -0.97499,-0.189c-0.28699,-0.125 -0.53299,-0.297 -0.73801,-0.514c-0.207,-0.217 -0.36302,-0.475 -0.47502,-0.771c-0.10898,-0.297 -0.164,-0.617 -0.164,-0.959c0,-0.326 0.04901,-0.631 0.15002,-0.92001c0.10201,-0.28699 0.252,-0.53899 0.45499,-0.752c0.20099,-0.215 0.45099,-0.38499 0.744,-0.50999c0.293,-0.12701 0.633,-0.189 1.01999,-0.189c0.18402,0 0.375,0.018 0.57402,0.05099s0.38498,0.096 0.56099,0.18401c0.17401,0.088 0.32799,0.20499 0.46399,0.35c0.134,0.145 0.231,0.326 0.29201,0.547h-0.633c-0.06601,-0.215 -0.205,-0.396 -0.412,-0.543c-0.209,-0.146 -0.455,-0.221 -0.73601,-0.221c-0.17,0 -0.35199,0.035 -0.541,0.105s-0.36299,0.184 -0.51999,0.34s-0.285,0.365 -0.39101,0.625c-0.104,0.25999 -0.15601,0.578 -0.15601,0.951c0,0.361 0.04901,0.666 0.14301,0.91399c0.09599,0.248 0.22299,0.44701 0.381,0.59801c0.16,0.14799 0.342,0.258 0.547,0.324c0.205,0.068 0.418,0.10201 0.63902,0.10201c0.25197,0 0.48198,-0.042 0.69298,-0.124z" fill="#989899"/>
    <path id="svg_181" d="m159.17999,105.518c0,0.318 -0.05499,0.623 -0.16599,0.914c-0.10901,0.291 -0.26801,0.547 -0.47301,0.768s-0.453,0.395 -0.744,0.523s-0.617,0.193 -0.979,0.193c-0.36699,0 -0.69899,-0.066 -0.99599,-0.197c-0.29701,-0.133 -0.54901,-0.309 -0.752,-0.529c-0.207,-0.221 -0.367,-0.47701 -0.479,-0.76801c-0.11301,-0.28899 -0.17,-0.592 -0.17,-0.904c0,-0.318 0.05699,-0.623 0.17,-0.914c0.11099,-0.28899 0.271,-0.547 0.479,-0.766c0.20299,-0.221 0.45499,-0.396 0.752,-0.529c0.297,-0.131 0.629,-0.197 0.99599,-0.197c0.36101,0 0.688,0.066 0.979,0.197c0.291,0.133 0.539,0.309 0.744,0.529c0.205,0.219 0.36301,0.47701 0.47301,0.766c0.11099,0.291 0.16599,0.595 0.16599,0.914l0,0l0,0l0,0l0,0l0,0l0,0zm-0.87299,0c0,-0.428 -0.04501,-0.775 -0.13701,-1.043c-0.092,-0.266 -0.213,-0.473 -0.358,-0.619c-0.147,-0.146 -0.31,-0.246 -0.487,-0.299c-0.17999,-0.051 -0.34999,-0.078 -0.513,-0.078c-0.16699,0 -0.33899,0.027 -0.517,0.078c-0.17799,0.053 -0.342,0.152 -0.49001,0.299c-0.14999,0.146 -0.27299,0.354 -0.36899,0.619c-0.09401,0.268 -0.14101,0.615 -0.14101,1.043c0,0.424 0.047,0.76801 0.14101,1.033c0.09599,0.268 0.21899,0.473 0.36899,0.62099c0.14801,0.146 0.313,0.246 0.49001,0.299c0.17801,0.051 0.35001,0.078 0.517,0.078c0.16301,0 0.33301,-0.027 0.513,-0.078c0.17801,-0.053 0.34,-0.152 0.487,-0.299c0.146,-0.14799 0.267,-0.354 0.358,-0.62099c0.092,-0.266 0.13701,-0.61 0.13701,-1.033z" fill="#989899"/>
    <path id="svg_182" d="m161.15401,107.805h-0.78101v-4.592h3.701v4.592h-0.77902v-4.225h-2.14098v4.225l0,0z" fill="#989899"/>
    <path id="svg_183" d="m165.545,103.213h0.78101v0.744h0.03499c0.22701,-0.564 0.705,-0.846 1.43401,-0.846c0.308,0 0.588,0.057 0.84601,0.17c0.256,0.113 0.47899,0.275 0.66399,0.486c0.188,0.21301 0.33401,0.465 0.438,0.758c0.104,0.295 0.15601,0.625 0.15601,0.992c0,0.361 -0.05301,0.691 -0.15601,0.988s-0.25,0.549 -0.438,0.758c-0.18599,0.207 -0.40799,0.369 -0.66399,0.482c-0.25801,0.113 -0.53801,0.17 -0.84601,0.17c-0.146,0 -0.293,-0.016 -0.438,-0.047c-0.14299,-0.031 -0.27899,-0.07999 -0.40799,-0.146s-0.244,-0.156 -0.34401,-0.266c-0.10199,-0.111 -0.18199,-0.246 -0.244,-0.404h-0.03499v3.049h-0.78101v-6.888l0,0l0,0l0,0l0,0l0,0l0,0l0,0zm0.78101,2.637c0,0.25 0.03299,0.475 0.10399,0.67c0.07201,0.195 0.164,0.36301 0.28101,0.5c0.11501,0.139 0.25,0.242 0.40401,0.313c0.153,0.07 0.314,0.105 0.487,0.105c0.18799,0 0.37,-0.035 0.54199,-0.105c0.17,-0.07 0.32201,-0.184 0.453,-0.34c0.133,-0.156 0.23599,-0.355 0.313,-0.602c0.07599,-0.244 0.11499,-0.541 0.11499,-0.891c0,-0.344 -0.039,-0.637 -0.11499,-0.881c-0.076,-0.246 -0.18001,-0.445 -0.308,-0.598c-0.12801,-0.15401 -0.28,-0.26601 -0.45401,-0.33601s-0.35699,-0.105 -0.54599,-0.105c-0.179,0 -0.345,0.039 -0.5,0.115c-0.157,0.076 -0.29401,0.18 -0.40901,0.313c-0.11699,0.131 -0.207,0.28699 -0.271,0.467c-0.064,0.182 -0.09599,0.373 -0.09599,0.57401v0.80099l0,0l0,0l0,0l0,0l0,0l0,0l0,0z" fill="#989899"/>
    <path id="svg_184" d="m175.57401,105.518c0,0.318 -0.05501,0.623 -0.166,0.914c-0.10901,0.291 -0.26801,0.547 -0.47301,0.768s-0.453,0.395 -0.744,0.523s-0.61699,0.193 -0.97899,0.193c-0.367,0 -0.69901,-0.066 -0.996,-0.197c-0.297,-0.133 -0.547,-0.309 -0.752,-0.529c-0.207,-0.221 -0.36501,-0.47701 -0.479,-0.76801c-0.11301,-0.28899 -0.17,-0.592 -0.17,-0.904c0,-0.318 0.05699,-0.623 0.17,-0.914c0.11301,-0.28899 0.271,-0.547 0.479,-0.766c0.205,-0.221 0.455,-0.396 0.752,-0.529c0.297,-0.131 0.629,-0.197 0.996,-0.197c0.36099,0 0.68799,0.066 0.97899,0.197c0.291,0.133 0.539,0.309 0.744,0.529c0.205,0.219 0.36301,0.47701 0.47301,0.766c0.112,0.291 0.166,0.595 0.166,0.914l0,0l0,0l0,0l0,0l0,0l0,0zm-0.873,0c0,-0.428 -0.045,-0.775 -0.13701,-1.043c-0.092,-0.266 -0.21199,-0.473 -0.35899,-0.619c-0.146,-0.146 -0.311,-0.246 -0.48601,-0.299c-0.17799,-0.051 -0.34999,-0.078 -0.51599,-0.078c-0.164,0 -0.336,0.027 -0.51401,0.078c-0.17799,0.053 -0.342,0.152 -0.48999,0.299c-0.15001,0.146 -0.27301,0.354 -0.369,0.619c-0.09401,0.268 -0.14101,0.615 -0.14101,1.043c0,0.424 0.047,0.76801 0.14101,1.033c0.09599,0.268 0.21899,0.473 0.369,0.62099c0.14799,0.146 0.31299,0.246 0.48999,0.299c0.17801,0.051 0.35001,0.078 0.51401,0.078c0.166,0 0.338,-0.027 0.51599,-0.078c0.17601,-0.053 0.34001,-0.152 0.48601,-0.299c0.147,-0.14799 0.26801,-0.354 0.35899,-0.62099c0.09201,-0.266 0.13701,-0.61 0.13701,-1.033z" fill="#989899"/>
    <path id="svg_185" d="m178.69299,103.213c0.332,0 0.59601,0.039 0.79501,0.119c0.20099,0.08 0.35399,0.176 0.457,0.289s0.172,0.23199 0.20299,0.354c0.03101,0.123 0.045,0.22701 0.045,0.313c0,0.154 -0.02899,0.289 -0.086,0.408c-0.05899,0.121 -0.13499,0.225 -0.23,0.313c-0.09399,0.09 -0.203,0.16 -0.326,0.213c-0.121,0.051 -0.24399,0.09 -0.36699,0.113v0.064c0.129,0.006 0.26999,0.027 0.42799,0.064c0.157,0.037 0.30099,0.10001 0.439,0.188c0.13701,0.09 0.25,0.211 0.34001,0.363c0.09,0.154 0.13499,0.346 0.13499,0.58c0,0.152 -0.03101,0.30099 -0.092,0.445c-0.063,0.143 -0.16,0.271 -0.295,0.385s-0.311,0.20499 -0.52301,0.27499c-0.215,0.07 -0.47099,0.105 -0.771,0.105h-2.075v-4.592h1.92299l0,0.001l0,0l0,0l0,0l0,0l0,0l0,0zm-0.34499,2.084c0.14099,0 0.27499,-0.02 0.40399,-0.059s0.242,-0.098 0.34,-0.174c0.09801,-0.078 0.177,-0.17001 0.23401,-0.277c0.05899,-0.105 0.086,-0.23 0.086,-0.371c0,-0.074 -0.01001,-0.158 -0.03101,-0.252c-0.021,-0.096 -0.064,-0.186 -0.133,-0.271s-0.164,-0.158 -0.289,-0.221c-0.125,-0.061 -0.293,-0.092 -0.5,-0.092h-0.91v1.717h0.79901l0,0zm0.15999,2.14101c0.063,0 0.158,-0.00401 0.291,-0.014s0.26401,-0.041 0.39601,-0.096c0.133,-0.057 0.24799,-0.14301 0.34599,-0.262c0.10001,-0.119 0.14799,-0.289 0.14799,-0.51c0,-0.227 -0.05099,-0.404 -0.15199,-0.533s-0.22301,-0.223 -0.36501,-0.285c-0.14099,-0.061 -0.287,-0.098 -0.438,-0.109s-0.27499,-0.02 -0.373,-0.02h-0.81299v1.828h0.95999l0,0.00101l0,0l0,0l0,0l0,0l0,0l0,0z" fill="#989899"/>
    <path id="svg_186" d="m186.201,105.518c0,0.318 -0.05701,0.623 -0.166,0.914s-0.267,0.547 -0.47301,0.768c-0.205,0.221 -0.453,0.395 -0.744,0.523s-0.61699,0.193 -0.97899,0.193c-0.367,0 -0.69901,-0.066 -0.996,-0.197c-0.297,-0.133 -0.549,-0.309 -0.754,-0.529s-0.362,-0.47701 -0.47701,-0.76801c-0.11301,-0.28899 -0.17,-0.592 -0.17,-0.904c0,-0.318 0.05699,-0.623 0.17,-0.914c0.114,-0.28899 0.271,-0.547 0.47701,-0.766c0.205,-0.221 0.457,-0.396 0.754,-0.529c0.297,-0.131 0.629,-0.197 0.996,-0.197c0.36099,0 0.68799,0.066 0.97899,0.197c0.291,0.133 0.539,0.309 0.744,0.529c0.20601,0.219 0.36301,0.47701 0.47301,0.766c0.11,0.291 0.166,0.595 0.166,0.914l0,0l0,0l0,0l0,0l0,0l0,0zm-0.873,0c0,-0.428 -0.045,-0.775 -0.13701,-1.043c-0.092,-0.266 -0.213,-0.473 -0.35899,-0.619s-0.30901,-0.246 -0.48601,-0.299c-0.17799,-0.051 -0.34999,-0.078 -0.51599,-0.078s-0.336,0.027 -0.51401,0.078c-0.17799,0.053 -0.342,0.152 -0.48999,0.299c-0.15001,0.146 -0.27301,0.354 -0.369,0.619c-0.09399,0.268 -0.14101,0.615 -0.14101,1.043c0,0.424 0.04701,0.76801 0.14101,1.033c0.09599,0.268 0.21899,0.473 0.369,0.62099c0.14799,0.146 0.313,0.246 0.48999,0.299c0.17801,0.051 0.34801,0.078 0.51401,0.078s0.338,-0.027 0.51599,-0.078c0.17801,-0.053 0.34001,-0.152 0.48601,-0.299c0.146,-0.14799 0.26801,-0.354 0.35899,-0.62099c0.09201,-0.266 0.13701,-0.61 0.13701,-1.033z" fill="#989899"/>
    <path id="svg_187" d="m190.14999,105.582v-2.369h0.78099v2.369l2.23001,-2.369h0.56099l-1.81099,1.94701l1.15799,1.598c0.05701,0.07999 0.121,0.16 0.19301,0.238c0.07399,0.07999 0.14999,0.152 0.23399,0.217c0.08199,0.064 0.16399,0.117 0.24799,0.16c0.082,0.043 0.16,0.064 0.23402,0.064h0.256v0.367c-0.078,0.025 -0.17,0.049 -0.27301,0.07401c-0.105,0.02299 -0.213,0.03699 -0.32199,0.03699c-0.246,0 -0.459,-0.078 -0.645,-0.234c-0.18199,-0.156 -0.34599,-0.332 -0.48399,-0.529l-1.084,-1.49599l-0.496,0.533v1.61501h-0.78101v-1.61501l-0.496,-0.533l-1.084,1.49599c-0.14099,0.197 -0.302,0.373 -0.48599,0.529c-0.18401,0.15601 -0.39798,0.234 -0.64301,0.234c-0.11099,0 -0.21899,-0.014 -0.32199,-0.03699c-0.10399,-0.025 -0.19501,-0.049 -0.27501,-0.07401v-0.367h0.259c0.071,0 0.147,-0.021 0.228,-0.064s0.16,-0.096 0.244,-0.16c0.082,-0.064 0.162,-0.137 0.23801,-0.217c0.07599,-0.078 0.14099,-0.158 0.19699,-0.238l1.158,-1.598l-1.811,-1.94701h0.561l2.233,2.369z" fill="#989899"/>
    <path id="svg_188" d="m199.84,107.438v1.33199h-0.64299v-0.965h-4.041v0.965h-0.64301v-1.33199h0.66l1.72,-4.22501h0.54999l1.76201,4.22501h0.63499l0,0zm-4.235,0h2.77501l-1.36899,-3.316h-0.05702l-1.349,3.316z" fill="#989899"/>
    <path id="svg_189" d="m201.265,105.711c0,0.373 0.05501,0.68 0.164,0.918c0.10899,0.24001 0.248,0.426 0.414,0.561c0.164,0.13499 0.342,0.229 0.535,0.281c0.19098,0.051 0.373,0.078 0.545,0.078c0.15199,0 0.291,-0.01801 0.416,-0.051c0.125,-0.035 0.246,-0.082 0.36099,-0.143c0.11699,-0.061 0.23201,-0.139 0.34401,-0.23c0.11298,-0.092 0.23398,-0.193 0.36098,-0.303l0.29501,0.295c-0.246,0.256 -0.53299,0.453 -0.86299,0.592c-0.332,0.137 -0.69301,0.207 -1.084,0.207c-0.40402,0 -0.75601,-0.07 -1.05301,-0.207c-0.29701,-0.139 -0.541,-0.322 -0.73399,-0.551c-0.19301,-0.23 -0.33702,-0.49 -0.433,-0.781s-0.14302,-0.59 -0.14302,-0.895c0,-0.369 0.05502,-0.697 0.166,-0.988c0.10898,-0.291 0.265,-0.539 0.46002,-0.744s0.42598,-0.361 0.68799,-0.469c0.26401,-0.10699 0.55301,-0.16 0.86501,-0.16c0.293,0 0.57201,0.049 0.836,0.146c0.26201,0.098 0.494,0.246 0.69301,0.441c0.19699,0.195 0.355,0.443 0.47299,0.744c0.11501,0.30099 0.174,0.654 0.174,1.064v0.193h-3.48l0,0.002zm2.672,-0.367c0,-0.594 -0.119,-1.061 -0.35899,-1.4s-0.57599,-0.51 -1.008,-0.51c-0.22501,0 -0.42001,0.053 -0.58401,0.16s-0.299,0.25 -0.40598,0.428c-0.10501,0.17799 -0.186,0.381 -0.23602,0.60899c-0.05298,0.23 -0.07799,0.469 -0.07799,0.71301h2.67099l0,0z" fill="#989899"/>
    <path id="svg_190" d="m206.72,107.805h-0.77901v-4.592h0.77901v2.084h2.32401v-2.084h0.78099v4.592h-0.78099v-2.195h-2.32401v2.195l0,0z" fill="#989899"/>
    <path id="svg_191" d="m214.41499,103.213h0.92v4.592h-0.77901v-4.021l-2.34201,4.021h-0.92v-4.592h0.78102v4.051l2.34,-4.051z" fill="#989899"/>
    <path id="svg_192" d="m217.401,105.711c0,0.373 0.05499,0.68 0.166,0.918c0.10899,0.24001 0.246,0.426 0.41,0.561c0.166,0.13499 0.34598,0.229 0.537,0.281c0.19098,0.051 0.375,0.078 0.545,0.078c0.15198,0 0.291,-0.01801 0.418,-0.051c0.125,-0.035 0.24399,-0.082 0.36099,-0.143c0.11501,-0.061 0.23,-0.139 0.34401,-0.23s0.23198,-0.193 0.36098,-0.303l0.293,0.295c-0.24399,0.256 -0.53299,0.453 -0.86298,0.592c-0.33,0.137 -0.69102,0.207 -1.084,0.207c-0.40402,0 -0.75401,-0.07 -1.05101,-0.207c-0.29701,-0.139 -0.54301,-0.322 -0.73599,-0.551c-0.19101,-0.23 -0.336,-0.49 -0.43202,-0.781c-0.09398,-0.291 -0.14098,-0.59 -0.14098,-0.895c0,-0.369 0.05498,-0.697 0.16399,-0.988c0.11101,-0.291 0.26201,-0.539 0.459,-0.744s0.42601,-0.361 0.68901,-0.469s0.55098,-0.16 0.86099,-0.16c0.297,0 0.57401,0.049 0.838,0.146s0.494,0.246 0.69301,0.441s0.35699,0.443 0.47299,0.744c0.11699,0.30099 0.17601,0.654 0.17601,1.064v0.193h-3.481l0,0.002zm2.674,-0.367c0,-0.594 -0.121,-1.061 -0.36099,-1.4s-0.57599,-0.51 -1.00801,-0.51c-0.22499,0 -0.42,0.053 -0.584,0.16s-0.299,0.25 -0.40398,0.428c-0.10703,0.17799 -0.188,0.381 -0.24002,0.60899c-0.05098,0.23 -0.076,0.469 -0.076,0.71301h2.673l0,0z" fill="#989899"/>
   </g>
  </g>
  <g id="svg_227">
   <g id="svg_228">
    <path id="svg_229" d="m127.287,428.439c1.80099,-0.93799 7.093,-3.159 7.093,-7.10599c0,-2.436 -1.588,-4.41 -3.54602,-4.41c-1.959,0 -3.547,1.39398 -3.547,3.828" fill="#C6C6C6"/>
    <path id="svg_230" d="m127.342,428.439c-1.8,-0.93799 -7.094,-3.159 -7.094,-7.10599c0,-2.436 1.588,-4.41 3.547,-4.41s3.547,1.39398 3.547,3.828" fill="#C6C6C6"/>
   </g>
   <path id="svg_231" d="m175.707,416.923c-3.772,0 -6.83,2.569 -6.83,5.73801c0,1.22098 0.457,2.34998 1.229,3.28l-0.207,0.513l-0.78101,1.94498l1.944,-0.78299l0.69501,-0.27899c1.11499,0.66599 2.47699,1.06299 3.94899,1.06299c3.772,0 6.83101,-2.569 6.83101,-5.73801s-3.058,-5.73898 -6.83,-5.73898z" fill="#C6C6C6"/>
   <g id="svg_232">
    <path id="svg_233" d="m219.755,416.923c-4.812,0 -8.71399,5.75598 -8.71399,5.75598s3.90198,5.75403 8.71399,5.75403c4.81401,0 8.71599,-5.75403 8.71599,-5.75403s-3.90198,-5.75598 -8.71599,-5.75598zm0,9.702c-2.179,0 -3.94501,-1.76801 -3.94501,-3.94601c0,-2.17999 1.767,-3.94598 3.94501,-3.94598c2.17999,0 3.94699,1.767 3.94699,3.94598c0,2.17801 -1.767,3.94601 -3.94699,3.94601z" fill="#C6C6C6"/>
    <circle id="svg_234" r="1.644" cy="422.678" cx="219.755" fill="#C6C6C6"/>
   </g>
   <g id="svg_235">
    <path id="svg_236" d="m268.06699,424.591c0,-0.396 -0.005,-0.793 0.00101,-1.189c0.01001,-0.70599 -0.01102,-1.41602 0.04498,-2.11902c0.10901,-1.367 1.25201,-2.57199 2.61301,-2.80399c0.24899,-0.04416 0.504,-0.06302 0.758,-0.06418c1.67001,-0.00702 3.33902,-0.004 5.00806,-0.004c0.13315,0 0.26413,0 0.43811,0c0,-0.59702 0,-1.17401 0,-1.75c0.02594,-0.013 0.05084,-0.02402 0.07703,-0.03494c0.99301,0.91293 1.98599,1.82712 3.00601,2.76297c-1.01819,0.93597 -2.00601,1.84497 -3.05502,2.80896c0,-0.64301 0,-1.20581 0,-1.806c-0.142,-0.008 -0.246,-0.01889 -0.353,-0.01889c-1.74698,0 -3.49298,-0.00192 -5.24106,0c-0.76813,0.00189 -1.33392,0.56708 -1.34494,1.34009c-0.00598,0.3309 -0.00119,0.66199 -0.00119,1.02698c-0.63797,0.60602 -1.28595,1.22 -1.95099,1.85101z" fill="#C6C6C6" clip-rule="evenodd" fill-rule="evenodd"/>
    <path id="svg_237" d="m268.80399,425.63501c1.02002,-0.93802 2.00803,-1.84702 3.05701,-2.811c0,0.64499 0,1.20999 0,1.80399c0.142,0.009 0.24701,0.021 0.354,0.021c1.74701,0.00101 3.49402,0.00302 5.23999,0c0.76801,-0.00098 1.33301,-0.56799 1.34402,-1.34198c0.00497,-0.33099 0,-0.66202 0,-1.026c0.64099,-0.60602 1.28799,-1.22 1.935,-1.832c0.00299,0.056 0.017,0.14899 0.017,0.245c0.00101,0.85101 0.005,1.703 0,2.55399c-0.01102,1.93802 -1.44501,3.362 -3.38602,3.36401c-1.67999,0 -3.36099,0 -5.04099,0c-0.13202,0 -0.26401,0 -0.43802,0c0,0.59702 0,1.17401 0,1.75201c-0.026,0.00998 -0.04999,0.021 -0.07498,0.03098c-0.98999,-0.90799 -1.97699,-1.814 -3.00702,-2.75998l0,0l0,0l0,0l0,0l0,0l0,0z" fill="#C6C6C6" clip-rule="evenodd" fill-rule="evenodd"/>
   </g>
   <g id="svg_238">
    <text id="svg_239" font-size="11.3062" font-family="'Helvetica-Regular'" fill="#C6C6C6" transform="matrix(1,0,0,1,139.3535,427.0293) ">12</text>
   </g>
   <g id="svg_240">
    <text id="svg_241" font-size="11.3062" font-family="'Helvetica-Regular'" fill="#C6C6C6" transform="matrix(1,0,0,1,233.1006,427.0293) ">1200</text>
   </g>
   <g id="svg_242">
    <text id="svg_243" font-size="11.3062" font-family="'Helvetica-Regular'" fill="#C6C6C6" transform="matrix(1,0,0,1,187.4053,427.0293) ">3</text>
   </g>
  </g>
  <g id="svg_244">
   <polygon id="svg_245" points="191.25,483.569 194.5,480.266 197.75,476.964 197.75,483.569 197.75,490.172 194.5,486.871  " fill="#9D9D9C"/>
   <path id="svg_246" d="m196.25,481.069c10.15401,0 13.5,7.31201 13.5,7.31201s-4.40601,-3.375 -13.5,-3.375c0,-1.92502 0,-3.93701 0,-3.93701z" fill="#9D9D9C"/>
  </g>
  <path id="svg_247" d="m197.112,542.56598c-0.395,1.12103 -0.782,2.23004 -1.17799,3.35504c0.39699,0.03101 0.797,-0.00201 1.20399,0.01801c0,0.68597 0,1.367 0,2.06299c-2.701,0 -5.412,0 -8.132,0c0,-0.67999 0,-1.35901 0,-2.06104c0.50801,0 1.022,0 1.55,0c0.082,-0.18396 0.168,-0.35199 0.231,-0.52698c0.117,-0.32599 0.242,-0.65002 0.368,-0.97498c0.16501,-0.43201 0.34,-0.86102 0.509,-1.29102c0.133,-0.34003 0.27,-0.67804 0.41,-1.01599c0.116,-0.27899 0.222,-0.56305 0.334,-0.84399c0.092,-0.23199 0.194,-0.45905 0.278,-0.69305c0.16699,-0.461 0.35699,-0.91199 0.53799,-1.36694c0.12199,-0.30701 0.242,-0.61304 0.35899,-0.92004c0.16301,-0.43396 0.34201,-0.86096 0.51001,-1.29297c0.12599,-0.32001 0.259,-0.64301 0.39099,-0.96503c0.125,-0.30298 0.263,-0.604 0.356,-0.922c0.067,-0.229 0.19501,-0.43896 0.276,-0.664c0.164,-0.461 0.37201,-0.90601 0.53101,-1.37097c0.086,-0.25 0.207,-0.48999 0.314,-0.74402c0.088,0.125 0.196,0.23999 0.254,0.37701c0.15601,0.35498 0.37201,0.67596 0.562,1.01001c0.19101,0.336 0.367,0.67999 0.584,1.00195c0.125,0.18402 0.192,0.40601 0.31401,0.59204c0.218,0.32996 0.37999,0.69501 0.604,1.021c0.10199,0.146 0.168,0.31598 0.25499,0.47296c0.19,0.34406 0.39101,0.68402 0.58101,1.02905c0.22899,0.40594 0.45799,0.81396 0.69499,1.21295c0.192,0.31604 0.34601,0.65601 0.57001,0.95105c0.04199,0.05499 0.056,0.13098 0.08699,0.20697c0.119,-0.047 0.151,-0.15997 0.201,-0.24402c0.229,-0.396 0.46001,-0.79297 0.688,-1.19098c0.188,-0.33203 0.37399,-0.66998 0.565,-1.00598c0.189,-0.336 0.36699,-0.67999 0.584,-1.00201c0.123,-0.18402 0.19299,-0.40399 0.314,-0.59003c0.21899,-0.33197 0.381,-0.69501 0.60699,-1.021c0.10001,-0.146 0.166,-0.31598 0.25,-0.47296c0.19101,-0.34601 0.39101,-0.68805 0.584,-1.02899c0.242,-0.42206 0.49001,-0.83606 0.72101,-1.26404c0.00999,-0.01599 0.02699,-0.02698 0.05899,-0.05902c0.08801,0.20502 0.17801,0.40002 0.25601,0.60004c0.123,0.31396 0.23399,0.633 0.36099,0.94897c0.168,0.42999 0.355,0.854 0.51001,1.29102c0.07999,0.22699 0.20699,0.43597 0.27899,0.66199c0.10699,0.32202 0.26401,0.625 0.35899,0.95099c0.06601,0.23004 0.19901,0.43903 0.27501,0.664c0.162,0.46503 0.36099,0.91205 0.533,1.36902c0.12299,0.31403 0.254,0.62903 0.38699,0.93903c0.13499,0.31097 0.23801,0.633 0.35899,0.94897c0.084,0.21503 0.16,0.43604 0.26001,0.64301c0.11099,0.23401 0.205,0.47699 0.295,0.71698c0.086,0.23199 0.22701,0.44904 0.254,0.703c0.256,0.47302 0.39799,0.992 0.605,1.48401c0.17601,0.41602 0.35701,0.83398 0.496,1.26801c0.03101,0.10199 0.11501,0.17999 0.119,0.30103c0.002,0.05499 0.064,0.11096 0.14799,0.09998c0.05501,-0.008 0.11501,-0.00201 0.172,-0.00201c0.42401,0 0.84801,0 1.28101,0c0,0.69501 0,1.383 0,2.07599c-2.713,0 -5.416,0 -8.129,0c0,-0.68396 0,-1.36499 0,-2.05896c-0.006,0.00598 0,-0.00201 0.00999,-0.008c0.00801,-0.00403 0.01601,-0.008 0.01601,-0.008c0.39099,-0.00201 0.77499,-0.00201 1.189,-0.00201c-0.39999,-1.13098 -0.791,-2.242 -1.18399,-3.35699c-0.17401,0.29102 -0.34001,0.56799 -0.50601,0.84601c-0.17799,0.29297 -0.35399,0.58398 -0.53099,0.87695c-0.18001,0.29303 -0.354,0.586 -0.53101,0.87903c-0.14799,0.23798 -0.299,0.47302 -0.438,0.71503c-0.17599,0.30499 -0.379,0.58997 -0.547,0.89996c-0.14999,0.27502 -0.328,0.53699 -0.495,0.80701c-0.108,0.17603 -0.218,0.34998 -0.332,0.53101c0,0 -0.006,0 -0.01601,0c-0.009,0 -0.024,0.00397 -0.024,0.00397c-1.086,-1.85394 -2.24399,-3.65594 -3.32799,-5.50397c-0.004,-0.01501 -0.013,-0.03003 -0.03101,-0.06403l0,0l0,0l0,0l0,0l0,0l0,0z" fill="#37B39C" clip-rule="evenodd" fill-rule="evenodd"/>
  <g id="svg_248">
   <text id="svg_249" font-size="37.4596" font-family="'DINPro-Regular'" fill="#878787" transform="matrix(1,0,0,1,167.9971,617.0762) "></text>
   <text id="svg_250" font-size="37.4596" font-family="'DINPro-Regular'" fill="#878787" transform="matrix(-1,0,0,-1,233.0029,613.0625) "></text>
  </g>
  <g id="svg_251">
   <rect id="svg_252" height="30.395" width="41.125" fill="#EBEBEB" y="706.558" x="184.802"/>
   <g id="svg_253">
    <g id="svg_254">
     <path id="svg_255" d="m198.724,714.98499v3.21698h-3.217v-3.21698h3.217m1.5,-1.5h-6.217v6.21698h6.217v-6.21698l0,0z" fill="#BBBBBB"/>
    </g>
    <g id="svg_256">
     <rect id="svg_257" height="1.434" width="22.715" fill="#BBBBBB" y="722.651" x="194.007"/>
    </g>
    <g id="svg_258">
     <rect id="svg_259" height="1.436" width="22.715" fill="#BBBBBB" y="727.272" x="194.007"/>
    </g>
    <g id="svg_260">
     <rect id="svg_261" height="1.434" width="13.15" fill="#BBBBBB" y="718.269" x="203.571"/>
    </g>
    <g id="svg_262">
     <rect id="svg_263" height="1.434" width="13.15" fill="#BBBBBB" y="713.485" x="203.571"/>
    </g>
   </g>
   <polygon id="svg_264" points="214.927,685.431 184.802,685.431 184.802,704.558 225.927,704.558 225.927,696.431  " fill="#4DCEB5"/>
   <g id="svg_265">
    <g id="svg_266">
     <polygon id="svg_267" points="214.927,696.431 225.927,696.431 214.927,685.431    " fill="#37B39C"/>
    </g>
   </g>
   <g id="svg_268">
    <path id="svg_269" d="m196.621,695.73999h-1.38v2.20502h-0.91899v-5.60498h2.299c1.18399,0 1.94099,0.724 1.94099,1.69995s-0.757,1.70001 -1.94099,1.70001l0,0l0,0l0,0l0,0l0,0l0,0zm-0.05099,-2.63599h-1.32901v1.86499h1.32901c0.63899,0 1.07199,-0.33801 1.07199,-0.92902s-0.433,-0.93597 -1.07199,-0.93597z" fill="#FFFFFF"/>
    <path id="svg_270" d="m203.457,697.41803c-0.384,0.354 -0.937,0.52698 -1.56599,0.52698h-2.12901v-5.60498h2.12901c0.62999,0 1.183,0.17297 1.56599,0.52698c0.655,0.60504 0.61301,1.42505 0.61301,2.23505c0,0.81195 0.04199,1.70996 -0.61301,2.31598zm-0.63,-3.93701c-0.256,-0.26099 -0.597,-0.37799 -1.03,-0.37799h-1.116v4.078h1.116c0.43401,0 0.774,-0.11798 1.03,-0.37799c0.31401,-0.323 0.323,-0.92902 0.323,-1.70105c0,-0.771 -0.008,-1.29797 -0.323,-1.62097z" fill="#FFFFFF"/>
    <path id="svg_271" d="m206.435,693.104v1.70801h2.521v0.76398h-2.521v2.37h-0.91899v-5.60498h3.87399v0.76398h-2.955l0,-0.00098z" fill="#FFFFFF"/>
   </g>
  </g>
  <g id="svg_193">
   <g id="svg_194">
    <circle id="svg_195" r="21.5" cy="226.76" cx="229.012" fill="#fff"/>
    <circle id="svg_196" r="13.5" cy="226.76" cx="229.012" stroke-miterlimit="10" stroke="#37B39C" fill="none"/>
    <g id="svg_197">
     <g id="svg_198">
      <path id="svg_199" d="m228.73,221.438l4.354,4.35199c0.22701,0.22701 0.35201,0.53101 0.35201,0.85201c0,0.31801 -0.125,0.623 -0.35201,0.847l-4.18201,4.183l-1.69699,-1.69899l3.332,-3.33l-3.504,-3.504l1.69699,-1.701z" fill="#37B39C"/>
     </g>
    </g>
   </g>
   <g id="svg_200">
    <circle id="svg_201" r="21.5" cy="226.76" cx="171.988" fill="#fff"/>
    <circle id="svg_202" r="13.5" cy="226.76" cx="171.988" stroke-miterlimit="10" stroke="#37B39C" fill="none"/>
    <g id="svg_203">
     <g id="svg_204">
      <path id="svg_205" d="m172.269,232.082l-4.354,-4.35201c-0.22699,-0.22699 -0.35199,-0.532 -0.35199,-0.85199c0,-0.31801 0.125,-0.623 0.35199,-0.849l4.18201,-4.181l1.69901,1.69899l-3.332,3.33l3.502,3.504l-1.69701,1.701l0,0l0,0l0,0l0,0l0,0l0,0z" fill="#37B39C"/>
     </g>
    </g>
   </g>
  </g>
  <g id="svg_221">
   <g id="svg_222">
    <g id="svg_223">
     <path id="svg_224" d="m199.862,372.92499c-2.77299,0 -5.02901,-2.25601 -5.02901,-5.02798s2.25601,-5.02802 5.02901,-5.02802c2.77299,0 5.02901,2.25601 5.02901,5.02802s-2.25601,5.02798 -5.02901,5.02798zm0,-8.715c-2.033,0 -3.688,1.65298 -3.688,3.68701s1.65401,3.68799 3.688,3.68799c2.033,0 3.687,-1.65399 3.687,-3.68799s-1.65399,-3.68701 -3.687,-3.68701z" fill="#B2B2B2"/>
    </g>
    <g id="svg_225">
     <rect id="svg_226" height="1.341" width="4.03" fill="#B2B2B2" transform="matrix(0.7071,0.7071,-0.7071,0.7071,323.0876,-35.3951) " y="371.633" x="202.255"/>
    </g>
   </g>
  </g>
  <g id="svg_206">
   <g id="svg_207">
    <path id="svg_208" d="m152.972,308c-0.007,-0.10101 -0.021,-0.20499 -0.021,-0.30701c-0.002,-1.95999 -0.002,-3.91998 -0.002,-5.87799c0,-0.10001 0,-0.203 0,-0.33899c-0.75601,0 -1.479,0 -2.21701,0c0,-0.88101 0,-1.72501 0,-2.604c0.73201,0 1.455,0 2.201,0c0.008,-0.12601 0.01601,-0.21899 0.01601,-0.31c0.002,-0.64401 -0.02901,-1.28601 0.00999,-1.92502c0.078,-1.211 0.563,-2.20398 1.72701,-2.71298c0.40199,-0.17603 0.862,-0.27002 1.30299,-0.29102c0.68401,-0.035 1.367,0.021 2.05099,0.04102c0.05901,0.00198 0.117,0.021 0.19101,0.035c0,0.77597 0,1.543 0,2.34799c-0.11301,0 -0.22501,-0.00201 -0.332,0c-0.47701,0.017 -0.953,0.021 -1.42599,0.05399c-0.492,0.03 -0.80101,0.32001 -0.82201,0.806c-0.02701,0.63501 -0.006,1.27301 -0.006,1.95001c0.81299,0 1.63899,0 2.51199,0c-0.11499,0.884 -0.22499,1.72598 -0.336,2.59601c-0.73801,0 -1.451,0 -2.19701,0c-0.00999,0.12598 -0.02499,0.228 -0.02499,0.323c0,1.96899 0,3.93799 0,5.90598c0,0.10202 -0.01601,0.20602 -0.02299,0.30701c-0.87001,0.00101 -1.73601,0.00101 -2.604,0.00101l0,0l0,0l0,0l0,0l0,0l0,0z" fill="#37B39C" clip-rule="evenodd" fill-rule="evenodd"/>
    <path id="svg_209" d="m177.159,305.82101c1.713,0.13098 3.252,-0.29401 4.69101,-1.33099c-1.459,-0.19 -2.45099,-0.90402 -2.96501,-2.276c0.47101,-0.01602 0.90001,0.05798 1.36302,-0.07901c-1.01402,-0.28299 -1.73602,-0.86301 -2.18402,-1.767c-0.21898,-0.43799 -0.342,-0.909 -0.31099,-1.44601c0.43901,0.15302 0.836,0.35501 1.336,0.35202c-1.379,-1.224 -1.66901,-2.63501 -0.88101,-4.27301c1.77,2.01901 3.953,3.168 6.65402,3.354c-0.211,-1.603 0.29701,-2.853 1.71701,-3.59601c1.418,-0.74698 2.72702,-0.41901 3.89601,0.62701c0.711,-0.12201 1.35501,-0.40601 2.004,-0.72101c-0.18799,0.71701 -0.64499,1.23801 -1.207,1.689c0.56799,-0.04401 1.09599,-0.229 1.65199,-0.39899c-0.03099,0.05399 -0.063,0.10999 -0.09999,0.16199c-0.34802,0.48102 -0.74002,0.922 -1.22101,1.27499c-0.19699,0.14603 -0.25201,0.31601 -0.25201,0.54901c0.00801,2.01401 -0.59,3.84601 -1.74002,5.48801c-1.51598,2.16 -3.59998,3.41199 -6.21898,3.75699c-2.12099,0.27701 -4.12099,-0.10999 -5.97702,-1.194c-0.086,-0.05301 -0.17,-0.112 -0.256,-0.17099z" fill="#37B39C" clip-rule="evenodd" fill-rule="evenodd"/>
    <g id="svg_210">
     <path id="svg_211" d="m236.442,296.647c0,-0.92999 0,-1.82101 0,-2.74701c3.25999,0.05499 6.17599,1.048 8.67999,3.10901c3.35399,2.76099 5.01401,6.35599 5.14601,10.70099c-0.93202,0 -1.828,0 -2.754,0c-0.06602,-3.02399 -1.104,-5.66 -3.25201,-7.80698c-2.14799,-2.15302 -4.78099,-3.19803 -7.81999,-3.25601z" fill="#37B39C" clip-rule="evenodd" fill-rule="evenodd"/>
     <path id="svg_212" d="m245.591,307.716c-0.91,0 -1.77701,0 -2.625,0c-0.414,-3.948 -2.578,-6.116 -6.52701,-6.52402c0,-0.85397 0,-1.72498 0,-2.62598c2.38701,0.047 4.47301,0.84299 6.207,2.46201c1.91901,1.793 2.88199,4.03699 2.94501,6.68799z" fill="#37B39C" clip-rule="evenodd" fill-rule="evenodd"/>
     <path id="svg_213" d="m240.2,305.84399c0,1.02499 -0.86499,1.883 -1.903,1.88098c-0.99699,0 -1.875,-0.89398 -1.87199,-1.90298c0.00401,-1 0.895,-1.87299 1.90399,-1.871c1.01402,0.00302 1.871,0.87003 1.871,1.89301z" fill="#37B39C" clip-rule="evenodd" fill-rule="evenodd"/>
    </g>
    <g id="svg_214">
     <path id="svg_215" d="m213.04401,299.759c1.547,0 3.09399,0 4.64099,0c1.457,0 2.75,1.09299 2.99001,2.539c0.02899,0.17899 0.049,0.362 0.049,0.54599c0.004,1.18802 0.002,2.37399 0.002,3.56c0,1.51401 -1.05899,2.78302 -2.549,3.04901c-0.186,0.035 -0.381,0.048 -0.57401,0.048c-3.037,0.004 -6.076,0.004 -9.117,0.00198c-1.51199,0 -2.75999,-1.01801 -3.06099,-2.492c-0.039,-0.18399 -0.05501,-0.37299 -0.05501,-0.56c-0.006,-1.194 -0.006,-2.38998 -0.006,-3.586c0.004,-1.43198 0.93001,-2.646 2.31801,-3.00598c0.23399,-0.05902 0.48,-0.095 0.72099,-0.095c1.547,-0.008 3.09399,-0.005 4.64101,-0.005zm1.45099,7.70499c0.02,-0.01599 0.04701,-0.03098 0.06601,-0.04599c0.01799,0.03601 0.02699,0.08801 0.05699,0.11401c0.09401,0.077 0.188,0.168 0.297,0.224c0.42601,0.20499 0.97701,0.12997 1.15601,-0.379c0.047,-0.13501 0.078,-0.285 0.082,-0.42502c0.006,-0.99298 0.008,-1.98099 -0.004,-2.96899c-0.002,-0.16699 -0.041,-0.345 -0.09801,-0.50201c-0.14999,-0.39798 -0.50999,-0.582 -0.92099,-0.48398c-0.21001,0.048 -0.375,0.17499 -0.522,0.328c-0.02701,0.02899 -0.05701,0.05499 -0.11301,0.10397c0,-0.72198 0,-1.40198 0,-2.09198c-0.293,0 -0.56999,0 -0.855,0c0,2.15399 0,4.297 0,6.44598c0.287,0 0.56599,0 0.855,0c0,-0.11298 0,-0.216 0,-0.319zm4.938,-1.95798c0,-0.522 0.035,-1.02402 -0.011,-1.51901c-0.073,-0.827 -0.7,-1.177 -1.464,-1.04999c-0.668,0.10999 -1.08199,0.63098 -1.086,1.31c-0.002,0.76199 -0.002,1.52399 0,2.28598c0,0.10901 0.01401,0.21902 0.02901,0.32602c0.082,0.547 0.43199,0.93399 0.955,1.03299c0.168,0.035 0.34999,0.03299 0.52299,0.01599c0.43201,-0.04199 0.77,-0.241 0.93401,-0.65799c0.06999,-0.18301 0.108,-0.38599 0.131,-0.58301c0.02299,-0.17899 0.008,-0.36398 0.008,-0.54199c-0.299,0 -0.58,0 -0.86699,0c-0.00601,0.19699 -0.01401,0.38501 -0.02301,0.573c-0.015,0.229 -0.086,0.35199 -0.24199,0.39999c-0.30701,0.09302 -0.535,-0.06198 -0.54901,-0.39099c-0.01799,-0.366 -0.01599,-0.73099 -0.01799,-1.09399c0,-0.03302 0.00999,-0.064 0.01999,-0.108c0.56,0.00101 1.11101,0.00101 1.66,0.00101l0,0l0,0l0,0l0,0l0,0l0,0zm-7.565,-2.461c0,0.064 0,0.11499 0,0.164c0,1.112 0,2.22098 0,3.33298c0,0.052 0,0.12601 -0.02899,0.15402c-0.127,0.10999 -0.25601,0.23099 -0.40201,0.31c-0.174,0.08798 -0.314,-0.004 -0.35199,-0.19501c-0.01201,-0.06601 -0.01201,-0.133 -0.01201,-0.198c0,-1.138 0,-2.27402 0,-3.41101c0,-0.04898 0,-0.09601 0,-0.151c-0.289,0 -0.561,0 -0.84999,0c0,0.06702 0,0.12 0,0.17502c0,1.26797 0,2.539 0,3.81198c0,0.078 0.002,0.16 0.01199,0.237c0.041,0.453 0.36301,0.677 0.799,0.56302c0.28101,-0.07202 0.506,-0.24002 0.701,-0.44702c0.035,-0.03299 0.07401,-0.06598 0.13899,-0.125c0,0.19702 0,0.35602 0,0.521c0.291,0 0.57001,0 0.85001,0c0,-1.586 0,-3.159 0,-4.73898c-0.286,-0.00299 -0.55901,-0.00299 -0.856,-0.00299zm-2.69899,4.74197c0,-1.85898 0,-3.69498 0,-5.55399c0.34599,0 0.67999,0 1.01599,0c0,-0.31201 0,-0.60199 0,-0.89401c-1.013,0 -2.013,0 -3.01599,0c0,0.29901 0,0.59 0,0.90201c0.342,0 0.67599,0 1.02499,0c0,1.85599 0,3.69501 0,5.54501c0.328,0.00098 0.63699,0.00098 0.97501,0.00098z" fill="#37B39C" clip-rule="evenodd" fill-rule="evenodd"/>
     <path id="svg_216" d="m210.659,298.63699c-0.354,0 -0.689,0 -1.03299,0c-0.00201,-0.061 -0.00801,-0.11499 -0.00801,-0.168c-0.002,-0.625 -0.01199,-1.24802 0.002,-1.87c0.01001,-0.37201 -0.049,-0.72202 -0.15799,-1.073c-0.34001,-1.08401 -0.668,-2.17401 -1,-3.26202c-0.01201,-0.04099 -0.02101,-0.086 -0.03499,-0.14297c0.355,0 0.69098,0 1.03899,0c0.21701,0.862 0.43399,1.71899 0.64799,2.57898c0.01601,0 0.02901,0.00101 0.041,0.00101c0.205,-0.86099 0.412,-1.71799 0.619,-2.57999c0.354,0 0.69299,0 1.047,0c-0.01199,0.05499 -0.02,0.09799 -0.035,0.14099c-0.35898,1.17801 -0.72499,2.35501 -1.084,3.53601c-0.02498,0.08798 -0.041,0.18198 -0.041,0.26999c-0.002,0.797 -0.002,1.59299 -0.002,2.392c0,0.05002 0,0.10501 0,0.177z" fill="#37B39C" clip-rule="evenodd" fill-rule="evenodd"/>
     <path id="svg_217" d="m211.75101,296.19101c0,-0.41599 0,-0.836 0,-1.254c0,-0.63602 0.336,-1.06601 0.959,-1.20001c0.46202,-0.10098 0.90001,-0.048 1.27,0.28601c0.244,0.22101 0.377,0.50201 0.381,0.832c0.004,0.89999 0.004,1.80301 0,2.70499c-0.004,0.68701 -0.51799,1.18903 -1.203,1.207c-0.40198,0.013 -0.77298,-0.06598 -1.064,-0.37198c-0.22701,-0.23901 -0.334,-0.52902 -0.338,-0.858c-0.01102,-0.44501 -0.005,-0.89401 -0.005,-1.34601zm1.67099,0.02698l0,0c-0.00099,-0.44699 0.00301,-0.896 -0.00499,-1.345c-0.00201,-0.20099 -0.158,-0.314 -0.39101,-0.306c-0.19301,0.005 -0.32401,0.13699 -0.328,0.32401c0,0.17599 0,0.353 0,0.52798c0,0.70102 0,1.40601 0,2.112c0,0.229 0.125,0.36301 0.338,0.367c0.246,0.005 0.38101,-0.12399 0.386,-0.388c0.00301,-0.42899 0,-0.86099 0,-1.29199z" fill="#37B39C" clip-rule="evenodd" fill-rule="evenodd"/>
     <path id="svg_218" d="m216.741,293.82199c0.27901,0 0.539,-0.00101 0.797,0c0.039,0 0.07402,0.004 0.121,0.00699c0,1.60501 0,3.198 0,4.80502c-0.299,0 -0.59399,0 -0.91,0c0,-0.14603 0,-0.29401 0,-0.466c-0.133,0.112 -0.23198,0.20898 -0.342,0.29599c-0.213,0.16101 -0.44499,0.26599 -0.72299,0.254c-0.23401,-0.013 -0.412,-0.11899 -0.496,-0.341c-0.049,-0.117 -0.088,-0.25 -0.088,-0.37698c-0.00401,-1.35703 -0.002,-2.715 -0.002,-4.07202c0,-0.02792 0.002,-0.05698 0.008,-0.095c0.30099,0 0.59399,0 0.899,0c0.00499,0.06302 0.013,0.117 0.013,0.17615c0,1.14389 0,2.28894 0,3.43286c0,0.06302 -0.004,0.12701 0.00601,0.186c0.02199,0.15701 0.13698,0.22501 0.28499,0.17499c0.17599,-0.06 0.30499,-0.185 0.43199,-0.32898c0,-1.207 0,-2.41901 0,-3.65201z" fill="#37B39C" clip-rule="evenodd" fill-rule="evenodd"/>
     <path id="svg_219" d="m214.49699,305.40601c0,-0.44699 0.008,-0.89499 -0.002,-1.34299c-0.00601,-0.164 0.06999,-0.24701 0.19899,-0.31c0.27101,-0.134 0.539,0.00598 0.57001,0.31c0.00999,0.10001 0.01599,0.198 0.01599,0.30099c0.002,0.73099 0.002,1.46701 0,2.20099c0,0.095 -0.006,0.19299 -0.01799,0.28601c-0.021,0.207 -0.18001,0.32001 -0.382,0.28198c-0.071,-0.01398 -0.144,-0.04599 -0.21001,-0.07898c-0.125,-0.06601 -0.18199,-0.159 -0.17599,-0.314c0.01102,-0.44202 0.00301,-0.88803 0.00301,-1.33401z" fill="#37B39C" clip-rule="evenodd" fill-rule="evenodd"/>
     <path id="svg_220" d="m218.554,304.798c-0.26199,0 -0.51801,0 -0.78101,0c-0.008,-0.03601 -0.01999,-0.06601 -0.01999,-0.09799c0.002,-0.203 0,-0.405 0.01599,-0.604c0.01801,-0.245 0.15001,-0.371 0.381,-0.37802c0.21501,-0.013 0.373,0.10202 0.397,0.332c0.026,0.242 0.007,0.48901 0.007,0.74802l0,0l0,0l0,0l0,0l0,0l0,0z" fill="#37B39C" clip-rule="evenodd" fill-rule="evenodd"/>
    </g>
   </g>
  </g>
  <g id="svg_272">
   <g id="svg_273">
    <path id="svg_274" d="m128.287,448.439c1.80099,-0.93799 7.093,-3.159 7.093,-7.10599c0,-2.436 -1.588,-4.41 -3.54602,-4.41c-1.959,0 -3.547,1.39398 -3.547,3.828" fill="#fff"/>
    <path id="svg_275" d="m128.34201,448.439c-1.80002,-0.93799 -7.09401,-3.159 -7.09401,-7.10599c0,-2.436 1.588,-4.41 3.547,-4.41s3.54701,1.39398 3.54701,3.828" fill="#fff"/>
   </g>
   <path id="svg_276" d="m176.707,436.923c-3.772,0 -6.83,2.569 -6.83,5.73801c0,1.22098 0.457,2.34998 1.229,3.28l-0.207,0.513l-0.78101,1.94498l1.944,-0.78299l0.69501,-0.27899c1.11499,0.66599 2.47699,1.06299 3.94899,1.06299c3.772,0 6.83101,-2.569 6.83101,-5.73801s-3.058,-5.73898 -6.83,-5.73898z" fill="#fff"/>
   <g id="svg_277">
    <path id="svg_278" d="m220.755,436.923c-4.812,0 -8.71399,5.75598 -8.71399,5.75598s3.90198,5.75403 8.71399,5.75403c4.81401,0 8.71599,-5.75403 8.71599,-5.75403s-3.90198,-5.75598 -8.71599,-5.75598zm0,9.702c-2.179,0 -3.94501,-1.76801 -3.94501,-3.94601c0,-2.17999 1.767,-3.94598 3.94501,-3.94598c2.17999,0 3.94699,1.767 3.94699,3.94598c0,2.17801 -1.767,3.94601 -3.94699,3.94601z" fill="#fff"/>
    <circle id="svg_279" r="1.644" cy="442.678" cx="220.755" fill="#fff"/>
   </g>
   <g id="svg_280">
    <path id="svg_281" d="m269.06699,444.591c0,-0.396 -0.005,-0.793 0.00101,-1.189c0.01001,-0.70599 -0.01102,-1.41602 0.04498,-2.11902c0.10901,-1.367 1.25201,-2.57199 2.61301,-2.80399c0.24899,-0.04416 0.504,-0.06302 0.758,-0.06418c1.67001,-0.00702 3.33902,-0.004 5.00806,-0.004c0.13315,0 0.26413,0 0.43811,0c0,-0.59702 0,-1.17401 0,-1.75c0.02594,-0.013 0.05084,-0.02402 0.07703,-0.03494c0.99301,0.91293 1.98599,1.82712 3.00601,2.76297c-1.01819,0.93597 -2.00601,1.84497 -3.05502,2.80896c0,-0.64301 0,-1.20581 0,-1.806c-0.142,-0.008 -0.246,-0.01889 -0.353,-0.01889c-1.74698,0 -3.49298,-0.00192 -5.24106,0c-0.76813,0.00189 -1.33392,0.56708 -1.34494,1.34009c-0.00598,0.3309 -0.00119,0.66199 -0.00119,1.02698c-0.63797,0.60602 -1.28595,1.22 -1.95099,1.85101z" fill="#fff" clip-rule="evenodd" fill-rule="evenodd"/>
    <path id="svg_282" d="m269.80399,445.63501c1.02002,-0.93802 2.00803,-1.84702 3.05701,-2.811c0,0.64499 0,1.20999 0,1.80399c0.142,0.009 0.24701,0.021 0.354,0.021c1.74701,0.00101 3.49402,0.00302 5.23999,0c0.76801,-0.00098 1.33301,-0.56799 1.34402,-1.34198c0.00497,-0.33099 0,-0.66202 0,-1.026c0.64099,-0.60602 1.28799,-1.22 1.935,-1.832c0.00299,0.056 0.017,0.14899 0.017,0.245c0.00101,0.85101 0.005,1.703 0,2.55399c-0.01102,1.93802 -1.44501,3.362 -3.38602,3.36401c-1.67999,0 -3.36099,0 -5.04099,0c-0.13202,0 -0.26401,0 -0.43802,0c0,0.59702 0,1.17401 0,1.75201c-0.026,0.00998 -0.04999,0.021 -0.07498,0.03098c-0.98999,-0.90799 -1.97699,-1.814 -3.00702,-2.75998l0,0l0,0l0,0l0,0l0,0l0,0z" fill="#fff" clip-rule="evenodd" fill-rule="evenodd"/>
   </g>
   <g id="svg_283">
    <text x="1" y="20" id="svg_284" font-size="11.3062" font-family="'Helvetica-Regular'" fill="#C6C6C6" transform="matrix(1,0,0,1,139.3535,427.0293) ">12</text>
   </g>
   <g id="svg_285">
    <text x="1" y="20" id="svg_286" font-size="11.3062" font-family="'Helvetica-Regular'" fill="#C6C6C6" transform="matrix(1,0,0,1,233.1006,427.0293) ">1200</text>
   </g>
   <g id="svg_287">
    <text x="1" y="20" id="svg_288" font-size="11.3062" font-family="'Helvetica-Regular'" fill="#C6C6C6" transform="matrix(1,0,0,1,187.4053,427.0293) ">3</text>
   </g>
   <g id="svg_2">
    <g id="svg_3">
     <path id="svg_4" d="m56.55173,405.71552c3.59629,-1.87296 14.16352,-6.30798 14.16352,-14.18942c0,-4.86429 -3.17093,-8.80609 -7.08078,-8.80609c-3.91181,0 -7.0828,2.7836 -7.0828,7.64386" fill="#fff"/>
     <path id="svg_5" d="m56.66155,405.71552c-3.59434,-1.87296 -14.16553,-6.30798 -14.16553,-14.18942c0,-4.86429 3.17097,-8.80609 7.08277,-8.80609s7.08277,2.7836 7.08277,7.64386" fill="#fff"/>
    </g>
    <path id="svg_6" d="m153.23846,382.72c-7.53207,0 -13.63837,5.12988 -13.63837,11.45792c0,2.43802 0.91251,4.6925 2.45412,6.54953l-0.41336,1.02441l-1.55954,3.88385l3.88185,-1.56357l1.38777,-0.5571c2.22649,1.3299 4.94614,2.12268 7.8855,2.12268c7.53206,0 13.64044,-5.12988 13.64044,-11.45789s-6.10635,-11.45984 -13.63841,-11.45984z" fill="#fff"/>
    <g id="svg_7">
     <path id="svg_8" d="m241.19508,382.72c-9.60875,0 -17.40042,11.49374 -17.40042,11.49374s7.7916,11.48984 17.40042,11.48984c9.61279,0 17.4044,-11.48984 17.4044,-11.48984s-7.79161,-11.49374 -17.4044,-11.49374zm0,19.37335c-4.35112,0 -7.87756,-3.53049 -7.87756,-7.87961c0,-4.35303 3.52843,-7.87949 7.87756,-7.87949c4.35307,0 7.88147,3.52847 7.88147,7.87949c0,4.34912 -3.5284,7.87961 -7.88147,7.87961z" fill="#fff"/>
     <circle id="svg_9" r="3.2828" cy="394.21181" cx="241.19506" fill="#fff"/>
    </g>
    <g id="svg_10">
     <path id="svg_11" d="m337.66611,398.03174c0,-0.79068 -0.00998,-1.58344 0.00201,-2.37418c0.01999,-1.40982 -0.02197,-2.82755 0.08981,-4.23138c0.21771,-2.72968 2.50009,-5.1358 5.21774,-5.59903c0.49719,-0.08813 1.00641,-0.12585 1.51361,-0.12805c3.33475,-0.01401 6.66745,-0.008 10.00027,-0.008c0.26572,0 0.52725,0 0.87476,0c0,-1.1922 0,-2.34427 0,-3.49442c0.05185,-0.02597 0.10156,-0.04807 0.15375,-0.06998c1.98288,1.82315 3.9657,3.64844 6.00253,5.51724c-2.03305,1.86911 -4.00571,3.68417 -6.1004,5.60916c0,-1.28403 0,-2.40796 0,-3.60635c-0.28354,-0.0159 -0.49124,-0.03778 -0.70486,-0.03778c-3.48843,0 -6.97491,-0.00388 -10.46542,0c-1.53381,0.00391 -2.66376,1.13239 -2.68573,2.67593c-0.01193,0.66071 -0.00226,1.32187 -0.00226,2.05069c-1.2739,1.21008 -2.56784,2.4361 -3.89581,3.69614z" fill="#fff" clip-rule="evenodd" fill-rule="evenodd"/>
     <path id="svg_12" d="m339.13779,400.11649c2.0368,-1.87308 4.0097,-3.68823 6.10434,-5.6131c0,1.28793 0,2.41614 0,3.60226c0.28354,0.01791 0.49323,0.0419 0.70688,0.0419c3.48849,0.00201 6.97699,0.00604 10.46341,0c1.53354,-0.00195 2.6618,-1.13416 2.68378,-2.67969c0.00992,-0.66092 0,-1.32199 0,-2.04877c1.27997,-1.21011 2.5719,-2.43613 3.86389,-3.65817c0.00595,0.11179 0.03391,0.29749 0.03391,0.4892c0.00201,1.69925 0.01001,3.40054 0,5.09988c-0.02197,3.8699 -2.88544,6.71329 -6.76129,6.71738c-3.35458,0 -6.7113,0 -10.06601,0c-0.26361,0 -0.52719,0 -0.8746,0c0,1.19211 0,2.34433 0,3.4985c-0.05191,0.01993 -0.09982,0.0419 -0.14972,0.06177c-1.9769,-1.81305 -3.94772,-3.62225 -6.00458,-5.51117l0,0l0,0l0,0l0,0z" fill="#fff" clip-rule="evenodd" fill-rule="evenodd"/>
    </g>
    <g id="svg_13">
     <text id="svg_14" x="-44.60587" y="-25.37208" font-size="11.3062" font-family="'Helvetica-Regular'" fill="#C6C6C6" transform="matrix(1.9968350689605927,0,0,1.9968350689605927,169.7170899326335,453.5644877539319) ">12</text>
    </g>
    <g id="svg_15">
     <text id="svg_16" x="-44.60587" y="-25.37208" font-size="11.3062" font-family="'Helvetica-Regular'" fill="#C6C6C6" transform="matrix(1.9968350689605927,0,0,1.9968350689605927,356.91458682598903,453.5644877539319) ">1200</text>
    </g>
    <g id="svg_17">
     <text id="svg_18" x="-44.60587" y="-25.37208" font-size="11.3062" font-family="'Helvetica-Regular'" fill="#C6C6C6" transform="matrix(1.9968350689605927,0,0,1.9968350689605927,265.6686092993142,453.5644877539319) ">3</text>
    </g>
   </g>
  </g>
  <g id="svg_1">
   <g id="svg_19">
    <circle r="17.84587" cy="263.06547" cx="226.91612" fill="none" id="svg_20"/>
    <circle r="11.20555" cy="263.06547" cx="226.91612" stroke-miterlimit="10" stroke="#fff" fill="none" id="svg_21"/>
    <g id="svg_22">
     <g id="svg_23">
      <path d="m226.68201,258.64801l3.614,3.612c0.18799,0.189 0.29199,0.44098 0.29199,0.707c0,0.26498 -0.104,0.51797 -0.29199,0.70398l-3.47101,3.47202l-1.409,-1.41101l2.76601,-2.76401l-2.90901,-2.90799l1.40901,-1.41199l0,0z" fill="#fff" id="svg_24"/>
     </g>
    </g>
   </g>
   <g id="svg_25">
    <circle r="17.84587" cy="263.06547" cx="179.58388" fill="none" id="svg_26"/>
    <circle r="11.20555" cy="263.06547" cx="179.58388" stroke-miterlimit="10" stroke="#fff" fill="none" id="svg_27"/>
    <g id="svg_28">
     <g id="svg_29">
      <path d="m179.81711,267.48297l-3.614,-3.61237c-0.1884,-0.18842 -0.29216,-0.44159 -0.29216,-0.70718c0,-0.26398 0.10376,-0.51712 0.29216,-0.70468l3.47124,-3.47043l1.41025,1.41022l-2.76569,2.76404l2.9068,2.90848l-1.4086,1.41193l0,0l0,0l0,0l0,0l0,0z" fill="#fff" id="svg_30"/>
     </g>
    </g>
   </g>
  </g>
 </g>
</svg>
