<svg width="47" height="47" xmlns="http://www.w3.org/2000/svg">
 <g>
  <title>Layer 1</title>
  <g id="svg_8">
   <g id="svg_9">
    <g id="svg_10">
     <g id="svg_11">
      <g id="svg_12">
       <path id="svg_13" d="m45.551,36.745c0,1.1 -0.9,2 -2,2h-9.492c-1.1,0 -2.637,0.637 -3.414,1.414l-4.847,4.847c-0.778,0.777 -2.05,0.777 -2.828,0l-4.846,-4.847c-0.778,-0.777 -2.314,-1.414 -3.414,-1.414h-10.26c-1.1,0 -2,-0.9 -2,-2v-33.012c0,-1.1 0.9,-2 2,-2h39.101c1.1,0 2,0.9 2,2v33.012l0,0l0,0l0,0l0,0z" fill="#fff"/>
      </g>
     </g>
    </g>
   </g>
  </g>
 </g>
</svg>
