<svg width="142" height="70" xmlns="http://www.w3.org/2000/svg">
 <g>
  <title>Layer 1</title>
  <g id="svg_16">
   <g id="svg_17">
    <g id="svg_18">
     <g id="svg_19">
      <path id="svg_20" d="m69.362999,62.692001c-0.875999,0 -1.697998,-0.34 -2.315002,-0.958l-5.215996,-5.216c-0.223,-0.224003 -0.882999,-0.497002 -1.198002,-0.497002h-54.248999c-1.805,0 -3.273,-1.469002 -3.273,-3.272999v-43.809001c0,-1.80501 1.468,-3.27301 3.273,-3.27301h125.228998c1.805008,0 3.272995,1.46901 3.272995,3.27301v43.809001c0,1.805 -1.468994,3.272999 -3.272995,3.272999h-53.520996c-0.314003,0 -0.975006,0.272999 -1.195999,0.495998l-5.219002,5.218002c-0.616005,0.618 -1.439003,0.957001 -2.315002,0.957001l0,0l0,0l0,0l0,0l0,0l0,0l0,0l0,0z" fill="#37B39C"/>
      <path id="svg_21" d="m131.613998,7.48399c0.800995,0 1.455002,0.653989 1.455002,1.455v43.809011c0,0.800999 -0.654007,1.454998 -1.455002,1.454998h-53.520996c-0.801003,0 -1.917999,0.463001 -2.483002,1.028999l-5.217003,5.217003c-0.282997,0.282997 -0.655998,0.424999 -1.028999,0.424999s-0.746002,-0.142002 -1.028999,-0.424999l-5.217003,-5.217003c-0.565994,-0.565998 -1.683998,-1.028999 -2.482998,-1.028999h-54.249989c-0.79998,0 -1.45498,-0.653999 -1.45498,-1.454998v-43.809011c0,-0.801011 0.655,-1.455 1.45498,-1.455h125.228989m0,-3.63599h-125.227988c-2.80798,0 -5.09198,2.284 -5.09198,5.092v43.809c0,2.807999 2.284,5.091999 5.09198,5.091999h54.118991c0.042,0.014 0.092999,0.035 0.132,0.056l5.125999,5.125999c0.959999,0.960003 2.238998,1.489002 3.600998,1.489002s2.640999,-0.528999 3.602005,-1.491001l5.125999,-5.125c0.038994,-0.02 0.089996,-0.041 0.131996,-0.055h53.391998c2.807999,0 5.091995,-2.284 5.091995,-5.091999v-43.809c-0.001999,-2.808001 -2.285995,-5.092 -5.093994,-5.092l0,0l0,0l0,0l0,0l0,0l0,0l0,0l0,0l0,0z" fill="#FFFFFF"/>
     </g>
    </g>
   </g>
   <g id="svg_22">
    <path id="svg_23" d="m24.27,19.172001c0.24,0 0.289999,0.169998 0.149,0.509998c-0.130001,0.35 -0.305,0.525002 -0.524,0.525002c-0.41,0 -0.959,0.009998 -1.647001,0.028999c-0.818998,0.031 -1.368,0.049 -1.647999,0.061001c0.01,3.018 0.164999,9.716999 0.463999,20.105c0.011002,0.229 -0.118999,0.438999 -0.389,0.628998s-0.408998,0.129002 -0.418999,-0.179996c-0.301001,-10.566002 -0.455,-17.395002 -0.465,-20.480001c0,-0.01 0.004,-0.029001 0.014999,-0.061001c-1.407999,0.072001 -2.223,-0.049 -2.441999,-0.358999c-0.130001,-0.18 -0.079,-0.414 0.15,-0.705c0.219999,-0.289 0.399,-0.332001 0.539,-0.132999c0.130001,0.179998 0.599001,0.259998 1.408001,0.24c0.24,0 0.539999,-0.016001 0.897999,-0.047001c0.360001,-0.02 0.565001,-0.035 0.615002,-0.045c0.278999,0 0.827999,-0.015999 1.646999,-0.045c0.690001,-0.018999 1.239,-0.034 1.649,-0.043999l0,0z" fill="#FFFFFF"/>
    <path id="svg_24" d="m31.82,31.893c0.119999,3.285002 -0.375,5.736002 -1.482998,7.355001c-0.479002,0.688999 -0.993002,1.231998 -1.543001,1.632999c-0.809,0.59 -1.483,0.649998 -2.023001,0.18c-0.788,-0.688999 -1.348999,-2.158001 -1.677,-4.403999c-1.01,-6.801001 -0.899,-12.340002 0.328001,-16.613001c0.050999,-0.150002 0.136,-0.271 0.255999,-0.361v-0.014c1.509001,-1.318001 2.802,-1.061001 3.880001,0.776999c0.658998,1.129002 1.192999,2.754002 1.602999,4.869001c0.360001,1.897999 0.540001,2.845999 0.540001,2.845999s0.037998,1.243 0.118999,3.732l0,0zm-1.693001,6.351c0.799,-1.609001 1.044003,-4.16 0.734001,-7.653999c-0.209999,-2.328001 -0.384998,-3.851999 -0.523998,-4.572001c-1.019001,-5.132999 -2.427002,-7.028999 -4.226002,-5.691c-0.938,3.426001 -1.063,8.184 -0.372999,14.277c0.258999,2.335999 0.622999,3.91 1.092999,4.719002c0.460001,0.810997 1.049,1.028999 1.769001,0.657997c0.598,-0.308998 1.108,-0.889 1.526999,-1.737z" fill="#FFFFFF"/>
    <path id="svg_25" d="m48.134998,34.243999c0.101002,1.957001 -0.373997,3.566002 -1.422997,4.824001c-1.139,1.368999 -2.662003,1.902 -4.569,1.601997c-0.030003,-0.007999 -0.062,-0.017998 -0.09,-0.026997c-0.229,-0.082001 -0.375,-0.510002 -0.435001,-1.289001c-0.02,-0.240002 -0.035,-0.528999 -0.044998,-0.868999c0,-0.359001 0,-0.549 0,-0.57c-0.110001,-1.756001 -0.185001,-3.987999 -0.225002,-6.697001c-0.009998,-0.549 -0.029999,-1.287001 -0.060001,-2.217001c-0.050999,-0.067999 -0.050999,-0.177999 0,-0.327999c-0.119999,-3.957001 -0.050999,-6.889 0.209003,-8.795c0.021,-0.15 0.084999,-0.289 0.195,-0.42c0.118999,-0.129 0.249001,-0.195 0.388,-0.195c1.278999,-0.039 2.308998,0.233999 3.087997,0.823999c0.898003,0.67 1.253002,1.622999 1.063,2.863001c-0.278999,1.837999 -1.303997,3.504 -3.070999,5.001999c1.338001,-0.028999 2.341999,0.307001 3.012001,1.004c1.179001,1.237001 1.833,3.001001 1.962997,5.288l0,0zm-2.681999,-11.505999c-0.098999,-1.549002 -1.179001,-2.361 -3.235001,-2.441c-0.189999,1.706999 -0.234997,4.214998 -0.136997,7.519999c2.358997,-1.628 3.481998,-3.320999 3.371998,-5.078999zm-2.846001,16.900999c1.997002,0.289001 3.380001,-0.365002 4.149002,-1.965c0.667999,-1.416 0.718998,-3.09 0.149998,-5.017998c-0.48,-1.639002 -1.073997,-2.678001 -1.782997,-3.117002c-0.749001,-0.459 -1.748001,-0.632999 -2.997002,-0.522999c0.011002,0.549 0.021,1.022999 0.029999,1.421999c0.040001,2.639 0.104,4.745998 0.194,6.321999c0.102001,1.859001 0.186001,2.816002 0.257,2.879002l0,0z" fill="#FFFFFF"/>
    <path id="svg_26" d="m55.207001,39.338001c0.278999,-0.051003 0.374001,0.095997 0.284,0.433998c-0.09,0.350002 -0.25,0.551003 -0.479,0.600002c-1.928001,0.358997 -3.491001,0.459 -4.688999,0.299c-0.140003,-0.018002 -0.215,-0.119003 -0.225002,-0.299c-0.209999,-7.590004 -0.165001,-14.402002 0.135002,-20.436001c0.009998,-0.18 0.063999,-0.344002 0.164997,-0.494001c0.120003,-0.157999 0.264999,-0.243999 0.435001,-0.254c0.487999,-0.039 1.868,-0.039 4.134998,0c0.240002,0.01 0.290001,0.186001 0.149002,0.523001c-0.130001,0.35 -0.309002,0.525 -0.539001,0.525c-2.007,-0.028999 -3.190998,-0.039 -3.550999,-0.028999c-0.069,1.626999 -0.104,4.112999 -0.104,7.460999c0.029999,0 1.069,-0.060999 3.116001,-0.181999c0.238998,-0.02 0.288998,0.145 0.148998,0.496c-0.130001,0.35 -0.310001,0.527 -0.539001,0.536999c-0.140999,0.012001 -0.594997,0.057001 -1.363998,0.137001c-0.558998,0.060999 -1.014,0.084 -1.362,0.073999c0,0.799 -0.006001,1.443001 -0.014999,1.932001c-0.031002,3.395998 -0.040001,5.51 -0.031002,6.337999c0,0.030998 -0.008999,0.240002 -0.028999,0.629002c-0.02,0.361 -0.024998,0.66 -0.014999,0.897999c0.021,0.771 0.185001,1.164001 0.493999,1.186001c0.978001,0.057999 2.271999,-0.065002 3.880001,-0.375l0,0z" fill="#FFFFFF"/>
    <path id="svg_27" d="m65.334,19.158001c1.727997,0.028999 2.996002,0.698999 3.806,2.007999c0.709,1.146 0.993004,2.640999 0.854004,4.479c-0.109001,1.559 -0.484001,2.857 -1.123001,3.895c-0.75,1.209 -1.798004,1.927999 -3.146004,2.157999c0.069,3.605001 0.109001,6.478998 0.120003,8.615c0,0.229 -0.130005,0.438999 -0.389999,0.629002c-0.270004,0.188999 -0.403999,0.128998 -0.403999,-0.18c-0.011002,-2.238003 -0.065002,-5.719002 -0.165001,-10.443001c-0.091003,-4.564001 -0.140999,-8.039 -0.149002,-10.426001c0,-0.171999 0.054001,-0.336 0.164001,-0.496c0.117996,-0.167999 0.263,-0.248999 0.432999,-0.238998l0,0zm0.374001,11.58c1.499001,-0.148001 2.537003,-1.02 3.116997,-2.605001c0.479004,-1.327999 0.563004,-2.799 0.254005,-4.406c-0.409004,-2.116999 -1.588005,-3.285 -3.535004,-3.505999c0.010002,2.306 0.064003,5.812 0.164001,10.517l0,0l0,0l0,0l0,0l0,0l0,0l0,0z" fill="#FFFFFF"/>
    <path id="svg_28" d="m77.109001,39.786999c0.040001,0.221001 -0.065002,0.449001 -0.313004,0.689003c-0.262001,0.25 -0.416,0.243999 -0.465996,-0.016003c-0.209,-1.058998 -0.479004,-2.399998 -0.808998,-4.028999c-0.479004,-2.326 -0.754005,-3.670002 -0.824005,-4.028999c-0.379997,0.010002 -0.893997,0.035 -1.542999,0.074001c-0.769997,0.038998 -1.288002,0.061001 -1.557999,0.061001c-0.279999,3.245998 -0.540001,5.776997 -0.778999,7.595997c-0.040001,0.260002 -0.189003,0.438 -0.449005,0.536999c-0.269997,0.111 -0.379997,-0.003998 -0.330994,-0.341999c0.100998,-0.739998 0.355995,-3.392998 0.764999,-7.956997c-0.010002,-0.059002 -0.004005,-0.129002 0.015999,-0.209003c0.099998,-1.048998 0.198997,-1.976999 0.298996,-2.786999c0.260002,-2.098 0.725006,-5.26 1.394005,-9.482c0.020996,-0.16 0.145996,-0.33 0.374001,-0.51c0.240997,-0.191 0.375,-0.166 0.404999,0.074001c0.440002,3.126999 1.148003,7.120998 2.126999,11.983999c0.051003,0.061001 0.065002,0.141001 0.045998,0.24c0.090004,0.419998 0.364006,1.772999 0.823006,4.061001c0.338997,1.648998 0.612999,2.995998 0.822998,4.044998l0,0zm-5.422005,-8.255999c0.350006,-0.007999 0.818001,-0.028999 1.407005,-0.059c0.720001,-0.039 1.188995,-0.063999 1.408997,-0.073999c-0.709999,-3.518002 -1.258995,-6.521 -1.647995,-9.02c-0.539001,3.295 -0.889,5.841999 -1.049004,7.640999c-0.029999,0.34 -0.07,0.844002 -0.119003,1.512001l0,0l0,0l0,0l0,0l0,0l0,0l0,0z" fill="#FFFFFF"/>
    <path id="svg_29" d="m85.394997,40.460999c0.279007,-0.028999 0.374001,0.125 0.284004,0.465c-0.090004,0.350002 -0.249001,0.533001 -0.479004,0.555c-1.037994,0.118999 -1.667,-0.454998 -1.888,-1.724998c-0.078995,-0.507999 -0.089996,-1.931999 -0.028999,-4.27c0.060005,-1.977001 -0.099998,-3.398003 -0.479996,-4.27c-0.539001,-1.277 -1.612,-1.866999 -3.220001,-1.768c0.079002,5.394999 0.120003,8.869001 0.120003,10.427999v0.028999v0.449001c0,0.240002 -0.136002,0.454998 -0.405006,0.646c-0.278999,0.188999 -0.419998,0.129002 -0.419998,-0.181999c0,-1.716999 -0.040001,-5.202999 -0.118996,-10.457001c-0.060005,-4.354 -0.07,-7.84 -0.030006,-10.457001c0,-0.17 0.055,-0.334 0.165001,-0.493999c0.129005,-0.188999 0.274002,-0.273001 0.435005,-0.254c1.248001,0.139 2.166,0.618999 2.756996,1.438c0.548004,0.77 0.788002,1.799 0.718002,3.086c-0.079002,1.397999 -0.329002,2.456999 -0.748001,3.176001c-0.221001,0.380999 -0.728996,0.903999 -1.528,1.573999c2.336998,0.17 3.544998,1.854 3.625,5.047001c0,0.131001 -0.040001,0.681999 -0.119003,1.649998c-0.07,0.979 -0.100998,1.777 -0.090996,2.396c0.040001,2.057003 0.059998,3.086002 0.059998,3.086002s0.463005,-0.048 1.391998,-0.148003l0,0l0,0l0,0l0,0l0,0l0,0l0,0l0,0zm-3.402,-16.763998c-0.049995,-1.898001 -0.867996,-3.031 -2.456993,-3.4c-0.020004,2.265999 -0.010002,4.938999 0.029999,8.015999c0.18,-0.18 0.414001,-0.4 0.703995,-0.66c0.409004,-0.358999 0.649002,-0.573999 0.720001,-0.645c0.708,-0.649 1.042999,-1.751999 1.002998,-3.310999l0,0z" fill="#FFFFFF"/>
    <path id="svg_30" d="m92.735001,39.338001c0.278999,-0.051003 0.375,0.095997 0.284996,0.433998c-0.090996,0.350002 -0.250999,0.551003 -0.479996,0.600002c-1.927002,0.358997 -3.489998,0.459 -4.689003,0.299c-0.139,-0.018002 -0.214996,-0.119003 -0.224998,-0.299c-0.209,-7.590004 -0.164001,-14.402002 0.135002,-20.436001c0.011002,-0.18 0.063995,-0.344002 0.165001,-0.494001c0.119995,-0.157999 0.264999,-0.243999 0.434998,-0.254c0.488998,-0.039 1.867996,-0.039 4.135002,0c0.239998,0.01 0.290001,0.186001 0.150002,0.523001c-0.131004,0.35 -0.311005,0.525 -0.539001,0.525c-2.008003,-0.028999 -3.192001,-0.039 -3.551003,-0.028999c-0.07,1.626999 -0.105003,4.112999 -0.105003,7.460999c0.030006,0 1.068001,-0.060999 3.116005,-0.181999c0.239998,-0.02 0.290001,0.145 0.149002,0.496c-0.129005,0.35 -0.309006,0.527 -0.539001,0.536999c-0.139999,0.012001 -0.594002,0.057001 -1.362999,0.137001c-0.560005,0.060999 -1.014,0.084 -1.363007,0.073999c0,0.799 -0.005997,1.443001 -0.014999,1.932001c-0.029999,3.395998 -0.039993,5.51 -0.029999,6.337999c0,0.030998 -0.009995,0.240002 -0.029999,0.629002c-0.019997,0.361 -0.024002,0.66 -0.014999,0.897999c0.019997,0.771 0.184998,1.164001 0.495003,1.186001c0.976997,0.057999 2.270996,-0.065002 3.878998,-0.375l0,0l0,0l0,0l0,0l0,0l0,0l0,0l0,0z" fill="#FFFFFF"/>
    <path id="svg_31" d="m101.620003,19.037001c0.188995,5.715 0.493996,12.789 0.913994,21.229998c0.009003,0.188004 -0.104996,0.395 -0.345993,0.613003c-0.240005,0.229 -0.395004,0.215 -0.465004,-0.045002c-0.657997,-2.386997 -1.652,-5.424 -2.980003,-9.108999c-1.776993,-4.952999 -2.846992,-7.975 -3.206993,-9.063999c0.140999,6.901999 0.360001,12.770998 0.659996,17.604998c0.010002,0.240002 -0.118996,0.453003 -0.389999,0.643002s-0.414001,0.131001 -0.434998,-0.18c-0.330002,-5.402 -0.57,-12.379 -0.719002,-20.927999c0,-0.191 0.113998,-0.395 0.345001,-0.615c0.228996,-0.23 0.383995,-0.215 0.463997,0.045c0.639,2.136999 1.638,5.073999 2.996002,8.810999c1.487999,4.112999 2.507996,7.039001 3.056999,8.778999c-0.32,-6.653999 -0.555,-12.431999 -0.703003,-17.335999c-0.011993,-0.24 0.119003,-0.455 0.389,-0.645c0.270004,-0.187 0.408005,-0.124001 0.420006,0.196001l0,0l0,0l0,0l0,0l0,0l0,0l0,0l0,0z" fill="#FFFFFF"/>
    <path id="svg_32" d="m111.147003,19.172001c0.239998,0 0.288986,0.169998 0.149986,0.509998c-0.130997,0.35 -0.305,0.525002 -0.524986,0.525002c-0.410004,0 -0.959,0.009998 -1.647003,0.028999c-0.819,0.031 -1.367996,0.049 -1.647003,0.061001c0.008003,3.018 0.164001,9.716999 0.465004,20.105c0.009003,0.229 -0.121002,0.438999 -0.390999,0.628998s-0.410004,0.129002 -0.419998,-0.179996c-0.300003,-10.566002 -0.453003,-17.395002 -0.465004,-20.480001c0,-0.01 0.005997,-0.029001 0.015999,-0.061001c-1.407997,0.072001 -2.223,-0.049 -2.441002,-0.358999c-0.129997,-0.18 -0.079987,-0.414 0.150002,-0.705c0.219002,-0.289 0.398003,-0.332001 0.539001,-0.132999c0.128998,0.179998 0.599998,0.259998 1.407997,0.24c0.239014,0 0.539001,-0.016001 0.898003,-0.047001c0.359001,-0.02 0.564003,-0.035 0.614998,-0.045c0.278999,0 0.828003,-0.015999 1.646004,-0.045c0.690002,-0.018999 1.238998,-0.034 1.649002,-0.043999l0,0z" fill="#FFFFFF"/>
    <path id="svg_33" d="m118.712997,19.697001c0.18,0.139 0.175003,0.368999 -0.014999,0.688c-0.188995,0.322001 -0.375,0.412001 -0.555,0.271c-1.546997,-1.15 -2.671997,-1.219 -3.370995,-0.211c-0.359001,0.51 -0.590004,1.118999 -0.689003,1.828001c-0.099998,0.688999 -0.064003,1.337999 0.105003,1.948999c0.409996,1.386999 1.317993,2.781 2.726997,4.177999c1.359001,1.35 2.306999,2.492001 2.848,3.432001c0.808998,1.397999 1.098,2.837997 0.867996,4.315998c-0.189995,1.166 -0.553993,2.236 -1.092995,3.205002c-0.740005,1.327999 -1.613998,1.902 -2.623001,1.723c-0.938004,-0.18 -1.432999,-0.754002 -1.482002,-1.723c-0.030998,-0.801003 0.199005,-1.612999 0.688004,-2.441002c0.169998,-0.291 0.353996,-0.381001 0.554001,-0.271c0.189995,0.109001 0.199997,0.314003 0.029999,0.615002c-0.618004,1.028999 -0.694,1.808998 -0.223999,2.335999c0.218994,0.240002 0.468994,0.389 0.747993,0.449001c0.310005,0.061001 0.595001,0.006001 0.854004,-0.164001c0.768997,-0.487999 1.304001,-1.327999 1.602997,-2.517998c0.278999,-1.088001 0.295006,-2.105 0.045006,-3.055c-0.319,-1.209 -1.078003,-2.453001 -2.277,-3.730001c-1.657005,-1.757999 -2.631004,-2.861 -2.920006,-3.313c-0.659996,-1.02 -1.073997,-2.072001 -1.243996,-3.16c-0.189003,-1.229 -0.021004,-2.337999 0.510002,-3.326c0.558998,-1.059 1.272995,-1.684 2.141998,-1.871c0.878998,-0.188999 1.802002,0.073 2.770996,0.793001l0,0l0,0l0,0l0,0l0,0l0,0l0,0l0,0z" fill="#FFFFFF"/>
   </g>
  </g>
 </g>
</svg>
